<svg width="29" height="29" viewBox="0 0 36 36" fill="none" xmlns="http://www.w3.org/2000/svg">
<path d="M17.611 0.101562C7.96179 0.101562 0.111328 7.95202 0.111328 17.6016C0.111328 27.2514 7.96179 35.1016 17.611 35.1016C27.2606 35.1016 35.1113 27.2514 35.1113 17.6016C35.111 7.95202 27.2603 0.101562 17.611 0.101562ZM17.611 33.3756C8.91339 33.3756 1.83734 26.2995 1.83734 17.6016C1.83734 8.90392 8.91339 1.82757 17.611 1.82757C26.3087 1.82757 33.3853 8.90392 33.3853 17.6016C33.385 26.2995 26.3087 33.3756 17.611 33.3756Z" fill="#209400"/>
<path d="M18.5186 8.58558L18.5436 8.5855L18.5535 8.58447H21.9828V11.9892H18.2974H17.7974V12.4892V14.5911V15.0911H18.2974H21.9828V18.557H18.575H18.075V19.057V27.4153H14.8255V19.0567V18.5567H14.3255H12.0166V15.0909H14.3255H14.8255V14.5909V13.0312L14.8333 12.9986L14.8333 12.9405C14.8343 11.8255 14.9589 10.7385 15.4624 9.93592C15.936 9.1811 16.8025 8.59099 18.5186 8.58558ZM22.4828 12.2114V8.36225C22.4831 8.20892 22.3587 8.08447 22.2054 8.08447H18.542C18.5334 8.08447 18.5251 8.08475 18.517 8.08558C14.8183 8.09725 14.3353 10.6814 14.3333 12.94C14.3283 12.9611 14.3255 12.9828 14.3255 13.0053V14.0909V14.5909H13.8255H11.7942C11.641 14.5909 11.5166 14.7153 11.5166 14.8686V18.7789C11.5166 18.9325 11.641 19.0567 11.7942 19.0567H13.8255H14.3255V19.5567V27.6375C14.3255 27.7911 14.4499 27.9153 14.6032 27.9153H18.2974C18.4509 27.9153 18.575 27.7911 18.575 27.6375V19.557V19.057H19.075H22.2052C22.3587 19.057 22.4828 18.9328 22.4828 18.7792V14.8689C22.4828 14.7156 22.3587 14.5911 22.2052 14.5911H18.7974H18.2974V14.0911V12.9892V12.4892H18.7974H22.2052C22.3587 12.4892 22.4828 12.3648 22.4828 12.2114Z" stroke="#209400"/>
</svg>
