<svg width="30" height="30" viewBox="0 0 40 40" fill="none" xmlns="http://www.w3.org/2000/svg">
<path d="M33.2511 6.74592C29.8676 3.35154 25.176 1.25537 19.997 1.25537C14.8283 1.25537 10.1371 3.35154 6.74298 6.74584C3.34884 10.14 1.2522 14.8208 1.2522 19.9999C1.2522 25.1788 3.34876 29.86 6.74298 33.254C10.1371 36.6483 14.8283 38.7443 19.997 38.7443C25.176 38.7443 29.8675 36.6483 33.2511 33.254C36.6451 29.86 38.7419 25.1788 38.7419 19.9999C38.7419 14.8208 36.6452 10.1401 33.2511 6.74592ZM32.2238 32.2264C29.089 35.3508 24.7716 37.2812 19.9971 37.2812C15.2331 37.2812 10.905 35.3508 7.7811 32.2264C4.65665 29.0922 2.71587 24.7744 2.71587 20C2.71587 15.2257 4.65665 10.9079 7.7811 7.78381C10.905 4.65975 15.2331 2.71857 19.9971 2.71857C24.7717 2.71857 29.089 4.65975 32.2238 7.78381C35.3479 10.9079 37.2784 15.2257 37.2784 20C37.2784 24.7744 35.3479 29.0922 32.2238 32.2264Z" fill="#209400"/>
<path d="M19.9971 13.9385C16.6549 13.9385 13.9358 16.6576 13.9358 19.9998C13.9358 23.3525 16.6549 26.0615 19.9971 26.0615C23.3495 26.0615 26.0584 23.3525 26.0584 19.9998C26.0585 16.6576 23.3495 13.9385 19.9971 13.9385ZM19.9971 24.8054C17.3505 24.8054 15.2019 22.6568 15.2019 19.9998C15.2019 17.3532 17.3504 15.1942 19.9971 15.1942C22.6542 15.1942 24.8027 17.3532 24.8027 19.9998C24.8027 22.6568 22.6542 24.8054 19.9971 24.8054Z" fill="#209400"/>
<path d="M24.9583 10.625H15.0464C12.6073 10.625 10.5469 12.5995 10.5469 15.0495V24.9616C10.5469 27.4 12.6073 29.1406 15.0464 29.1406H24.9583C27.4077 29.1406 29.4531 27.4 29.4531 24.9616V15.0495C29.4531 12.5995 27.4077 10.625 24.9583 10.625ZM28.3594 24.9616C28.3594 26.7982 26.7955 28.0469 24.9583 28.0469H15.0464C13.2089 28.0469 11.7188 26.7982 11.7188 24.9616V15.0495C11.7188 13.212 13.2089 11.7188 15.0464 11.7188H24.9583C26.7955 11.7188 28.3594 13.212 28.3594 15.0495V24.9616Z" fill="#209400"/>
<path d="M25.9443 13.1187C25.8162 13.1185 25.6892 13.1436 25.5708 13.1925C25.4524 13.2415 25.3448 13.3133 25.2542 13.4039C25.1636 13.4945 25.0917 13.6021 25.0427 13.7205C24.9937 13.8389 24.9686 13.9658 24.9688 14.094C24.9688 14.6339 25.4045 15.0697 25.9443 15.0697C26.0725 15.0699 26.1994 15.0448 26.3179 14.9958C26.4364 14.9468 26.544 14.8749 26.6347 14.7843C26.7253 14.6937 26.7972 14.586 26.8462 14.4676C26.8952 14.3491 26.9203 14.2222 26.9202 14.094C26.9202 13.5544 26.484 13.1187 25.9443 13.1187Z" fill="#209400"/>
</svg>
