<svg width="30" height="30" viewBox="0 0 40 40" fill="none" xmlns="http://www.w3.org/2000/svg">
<g clip-path="url(#clip0_101_798)">
<path d="M0.729092 35.5029C0.610499 35.5035 0.493567 35.475 0.388513 35.42C0.28346 35.365 0.193482 35.2851 0.126441 35.1872C0.0594003 35.0894 0.0173368 34.9766 0.00392605 34.8588C-0.00948472 34.741 0.00616528 34.6217 0.0495086 34.5113L2.76638 27.4456C0.954064 24.6302 -0.00657858 21.3512 -7.47433e-05 18.0029C-7.47433e-05 8.35314 7.85013 0.50293 17.4999 0.50293C27.1497 0.50293 34.9999 8.35314 34.9999 18.0029C34.9999 27.6527 27.1497 35.5029 17.4999 35.5029C14.2274 35.5029 11.041 34.59 8.2643 32.8575L0.974092 35.4606C0.895547 35.489 0.81261 35.5033 0.729092 35.5029ZM8.35618 31.3219C8.49618 31.3219 8.63472 31.3613 8.7543 31.44C11.3537 33.1415 14.3932 34.0473 17.4999 34.0461C26.3447 34.0461 33.5416 26.8492 33.5416 18.0044C33.5416 9.1596 26.3447 1.96272 17.4999 1.96272C8.65513 1.96272 1.45826 9.1596 1.45826 18.0044C1.45826 21.2098 2.40034 24.3044 4.18534 26.9527C4.31805 27.1496 4.34576 27.4004 4.26118 27.6221L1.98034 33.5531L8.11118 31.3642C8.18987 31.3364 8.27271 31.3221 8.35618 31.3219Z" fill="#209400"/>
<path d="M21.875 26.7529C19.584 26.7529 15.1856 24.0127 13.3379 22.165C11.4902 20.3158 8.75 15.9175 8.75 13.6279C8.75 11.2713 10.7552 9.25293 12.3958 9.25293H13.8542C13.9902 9.25307 14.1234 9.29124 14.2389 9.36314C14.3543 9.43504 14.4474 9.5378 14.5075 9.65981C14.509 9.66126 15.3869 11.4463 15.9615 12.5663C16.609 13.8306 15.3913 15.3181 14.6985 16.0196C14.9465 16.6554 15.5254 17.9154 16.5565 18.9465C17.5875 19.9775 18.8475 20.5579 19.4833 20.8044C20.1833 20.1102 21.6708 18.8911 22.9367 19.5415C24.0567 20.1175 25.8402 20.994 25.8417 20.994C26.0925 21.1179 26.25 21.3717 26.25 21.6488V23.1071C26.25 24.7492 24.2302 26.7529 21.875 26.7529ZM12.3958 10.7113C11.5719 10.7113 10.2083 12.0748 10.2083 13.6279C10.2083 15.3181 12.5913 19.3533 14.3704 21.1325C16.3144 23.0765 20.3117 25.2946 21.875 25.2946C23.4281 25.2946 24.7917 23.9311 24.7917 23.1071V22.1023C23.9481 21.6874 23.1076 21.2664 22.2702 20.8394C21.929 20.6556 20.8921 21.3863 20.2344 22.1315C20.1428 22.2348 20.0237 22.3101 19.891 22.3486C19.7584 22.387 19.6175 22.3871 19.4848 22.3488C19.3929 22.3225 17.2331 21.6838 15.5254 19.9761C13.8177 18.2683 13.1804 16.1086 13.1527 16.0167C13.1144 15.884 13.1144 15.7431 13.1529 15.6104C13.1913 15.4778 13.2666 15.3587 13.37 15.2671C14.1138 14.6094 14.84 13.5769 14.6621 13.2298C14.2552 12.4379 13.6967 11.3092 13.4021 10.7113H12.3958Z" fill="#209400"/>
</g>
<defs>
<clipPath id="clip0_101_798">
<rect width="35" height="35" fill="white" transform="translate(0 0.5)"/>
</clipPath>
</defs>
</svg>
