<svg width="15" height="25" viewBox="0 0 18 33" fill="none" xmlns="http://www.w3.org/2000/svg">
<path d="M0.979329 0.56165C0.734016 0.8128 0.59668 1.14995 0.59668 1.50102C0.59668 1.8521 0.734016 2.18925 0.979329 2.4404L14.6846 16.5001L0.979329 30.557C0.734016 30.8081 0.59668 31.1453 0.59668 31.4963C0.59668 31.8474 0.734016 32.1846 0.979329 32.4357C1.09857 32.5582 1.24113 32.6555 1.39861 32.722C1.55608 32.7884 1.72528 32.8227 1.8962 32.8227C2.06713 32.8227 2.23632 32.7884 2.3938 32.722C2.55128 32.6555 2.69384 32.5582 2.81308 32.4357L17.3875 17.4816C17.6434 17.219 17.7867 16.8668 17.7867 16.5001C17.7867 16.1334 17.6434 15.7811 17.3875 15.5185L2.81308 0.564463C2.69384 0.441997 2.55128 0.344659 2.3938 0.278196C2.23632 0.211732 2.06713 0.17749 1.8962 0.17749C1.72528 0.17749 1.55608 0.211732 1.39861 0.278196C1.24113 0.344659 1.09857 0.441997 0.979329 0.564463V0.56165Z" fill="#635F5F"/>
</svg>
