<svg width="90" height="90" viewBox="0 0 90 90" fill="none" xmlns="http://www.w3.org/2000/svg">
<circle cx="45" cy="45" r="45" fill="#209400" fill-opacity="0.2"/>
<path d="M65.7375 26.4375H21.8625C20.9291 26.4375 20.175 27.1916 20.175 28.125V61.875C20.175 62.8084 20.9291 63.5625 21.8625 63.5625H65.7375C66.6709 63.5625 67.425 62.8084 67.425 61.875V28.125C67.425 27.1916 66.6709 26.4375 65.7375 26.4375ZM63.6281 32.2805V59.7656H23.9719V32.2805L22.5164 31.1467L24.5889 28.4836L26.8459 30.2396H60.7594L63.0164 28.4836L65.0889 31.1467L63.6281 32.2805ZM60.7594 30.2344L43.8 43.418L26.8406 30.2344L24.5836 28.4783L22.5111 31.1414L23.9666 32.2752L41.9807 46.2814C42.4987 46.6839 43.1361 46.9024 43.7921 46.9024C44.4481 46.9024 45.0854 46.6839 45.6035 46.2814L63.6281 32.2805L65.0836 31.1467L63.0111 28.4836L60.7594 30.2344Z" fill="#209400"/>
</svg>
