<svg width="1512" height="348" viewBox="0 0 1512 348" fill="none" xmlns="http://www.w3.org/2000/svg">
<rect width="1512" height="348" fill="#D2EACC"/>
<g clip-path="url(#clip0_260_42)">
<path d="M128 209.75C128 213.194 125.203 216 121.75 216C118.297 216 115.5 213.194 115.5 209.75C115.5 206.284 118.297 203.5 121.75 203.5C125.203 203.5 128 206.284 128 209.75ZM121.988 197.178C117.812 197.178 113.894 195.544 110.941 192.588C107.987 189.134 106.363 185.216 106.363 181.041C106.363 176.866 107.987 172.947 110.941 170.506L131.841 149.606C134.2 147.238 135.5 144.1 135.5 140.769C135.5 137.425 134.2 134.288 131.838 131.931C126.966 127.059 119.037 127.05 114.169 131.931C111.8 134.288 110.5 137.422 110.5 140.769H98C98 134.091 100.606 127.806 105.338 123.081C114.775 113.634 131.228 113.644 140.678 123.094C145.4 127.803 148 134.078 148 140.769C148 147.447 145.4 153.722 140.675 158.444L119.775 178.828C118.559 180.05 118.559 182.025 119.775 183.247C120.997 184.469 122.972 184.469 124.194 183.247C124.987 182.441 125.109 181.513 125.109 181.025H137.609C137.609 185.2 135.984 189.131 133.031 192.584C130.081 195.541 126.163 197.178 121.988 197.178Z" fill="#209400" fill-opacity="0.3"/>
</g>
<path d="M1145.62 107.75C1130.12 107.75 1117.5 95.1331 1117.5 79.625C1117.5 64.1169 1130.12 51.5 1145.62 51.5C1161.13 51.5 1173.75 64.1169 1173.75 79.625C1173.75 85.7825 1171.81 91.6081 1168.14 96.4663L1167.71 97.0119C1166.35 98.7612 1164.77 100.338 1163.02 101.709L1162.49 102.119C1157.61 105.811 1151.78 107.75 1145.62 107.75ZM1145.62 55.25C1132.18 55.25 1121.25 66.185 1121.25 79.625C1121.25 93.065 1132.18 104 1145.62 104C1150.96 104 1156 102.322 1160.21 99.1475L1160.72 98.7444C1162.22 97.5744 1163.58 96.2113 1164.75 94.7075L1165.16 94.1881C1168.32 90.0031 1170 84.9613 1170 79.625C1170 66.185 1159.06 55.25 1145.62 55.25Z" fill="#209400" fill-opacity="0.5"/>
<path d="M1173.94 115.895L1158.51 100.471L1160.72 98.7444C1162.22 97.5744 1163.58 96.2113 1164.75 94.7075L1166.47 92.5081L1181.9 107.937L1173.94 115.895ZM1164.13 100.788L1173.94 110.592L1176.59 107.937L1166.79 98.1331C1165.97 99.0781 1165.08 99.965 1164.13 100.788ZM1145.62 81.5C1144.59 81.5 1143.75 80.6619 1143.75 79.625C1143.75 78.5881 1144.59 77.75 1145.62 77.75C1147.69 77.75 1149.38 76.0681 1149.38 74C1149.38 71.9319 1147.69 70.25 1145.62 70.25C1143.56 70.25 1141.88 71.9319 1141.88 74C1141.88 75.0369 1141.04 75.875 1140 75.875C1138.97 75.875 1138.12 75.0369 1138.12 74C1138.12 69.8637 1141.49 66.5 1145.62 66.5C1149.76 66.5 1153.12 69.8637 1153.12 74C1153.12 78.1363 1149.76 81.5 1145.62 81.5ZM1145.62 92.75C1145.12 92.75 1144.65 92.5606 1144.29 92.2062C1143.94 91.85 1143.75 91.3813 1143.75 90.875C1143.75 90.6313 1143.81 90.3875 1143.9 90.1625C1143.99 89.9375 1144.13 89.7313 1144.29 89.5438C1144.82 89.0188 1145.66 88.85 1146.34 89.15C1146.58 89.2437 1146.77 89.375 1146.96 89.5438C1147.29 89.8981 1147.5 90.3875 1147.5 90.875C1147.5 91.3813 1147.31 91.85 1146.96 92.2062C1146.6 92.5606 1146.13 92.75 1145.62 92.75Z" fill="#209400" fill-opacity="0.5"/>
<path d="M1145.62 85.25C1144.59 85.25 1143.75 84.4119 1143.75 83.375V79.625C1143.75 78.5881 1144.59 77.75 1145.62 77.75C1146.66 77.75 1147.5 78.5881 1147.5 79.625V83.375C1147.5 84.4119 1146.66 85.25 1145.62 85.25Z" fill="#209400" fill-opacity="0.5"/>
<path d="M381.667 103.667C367.882 103.667 356.667 92.4516 356.667 78.6666C356.667 64.8816 367.882 53.6666 381.667 53.6666C395.452 53.6666 406.667 64.8816 406.667 78.6666C406.667 84.14 404.942 89.3183 401.68 93.6366L401.3 94.1216C400.085 95.6766 398.682 97.0783 397.128 98.2966L396.662 98.6616C392.318 101.943 387.142 103.667 381.667 103.667ZM381.667 57C369.72 57 360 66.72 360 78.6666C360 90.6133 369.72 100.333 381.667 100.333C386.41 100.333 390.892 98.8416 394.628 96.02L395.085 95.6616C396.413 94.6216 397.625 93.41 398.67 92.0733L399.033 91.6116C401.842 87.8916 403.333 83.41 403.333 78.6666C403.333 66.72 393.613 57 381.667 57Z" fill="#209400" fill-opacity="0.4"/>
<path d="M381.667 97C378.45 97 375.28 96.15 372.5 94.5433C366.845 91.2716 363.333 85.1883 363.333 78.6666C363.333 68.5583 371.558 60.3333 381.667 60.3333C391.775 60.3333 400 68.5583 400 78.6666C400 82.845 398.637 86.77 396.055 90.0216C395.16 91.1516 394.138 92.1733 393.015 93.0583C392.288 93.6333 391.572 94.1216 390.827 94.5483C388.053 96.15 384.883 97 381.667 97ZM381.667 63.6666C373.397 63.6666 366.667 70.395 366.667 78.6666C366.667 84.0016 369.542 88.98 374.168 91.6583C378.715 94.285 384.618 94.2866 389.167 91.6566C389.772 91.3116 390.353 90.915 390.95 90.4416C391.885 89.705 392.7 88.89 393.445 87.9483C395.553 85.2933 396.667 82.085 396.667 78.6666C396.667 70.395 389.937 63.6666 381.667 63.6666ZM418.618 125.33C417.338 125.33 416.058 124.843 415.083 123.868L405.655 114.442C403.705 112.492 403.705 109.32 405.655 107.37L410.368 102.657C412.317 100.705 415.488 100.705 417.44 102.657L426.868 112.085C427.813 113.027 428.333 114.283 428.333 115.62C428.333 116.955 427.813 118.212 426.868 119.155L422.155 123.868C421.18 124.843 419.9 125.33 418.618 125.33ZM413.905 104.527C413.478 104.527 413.052 104.688 412.725 105.013L408.012 109.727C407.362 110.378 407.362 111.433 408.012 112.085L417.44 121.512C418.088 122.162 419.147 122.163 419.798 121.512L424.512 116.798C424.827 116.482 425 116.063 425 115.62C425 115.173 424.827 114.757 424.513 114.443L415.085 105.013C414.758 104.687 414.332 104.527 413.905 104.527ZM418.333 58.6666C415.577 58.6666 413.333 56.4233 413.333 53.6666C413.333 50.91 415.577 48.6666 418.333 48.6666C421.09 48.6666 423.333 50.91 423.333 53.6666C423.333 56.4233 421.09 58.6666 418.333 58.6666ZM418.333 52C417.415 52 416.667 52.7466 416.667 53.6666C416.667 54.5866 417.415 55.3333 418.333 55.3333C419.252 55.3333 420 54.5866 420 53.6666C420 52.7466 419.252 52 418.333 52ZM423.333 75.3333H413.333C411.495 75.3333 410 73.8383 410 72V67C410 64.2433 412.243 62 415 62H421.667C424.423 62 426.667 64.2433 426.667 67V72C426.667 73.8383 425.172 75.3333 423.333 75.3333ZM415 65.3333C414.082 65.3333 413.333 66.08 413.333 67V72H423.335L423.333 67C423.333 66.08 422.585 65.3333 421.667 65.3333H415ZM360 108.667C357.243 108.667 355 106.423 355 103.667C355 100.91 357.243 98.6666 360 98.6666C362.757 98.6666 365 100.91 365 103.667C365 106.423 362.757 108.667 360 108.667ZM360 102C359.082 102 358.333 102.747 358.333 103.667C358.333 104.587 359.082 105.333 360 105.333C360.918 105.333 361.667 104.587 361.667 103.667C361.667 102.747 360.918 102 360 102ZM365 125.333H355C353.162 125.333 351.667 123.838 351.667 122V117C351.667 114.243 353.91 112 356.667 112H363.333C366.09 112 368.333 114.243 368.333 117V122C368.333 123.838 366.838 125.333 365 125.333ZM356.667 115.333C355.748 115.333 355 116.08 355 117V122H365.002L365 117C365 116.08 364.252 115.333 363.333 115.333H356.667Z" fill="#209400" fill-opacity="0.4"/>
<path d="M406.833 110.907L393.123 97.1967L395.085 95.6617C396.413 94.6217 397.625 93.41 398.67 92.0733L400.193 90.1183L413.908 103.833L406.833 110.907ZM398.118 97.4783L406.833 106.193L409.193 103.833L400.478 95.1183C399.747 95.9583 398.958 96.7467 398.118 97.4783ZM381.667 80.3333C380.747 80.3333 380 79.5883 380 78.6667C380 77.745 380.747 77 381.667 77C383.505 77 385 75.505 385 73.6667C385 71.8283 383.505 70.3333 381.667 70.3333C379.828 70.3333 378.333 71.8283 378.333 73.6667C378.333 74.5883 377.587 75.3333 376.667 75.3333C375.747 75.3333 375 74.5883 375 73.6667C375 69.99 377.99 67 381.667 67C385.343 67 388.333 69.99 388.333 73.6667C388.333 77.3433 385.343 80.3333 381.667 80.3333ZM381.667 90.3333C381.217 90.3333 380.8 90.165 380.483 89.85C380.167 89.5333 380 89.1167 380 88.6667C380 88.45 380.05 88.2333 380.133 88.0333C380.217 87.8333 380.333 87.65 380.483 87.4833C380.95 87.0167 381.7 86.8667 382.3 87.1333C382.517 87.2167 382.683 87.3333 382.85 87.4833C383.15 87.7983 383.333 88.2333 383.333 88.6667C383.333 89.1167 383.167 89.5333 382.85 89.85C382.533 90.165 382.117 90.3333 381.667 90.3333Z" fill="#209400" fill-opacity="0.4"/>
<path d="M381.667 83.6667C380.747 83.6667 380 82.9217 380 82V78.6667C380 77.745 380.747 77 381.667 77C382.587 77 383.333 77.745 383.333 78.6667V82C383.333 82.9217 382.587 83.6667 381.667 83.6667Z" fill="#209400" fill-opacity="0.4"/>
<g clip-path="url(#clip1_260_42)">
<path fill-rule="evenodd" clip-rule="evenodd" d="M308.269 252.754C308.183 252.751 308.098 252.75 308.012 252.75H307.822C307.736 252.75 307.65 252.751 307.565 252.754C293.035 252.992 281.25 264.793 281.25 279.417C281.25 284.326 285.23 288.306 290.139 288.306C295.048 288.306 299.028 284.326 299.028 279.417C299.028 274.581 302.958 270.579 307.917 270.528C312.876 270.579 316.806 274.581 316.806 279.417C316.806 284.283 312.826 288.306 307.822 288.306C302.913 288.306 298.933 292.285 298.933 297.194V309.046C298.933 313.956 302.913 317.935 307.822 317.935C312.731 317.935 316.71 313.956 316.71 309.046V304.575C327.099 300.929 334.583 291.071 334.583 279.417C334.583 264.793 322.798 252.992 308.269 252.754ZM308.012 258.676C308.044 258.676 308.076 258.677 308.108 258.677L308.155 258.679C319.495 258.855 328.657 268.059 328.657 279.417C328.657 289.094 322.005 297.212 313.014 299.508C311.702 299.843 310.785 301.025 310.785 302.379V309.046C310.785 310.683 309.458 312.009 307.822 312.009C306.185 312.009 304.859 310.683 304.859 309.046V297.194C304.859 295.558 306.185 294.231 307.822 294.231C316.073 294.231 322.731 287.581 322.731 279.417C322.731 271.291 316.137 264.666 307.939 264.602H307.894C299.697 264.666 293.102 271.291 293.102 279.417C293.102 281.053 291.775 282.38 290.139 282.38C288.503 282.38 287.176 281.053 287.176 279.417C287.176 268.059 296.339 258.855 307.679 258.679L307.726 258.677C307.757 258.677 307.789 258.676 307.822 258.676H308.012ZM307.917 329.787C306.28 329.787 304.954 331.114 304.954 332.75C304.954 334.386 306.28 335.713 307.917 335.713C309.553 335.713 310.88 334.386 310.88 332.75C310.88 331.114 309.553 329.787 307.917 329.787ZM299.028 332.75C299.028 327.841 303.007 323.861 307.917 323.861C312.826 323.861 316.806 327.841 316.806 332.75C316.806 337.659 312.826 341.639 307.917 341.639C303.007 341.639 299.028 337.659 299.028 332.75Z" fill="#209400" fill-opacity="0.5"/>
</g>
<path d="M1421.28 146.962C1429.49 142.039 1433.61 132.726 1431.77 123.234C1430.03 114.268 1422.8 107.176 1413.78 105.591C1402.1 103.545 1390.74 110.893 1387.93 122.337C1387.3 124.932 1388.89 127.558 1391.49 128.194C1394.08 128.83 1396.71 127.231 1397.35 124.641C1398.97 118.017 1405.31 113.928 1412.1 115.134C1417.11 116.014 1421.29 120.106 1422.26 125.083C1423.32 130.522 1420.97 135.849 1416.3 138.654C1409.16 142.929 1404.9 150.295 1404.9 158.357V160.017C1404.9 162.688 1407.08 164.862 1409.75 164.862C1412.42 164.862 1414.59 162.688 1414.59 160.017V158.357C1414.59 153.732 1417.09 149.474 1421.28 146.962ZM1410 167.137C1407.33 167.137 1405.15 169.311 1405.15 171.982V177.905C1405.15 180.576 1407.33 182.75 1410 182.75C1412.67 182.75 1414.84 180.576 1414.84 177.905V171.982C1414.84 169.311 1412.67 167.137 1410 167.137Z" fill="#209400" fill-opacity="0.3"/>
<path d="M1280.37 265.316C1276.01 265.316 1272.47 268.85 1272.47 273.211V283.737C1272.47 288.097 1276.01 291.632 1280.37 291.632C1281.96 291.647 1296.16 294.263 1296.16 304.79C1296.16 310.053 1290.89 315.316 1283 315.316C1276.58 315.316 1272.47 310.053 1272.47 307.421C1272.47 303.061 1268.94 299.526 1264.58 299.526C1260.22 299.526 1256.68 303.061 1256.68 307.421C1256.68 320.258 1268.74 331.105 1283 331.105C1304.05 331.105 1311.95 315.363 1311.95 302.158C1311.95 291.25 1305.96 282.913 1295.07 278.682C1292.7 277.761 1290.36 277.137 1288.26 276.716V273.211C1288.26 268.85 1284.73 265.316 1280.37 265.316Z" fill="#209400" fill-opacity="0.3"/>
<path d="M1288.26 252.158C1288.26 247.797 1284.73 244.263 1280.37 244.263C1276.01 244.263 1272.47 247.797 1272.47 252.158C1272.47 256.518 1276.01 260.053 1280.37 260.053C1284.73 260.053 1288.26 256.518 1288.26 252.158Z" fill="#209400" fill-opacity="0.3"/>
<defs>
<clipPath id="clip0_260_42">
<rect width="50" height="100" fill="white" transform="translate(98 116)"/>
</clipPath>
<clipPath id="clip1_260_42">
<rect width="100" height="100" fill="white" transform="translate(250 234)"/>
</clipPath>
</defs>
</svg>
