<svg width="140" height="51" viewBox="0 0 170 51" fill="none" xmlns="http://www.w3.org/2000/svg">
<g clip-path="url(#clip0_137_115)">
<path fill-rule="evenodd" clip-rule="evenodd" d="M164.203 0H5.79671C2.61475 0 0 2.50494 0 5.55327V45.46C0 48.5083 2.61475 51.0133 5.79671 51.0133H164.203C167.385 51.0133 170 48.5083 170 45.46V5.55327C170 2.50494 167.385 0 164.203 0Z" fill="#2AB200"/>
<path d="M56.2518 0V51H52.9453V0H56.2518Z" fill="#26A000"/>
<path d="M63.5146 31.7451V20.4658H65.2388L70.1694 28.6997H69.2671L74.1172 20.4658H75.8413L75.8574 31.7451H73.8755L73.8594 23.5757H74.2783L70.1533 30.4561H69.2188L65.0293 23.5757H65.5127V31.7451H63.5146ZM83.0774 31.8579C82.1214 31.8579 81.2835 31.6699 80.5638 31.2939C79.8548 30.9072 79.3016 30.3809 78.9041 29.7148C78.5174 29.0488 78.324 28.2915 78.324 27.4429C78.324 26.5835 78.512 25.8262 78.888 25.1709C79.2747 24.5049 79.8011 23.9839 80.4671 23.6079C81.1438 23.2319 81.9119 23.0439 82.7713 23.0439C83.6092 23.0439 84.3558 23.2266 85.011 23.5918C85.6663 23.957 86.1819 24.4727 86.5579 25.1387C86.9339 25.8047 87.1219 26.5889 87.1219 27.4912C87.1219 27.5771 87.1165 27.6738 87.1058 27.7812C87.1058 27.8887 87.1004 27.9907 87.0896 28.0874H79.9192V26.75H86.0262L85.2366 27.1689C85.2474 26.6748 85.1453 26.2397 84.9305 25.8638C84.7156 25.4878 84.4202 25.1924 84.0442 24.9775C83.679 24.7627 83.2547 24.6553 82.7713 24.6553C82.2771 24.6553 81.8421 24.7627 81.4661 24.9775C81.1009 25.1924 80.8108 25.4932 80.596 25.8799C80.3919 26.2559 80.2898 26.7017 80.2898 27.2173V27.5396C80.2898 28.0552 80.408 28.5117 80.6443 28.9092C80.8807 29.3066 81.2137 29.6128 81.6433 29.8276C82.073 30.0425 82.5672 30.1499 83.1258 30.1499C83.6092 30.1499 84.0442 30.0747 84.4309 29.9243C84.8177 29.7739 85.1614 29.5376 85.4622 29.2153L86.5418 30.4561C86.1551 30.9072 85.6663 31.2563 85.0755 31.5034C84.4954 31.7397 83.8294 31.8579 83.0774 31.8579ZM92.0375 31.8579C91.3178 31.8579 90.625 31.7666 89.9589 31.584C89.3037 31.3906 88.7827 31.1597 88.3959 30.8911L89.1694 29.3604C89.5561 29.6074 90.018 29.8115 90.5551 29.9727C91.0922 30.1338 91.6293 30.2144 92.1665 30.2144C92.8002 30.2144 93.2568 30.1284 93.5361 29.9565C93.8261 29.7847 93.9711 29.5537 93.9711 29.2637C93.9711 29.0273 93.8745 28.8501 93.6811 28.7319C93.4877 28.603 93.2353 28.5063 92.9238 28.4419C92.6123 28.3774 92.2631 28.3184 91.8764 28.2646C91.5004 28.2109 91.1191 28.1411 90.7324 28.0552C90.3564 27.9585 90.0126 27.8242 89.7011 27.6523C89.3896 27.4697 89.1372 27.228 88.9438 26.9272C88.7504 26.6265 88.6538 26.229 88.6538 25.7349C88.6538 25.187 88.8095 24.7144 89.121 24.3169C89.4326 23.9087 89.8676 23.5972 90.4262 23.3823C90.9956 23.1567 91.6669 23.0439 92.4404 23.0439C93.0205 23.0439 93.6059 23.1084 94.1967 23.2373C94.7875 23.3662 95.2763 23.5488 95.663 23.7852L94.8896 25.3159C94.4814 25.0688 94.0678 24.9023 93.6489 24.8164C93.2407 24.7197 92.8325 24.6714 92.4243 24.6714C91.812 24.6714 91.3554 24.7627 91.0546 24.9453C90.7646 25.1279 90.6196 25.3589 90.6196 25.6382C90.6196 25.896 90.7163 26.0894 90.9096 26.2183C91.103 26.3472 91.3554 26.4492 91.6669 26.5244C91.9785 26.5996 92.3222 26.6641 92.6982 26.7178C93.0849 26.7607 93.4663 26.8306 93.8422 26.9272C94.2182 27.0239 94.562 27.1582 94.8735 27.3301C95.1958 27.4912 95.4536 27.7222 95.6469 28.0229C95.8403 28.3237 95.937 28.7158 95.937 29.1992C95.937 29.7363 95.7758 30.2036 95.4536 30.6011C95.142 30.9985 94.6962 31.3101 94.1162 31.5356C93.5361 31.7505 92.8432 31.8579 92.0375 31.8579ZM100.652 31.8579C99.9328 31.8579 99.2399 31.7666 98.5739 31.584C97.9186 31.3906 97.3976 31.1597 97.0109 30.8911L97.7843 29.3604C98.171 29.6074 98.633 29.8115 99.1701 29.9727C99.7072 30.1338 100.244 30.2144 100.781 30.2144C101.415 30.2144 101.872 30.1284 102.151 29.9565C102.441 29.7847 102.586 29.5537 102.586 29.2637C102.586 29.0273 102.489 28.8501 102.296 28.7319C102.103 28.603 101.85 28.5063 101.539 28.4419C101.227 28.3774 100.878 28.3184 100.491 28.2646C100.115 28.2109 99.734 28.1411 99.3473 28.0552C98.9713 27.9585 98.6276 27.8242 98.3161 27.6523C98.0045 27.4697 97.7521 27.228 97.5587 26.9272C97.3654 26.6265 97.2687 26.229 97.2687 25.7349C97.2687 25.187 97.4245 24.7144 97.736 24.3169C98.0475 23.9087 98.4826 23.5972 99.0412 23.3823C99.6105 23.1567 100.282 23.0439 101.055 23.0439C101.635 23.0439 102.221 23.1084 102.812 23.2373C103.402 23.3662 103.891 23.5488 104.278 23.7852L103.505 25.3159C103.096 25.0688 102.683 24.9023 102.264 24.8164C101.856 24.7197 101.447 24.6714 101.039 24.6714C100.427 24.6714 99.9704 24.7627 99.6696 24.9453C99.3795 25.1279 99.2345 25.3589 99.2345 25.6382C99.2345 25.896 99.3312 26.0894 99.5246 26.2183C99.7179 26.3472 99.9704 26.4492 100.282 26.5244C100.593 26.5996 100.937 26.6641 101.313 26.7178C101.7 26.7607 102.081 26.8306 102.457 26.9272C102.833 27.0239 103.177 27.1582 103.488 27.3301C103.811 27.4912 104.069 27.7222 104.262 28.0229C104.455 28.3237 104.552 28.7158 104.552 29.1992C104.552 29.7363 104.391 30.2036 104.069 30.6011C103.757 30.9985 103.311 31.3101 102.731 31.5356C102.151 31.7505 101.458 31.8579 100.652 31.8579ZM111.91 31.7451V30.0049L111.797 29.6343V26.5889C111.797 25.998 111.62 25.5415 111.265 25.2192C110.911 24.8862 110.374 24.7197 109.654 24.7197C109.171 24.7197 108.693 24.7949 108.22 24.9453C107.758 25.0957 107.366 25.3052 107.044 25.5737L106.254 24.1074C106.716 23.7529 107.264 23.4897 107.898 23.3179C108.542 23.1353 109.208 23.0439 109.896 23.0439C111.142 23.0439 112.103 23.3447 112.78 23.9463C113.468 24.5371 113.811 25.4556 113.811 26.7017V31.7451H111.91ZM109.203 31.8579C108.558 31.8579 107.994 31.7505 107.511 31.5356C107.028 31.3101 106.652 31.0039 106.383 30.6172C106.125 30.2197 105.996 29.7739 105.996 29.2798C105.996 28.7964 106.109 28.3613 106.335 27.9746C106.571 27.5879 106.952 27.2817 107.479 27.0562C108.005 26.8306 108.703 26.7178 109.574 26.7178H112.071V28.0552H109.719C109.031 28.0552 108.569 28.168 108.333 28.3936C108.097 28.6084 107.978 28.877 107.978 29.1992C107.978 29.5645 108.123 29.8545 108.413 30.0693C108.703 30.2842 109.106 30.3916 109.622 30.3916C110.116 30.3916 110.556 30.2788 110.943 30.0532C111.341 29.8276 111.625 29.4946 111.797 29.0542L112.136 30.2627C111.942 30.7676 111.593 31.1597 111.088 31.439C110.594 31.7183 109.966 31.8579 109.203 31.8579ZM120.634 34.9839C119.839 34.9839 119.06 34.8765 118.297 34.6616C117.545 34.4575 116.928 34.1567 116.444 33.7593L117.347 32.2446C117.723 32.5562 118.195 32.8032 118.765 32.9858C119.345 33.1792 119.93 33.2759 120.521 33.2759C121.466 33.2759 122.159 33.0557 122.6 32.6152C123.04 32.1855 123.26 31.5356 123.26 30.6655V29.1348L123.421 27.1851L123.357 25.2354V23.1406H125.274V30.4399C125.274 31.9976 124.877 33.1416 124.082 33.8721C123.287 34.6133 122.138 34.9839 120.634 34.9839ZM120.376 31.3584C119.559 31.3584 118.818 31.1865 118.152 30.8428C117.497 30.4883 116.976 29.9995 116.589 29.3765C116.213 28.7534 116.025 28.0229 116.025 27.1851C116.025 26.3579 116.213 25.6328 116.589 25.0098C116.976 24.3867 117.497 23.9033 118.152 23.5596C118.818 23.2158 119.559 23.0439 120.376 23.0439C121.106 23.0439 121.762 23.189 122.342 23.479C122.922 23.769 123.384 24.2202 123.727 24.8325C124.082 25.4448 124.259 26.229 124.259 27.1851C124.259 28.1411 124.082 28.9307 123.727 29.5537C123.384 30.166 122.922 30.6226 122.342 30.9233C121.762 31.2134 121.106 31.3584 120.376 31.3584ZM120.682 29.6504C121.187 29.6504 121.638 29.5483 122.036 29.3442C122.433 29.1294 122.739 28.8394 122.954 28.4741C123.18 28.0981 123.292 27.6685 123.292 27.1851C123.292 26.7017 123.18 26.2773 122.954 25.9121C122.739 25.5361 122.433 25.2515 122.036 25.0581C121.638 24.854 121.187 24.752 120.682 24.752C120.177 24.752 119.721 24.854 119.312 25.0581C118.915 25.2515 118.603 25.5361 118.378 25.9121C118.163 26.2773 118.056 26.7017 118.056 27.1851C118.056 27.6685 118.163 28.0981 118.378 28.4741C118.603 28.8394 118.915 29.1294 119.312 29.3442C119.721 29.5483 120.177 29.6504 120.682 29.6504ZM132.289 31.8579C131.333 31.8579 130.495 31.6699 129.775 31.2939C129.066 30.9072 128.513 30.3809 128.116 29.7148C127.729 29.0488 127.536 28.2915 127.536 27.4429C127.536 26.5835 127.724 25.8262 128.1 25.1709C128.486 24.5049 129.013 23.9839 129.679 23.6079C130.355 23.2319 131.124 23.0439 131.983 23.0439C132.821 23.0439 133.567 23.2266 134.223 23.5918C134.878 23.957 135.394 24.4727 135.77 25.1387C136.145 25.8047 136.333 26.5889 136.333 27.4912C136.333 27.5771 136.328 27.6738 136.317 27.7812C136.317 27.8887 136.312 27.9907 136.301 28.0874H129.131V26.75H135.238L134.448 27.1689C134.459 26.6748 134.357 26.2397 134.142 25.8638C133.927 25.4878 133.632 25.1924 133.256 24.9775C132.891 24.7627 132.466 24.6553 131.983 24.6553C131.489 24.6553 131.054 24.7627 130.678 24.9775C130.312 25.1924 130.022 25.4932 129.808 25.8799C129.603 26.2559 129.501 26.7017 129.501 27.2173V27.5396C129.501 28.0552 129.62 28.5117 129.856 28.9092C130.092 29.3066 130.425 29.6128 130.855 29.8276C131.285 30.0425 131.779 30.1499 132.337 30.1499C132.821 30.1499 133.256 30.0747 133.643 29.9243C134.029 29.7739 134.373 29.5376 134.674 29.2153L135.753 30.4561C135.367 30.9072 134.878 31.2563 134.287 31.5034C133.707 31.7397 133.041 31.8579 132.289 31.8579ZM148.409 31.9063C146.862 31.9063 145.649 31.4712 144.768 30.6011C143.898 29.731 143.463 28.4741 143.463 26.8306V20.4658H145.557V26.75C145.557 27.9102 145.804 28.7534 146.299 29.2798C146.803 29.8062 147.512 30.0693 148.425 30.0693C149.339 30.0693 150.042 29.8062 150.536 29.2798C151.03 28.7534 151.278 27.9102 151.278 26.75V20.4658H153.34V26.8306C153.34 28.4741 152.9 29.731 152.019 30.6011C151.149 31.4712 149.945 31.9063 148.409 31.9063ZM159.061 31.8579C158.342 31.8579 157.649 31.7666 156.983 31.584C156.327 31.3906 155.806 31.1597 155.42 30.8911L156.193 29.3604C156.58 29.6074 157.042 29.8115 157.579 29.9727C158.116 30.1338 158.653 30.2144 159.19 30.2144C159.824 30.2144 160.28 30.1284 160.56 29.9565C160.85 29.7847 160.995 29.5537 160.995 29.2637C160.995 29.0273 160.898 28.8501 160.705 28.7319C160.511 28.603 160.259 28.5063 159.947 28.4419C159.636 28.3774 159.287 28.3184 158.9 28.2646C158.524 28.2109 158.143 28.1411 157.756 28.0552C157.38 27.9585 157.036 27.8242 156.725 27.6523C156.413 27.4697 156.161 27.228 155.967 26.9272C155.774 26.6265 155.677 26.229 155.677 25.7349C155.677 25.187 155.833 24.7144 156.145 24.3169C156.456 23.9087 156.891 23.5972 157.45 23.3823C158.019 23.1567 158.691 23.0439 159.464 23.0439C160.044 23.0439 160.63 23.1084 161.22 23.2373C161.811 23.3662 162.3 23.5488 162.687 23.7852L161.913 25.3159C161.505 25.0688 161.092 24.9023 160.673 24.8164C160.264 24.7197 159.856 24.6714 159.448 24.6714C158.836 24.6714 158.379 24.7627 158.078 24.9453C157.788 25.1279 157.643 25.3589 157.643 25.6382C157.643 25.896 157.74 26.0894 157.933 26.2183C158.127 26.3472 158.379 26.4492 158.691 26.5244C159.002 26.5996 159.346 26.6641 159.722 26.7178C160.109 26.7607 160.49 26.8306 160.866 26.9272C161.242 27.0239 161.586 27.1582 161.897 27.3301C162.219 27.4912 162.477 27.7222 162.671 28.0229C162.864 28.3237 162.961 28.7158 162.961 29.1992C162.961 29.7363 162.8 30.2036 162.477 30.6011C162.166 30.9985 161.72 31.3101 161.14 31.5356C160.56 31.7505 159.867 31.8579 159.061 31.8579Z" fill="white"/>
</g>
<g clip-path="url(#clip1_137_115)">
<path fill-rule="evenodd" clip-rule="evenodd" d="M39.4194 12.4504C36.264 9.30621 32.0675 7.57379 27.5966 7.57202C18.3845 7.57202 10.887 15.0337 10.8833 24.2053C10.8821 27.1371 11.6517 29.9989 13.1142 32.5214L10.7432 41.1414L19.6031 38.8282C22.0442 40.1534 24.7927 40.8518 27.59 40.8529H27.5968C36.808 40.8529 44.3062 33.3903 44.3099 24.2186C44.3117 19.7739 42.5749 15.5946 39.4194 12.4504ZM27.5968 38.0435H27.5911C25.0985 38.0425 22.6537 37.376 20.5209 36.1163L20.0136 35.8167L14.756 37.1893L16.1594 32.0874L15.8291 31.5643C14.4385 29.363 13.7041 26.8187 13.7052 24.2064C13.7082 16.5833 19.9399 10.3815 27.6023 10.3815C31.3127 10.3829 34.8005 11.8229 37.4232 14.4362C40.046 17.0495 41.4895 20.5233 41.4881 24.2175C41.4849 31.8412 35.2533 38.0435 27.5968 38.0435ZM35.2165 27.6887C34.7989 27.4806 32.7458 26.4751 32.3629 26.3364C31.9802 26.1977 31.7018 26.1284 31.4233 26.5445C31.145 26.9605 30.3447 27.8968 30.101 28.1741C29.8574 28.4515 29.6139 28.4862 29.1962 28.2782C28.7786 28.0701 27.4331 27.6313 25.8379 26.2152C24.5966 25.1132 23.7584 23.752 23.5148 23.3359C23.2712 22.9198 23.4889 22.6948 23.6979 22.4876C23.8858 22.3014 24.1155 22.0022 24.3243 21.7595C24.5331 21.5168 24.6027 21.3434 24.7419 21.066C24.8811 20.7886 24.8115 20.5459 24.7071 20.3378C24.6027 20.1298 23.7676 18.084 23.4195 17.2518C23.0806 16.4413 22.7363 16.551 22.4799 16.5383C22.2366 16.5262 21.9579 16.5237 21.6796 16.5237C21.4012 16.5237 20.9488 16.6277 20.5659 17.0438C20.1832 17.4599 19.1044 18.4654 19.1044 20.5112C19.1044 22.557 20.6008 24.5334 20.8096 24.8108C21.0184 25.0882 23.7543 29.2864 27.9435 31.0868C28.9398 31.515 29.7177 31.7707 30.3241 31.9624C31.3246 32.2786 32.235 32.234 32.9545 32.127C33.7568 32.0077 35.4252 31.1215 35.7733 30.1506C36.1213 29.1797 36.1213 28.3475 36.0169 28.1742C35.9125 28.0008 35.6341 27.8968 35.2165 27.6887Z" fill="white"/>
</g>
<defs>
<clipPath id="clip0_137_115">
<rect width="170" height="51" fill="white"/>
</clipPath>
<clipPath id="clip1_137_115">
<rect width="33.5693" height="33.5693" fill="white" transform="translate(10.7422 7.57227)"/>
</clipPath>
</defs>
</svg>
