<svg width="500" height="421" viewBox="0 0 500 421" fill="none" xmlns="http://www.w3.org/2000/svg">
<g clip-path="url(#clip0_42_89)">
<path d="M282.929 58.1621C289.047 60.8171 294.781 63.7591 299.978 66.8941C318.15 77.8481 332.768 93.7961 350.625 104.783C367.487 115.157 388.079 117.679 407.374 119.413C441.007 122.436 511.155 151.426 498.489 205.157C493.881 224.711 477.631 237.991 469.311 255.698C460.461 274.534 461.39 298.027 447.299 314.356C441.1 321.536 432.543 326.278 423.758 329.87C365.293 353.768 299.637 352.657 237.644 350.023C188.713 347.944 110.123 358.933 67.144 332.099C45.806 318.776 56.902 282.357 42.137 262.796C29.73 246.359 12.844 235.563 4.54904 214.988C-9.56697 179.978 10.554 134.417 45.784 121.989C67.799 114.223 91.122 110.665 112.884 102.136C135.367 93.3211 144.03 80.1181 161.176 64.4911C192.173 36.2451 244.929 41.6661 282.929 58.1621Z" fill="#209400" fill-opacity="0.4"/>
<path d="M337.076 336.726H167.365V230.59C167.365 228.584 168.961 226.959 170.929 226.959H333.512C335.481 226.959 337.076 228.584 337.076 230.59V336.726Z" fill="#D3D3D3"/>
<path d="M330.867 234.649H173.577V328.244H330.867V234.649Z" fill="#F2F2F2"/>
<path d="M140.374 368.32C138.814 370.36 141.795 376.453 146.47 376.453C218.181 376.453 289.89 376.453 361.599 376.453C366.271 376.453 369.214 370.36 367.425 368.32H140.374Z" fill="#D3D3D3"/>
<path d="M366.825 367.205C368.614 369.242 366.271 370.895 361.6 370.895C289.891 370.895 218.181 370.895 146.471 370.895C141.796 370.895 139.272 369.242 140.832 367.205C148.174 357.604 155.516 348.007 162.857 338.408C164.417 336.369 168.499 334.717 171.977 334.717C225.326 334.717 278.678 334.717 332.028 334.717C335.502 334.717 339.774 336.369 341.563 338.408C349.981 348.01 358.405 357.604 366.825 367.205Z" fill="#F2F2F2"/>
<g opacity="0.5">
<path d="M188.61 344.43C185.703 344.43 184.252 344.43 181.344 344.43C182.372 342.908 182.887 342.145 183.913 340.622C186.705 340.622 188.099 340.622 190.892 340.622C189.98 342.145 189.523 342.906 188.61 344.43ZM198.027 344.43C195.123 344.43 193.669 344.43 190.761 344.43C191.641 342.908 192.081 342.145 192.959 340.622C195.751 340.622 197.145 340.622 199.936 340.622C199.173 342.145 198.791 342.908 198.027 344.43ZM195.018 339.893C190.775 339.893 188.654 339.893 184.411 339.893C184.793 339.325 184.985 339.041 185.369 338.472C189.549 338.472 191.633 338.472 195.815 338.472C195.495 339.041 195.336 339.325 195.018 339.893ZM207.45 339.894C203.206 339.894 201.083 339.893 196.84 339.893C197.146 339.325 197.299 339.041 197.607 338.472C201.784 338.472 203.875 338.472 208.053 338.472C207.813 339.041 207.69 339.325 207.45 339.894ZM219.883 339.893C215.639 339.893 213.516 339.893 209.272 339.893C209.501 339.325 209.617 339.041 209.846 338.472C214.025 338.472 216.116 338.472 220.297 338.472C220.131 339.041 220.048 339.325 219.883 339.893ZM232.314 339.893C228.07 339.893 225.949 339.893 221.706 339.893C221.859 339.325 221.934 339.041 222.087 338.472C226.267 338.472 228.359 338.472 232.535 338.472C232.449 339.041 232.404 339.325 232.314 339.893ZM244.748 339.893C240.504 339.893 238.382 339.893 234.137 339.893C234.215 339.325 234.252 339.041 234.33 338.472C238.509 338.472 240.597 338.472 244.775 338.472C244.764 339.041 244.759 339.325 244.748 339.893ZM257.18 339.893C252.937 339.893 250.818 339.893 246.572 339.893C246.572 339.325 246.572 339.041 246.572 338.472C250.751 338.472 252.838 338.472 257.017 338.472C257.083 339.041 257.112 339.325 257.18 339.893ZM269.614 339.893C265.371 339.893 263.247 339.893 259.004 339.893C258.927 339.325 258.888 339.041 258.81 338.472C262.99 338.472 265.079 338.472 269.259 338.472C269.399 339.041 269.471 339.325 269.614 339.893ZM282.048 339.893C277.802 339.893 275.682 339.893 271.437 339.893C271.284 339.325 271.206 339.041 271.053 338.472C275.232 338.472 277.32 338.472 281.499 338.472C281.72 339.041 281.829 339.325 282.048 339.893ZM294.481 339.893C290.235 339.893 288.115 339.893 283.871 339.893C283.638 339.325 283.523 339.041 283.291 338.472C287.471 338.472 289.562 338.472 293.742 338.472C294.038 339.041 294.185 339.325 294.481 339.893ZM306.911 339.893C302.665 339.893 300.545 339.893 296.303 339.893C295.996 339.325 295.841 339.041 295.536 338.472C299.713 338.472 301.8 338.472 305.979 338.472C306.351 339.041 306.537 339.325 306.911 339.893ZM320.784 339.893C315.966 339.893 313.556 339.893 308.736 339.893C308.352 339.325 308.159 339.041 307.775 338.472C312.52 338.472 314.891 338.472 319.639 338.472C320.096 339.041 320.327 339.325 320.784 339.893ZM207.44 344.43C204.534 344.43 203.082 344.43 200.176 344.43C200.906 342.908 201.273 342.146 202.001 340.624C204.793 340.624 206.187 340.622 208.978 340.622C208.364 342.147 208.056 342.906 207.44 344.43ZM216.855 344.43C213.951 344.43 212.497 344.43 209.59 344.43C210.173 342.908 210.463 342.145 211.047 340.622C213.838 340.622 215.234 340.624 218.024 340.624C217.557 342.147 217.323 342.908 216.855 344.43ZM226.272 344.43C223.366 344.43 221.914 344.43 219.008 344.43C219.442 342.906 219.66 342.146 220.092 340.622C222.883 340.622 224.277 340.622 227.069 340.622C226.751 342.145 226.589 342.908 226.272 344.43ZM235.687 344.43C232.779 344.43 231.327 344.43 228.423 344.43C228.707 342.908 228.847 342.143 229.134 340.622C231.925 340.622 233.321 340.622 236.113 340.622C235.941 342.145 235.854 342.908 235.687 344.43ZM245.097 344.43C242.194 344.43 240.742 344.43 237.839 344.43C237.975 342.908 238.043 342.143 238.179 340.622C240.969 340.622 242.364 340.622 245.154 340.622C245.133 342.145 245.122 342.908 245.097 344.43ZM254.517 344.43C251.611 344.43 250.159 344.43 247.253 344.43C247.242 342.908 247.237 342.145 247.225 340.622C250.014 340.622 251.412 340.622 254.2 340.622C254.328 342.145 254.391 342.908 254.517 344.43ZM263.931 344.43C261.026 344.43 259.574 344.43 256.67 344.43C256.511 342.908 256.431 342.145 256.272 340.622C259.061 340.622 260.455 340.622 263.244 340.622C263.52 342.145 263.656 342.908 263.931 344.43ZM273.344 344.43C270.438 344.43 268.987 344.43 266.082 344.43C265.775 342.908 265.62 342.145 265.311 340.622C268.102 340.622 269.496 340.622 272.288 340.622C272.709 342.145 272.921 342.908 273.344 344.43ZM185.567 349.506C182.508 349.506 180.981 349.506 177.924 349.506C178.95 347.984 179.462 347.222 180.488 345.699C183.434 345.699 184.905 345.699 187.849 345.699C186.936 347.222 186.479 347.983 185.567 349.506ZM195.48 349.506C192.42 349.506 190.894 349.506 187.834 349.506C188.714 347.984 189.154 347.222 190.032 345.699C192.975 345.699 194.448 345.699 197.393 345.699C196.626 347.221 196.242 347.983 195.48 349.506ZM205.389 349.506C202.329 349.506 200.802 349.506 197.743 349.506C198.473 347.984 198.836 347.222 199.568 345.699C202.511 345.699 203.982 345.699 206.926 345.699C206.311 347.222 206.002 347.983 205.389 349.506ZM215.299 349.506C212.24 349.506 210.71 349.506 207.651 349.506C208.233 347.984 208.525 347.222 209.105 345.699C212.051 345.699 213.522 345.699 216.467 345.699C215.999 347.222 215.765 347.983 215.299 349.506ZM225.21 349.506C222.153 349.506 220.621 349.506 217.565 349.506C217.999 347.984 218.214 347.222 218.647 345.702C221.592 345.702 223.061 345.699 226.006 345.699C225.685 347.222 225.528 347.983 225.21 349.506ZM235.116 349.506C232.057 349.506 230.53 349.506 227.471 349.506C227.756 347.984 227.898 347.222 228.184 345.699C231.127 345.699 232.598 345.699 235.542 345.699C235.373 347.221 235.286 347.983 235.116 349.506ZM245.024 349.506C241.967 349.506 240.44 349.506 237.382 349.506C237.518 347.984 237.588 347.222 237.724 345.699C240.666 345.699 242.137 345.699 245.078 345.699C245.057 347.222 245.046 347.983 245.024 349.506ZM254.936 349.506C251.879 349.506 250.35 349.506 247.291 349.506C247.28 347.984 247.275 347.222 247.263 345.699C250.206 345.699 251.677 345.699 254.621 345.699C254.746 347.222 254.812 347.983 254.936 349.506ZM264.844 349.506C261.789 349.506 260.261 349.506 257.203 349.506C257.042 347.984 256.961 347.222 256.804 345.699C259.746 345.699 261.217 345.699 264.158 345.699C264.433 347.222 264.57 347.983 264.844 349.506ZM274.753 349.506C271.696 349.506 270.166 349.506 267.11 349.506C266.801 347.984 266.645 347.222 266.338 345.699C269.281 345.699 270.752 345.699 273.696 345.699C274.119 347.222 274.331 347.983 274.753 349.506ZM182.527 354.582C179.314 354.582 177.71 354.582 174.5 354.582C175.525 353.06 176.041 352.297 177.068 350.776C180.163 350.776 181.712 350.774 184.809 350.774C183.896 352.295 183.438 353.059 182.527 354.582ZM192.931 354.582C189.721 354.582 188.116 354.582 184.906 354.582C185.783 353.06 186.223 352.297 187.101 350.776C190.199 350.776 191.746 350.776 194.844 350.776C194.079 352.296 193.695 353.059 192.931 354.582ZM203.337 354.582C200.125 354.582 198.52 354.582 195.308 354.582C196.038 353.06 196.403 352.297 197.133 350.776C200.231 350.776 201.778 350.776 204.874 350.776C204.26 352.296 203.952 353.059 203.337 354.582ZM213.74 354.582C210.528 354.582 208.922 354.582 205.71 354.582C206.292 353.06 206.584 352.297 207.165 350.776C210.263 350.776 211.812 350.776 214.908 350.776C214.442 352.296 214.208 353.059 213.74 354.582ZM224.143 354.582C220.934 354.582 219.329 354.582 216.119 354.582C216.551 353.06 216.771 352.297 217.201 350.776C220.297 350.776 221.849 350.776 224.941 350.776C224.625 352.296 224.464 353.059 224.143 354.582ZM234.545 354.582C231.335 354.582 229.731 354.582 226.52 354.582C226.804 353.06 226.949 352.297 227.234 350.776C230.329 350.776 231.878 350.776 234.975 350.776C234.803 352.296 234.717 353.059 234.545 354.582ZM244.947 354.582C241.738 354.582 240.133 354.582 236.926 354.582C237.062 353.06 237.13 352.297 237.266 350.776C240.361 350.776 241.91 350.776 245.003 350.776C244.983 352.296 244.971 353.059 244.947 354.582ZM255.358 354.582C252.146 354.582 250.54 354.582 247.33 354.582C247.321 353.06 247.314 352.297 247.302 350.776C250.398 350.776 251.949 350.776 255.042 350.776C255.169 352.296 255.23 353.059 255.358 354.582ZM265.76 354.582C262.552 354.582 260.945 354.582 257.738 354.582C257.577 353.06 257.496 352.297 257.337 350.776C260.432 350.776 261.979 350.776 265.074 350.776C265.348 352.296 265.487 353.059 265.76 354.582ZM276.161 354.582C272.953 354.582 271.347 354.582 268.134 354.582C267.828 353.06 267.674 352.297 267.365 350.776C270.46 350.776 272.008 350.776 275.105 350.776C275.526 352.296 275.738 353.059 276.161 354.582ZM179.485 359.655C176.122 359.655 174.438 359.655 171.076 359.655C172.102 358.133 172.619 357.372 173.645 355.851C176.894 355.851 178.518 355.851 181.765 355.851C180.855 357.372 180.399 358.133 179.485 359.655ZM190.385 359.655C187.024 359.655 185.341 359.655 181.978 359.655C182.858 358.133 183.296 357.372 184.176 355.851C187.423 355.851 189.047 355.851 192.298 355.851C191.533 357.372 191.148 358.133 190.385 359.655ZM201.282 359.655C197.919 359.655 196.237 359.655 192.875 359.655C193.605 358.133 193.971 357.372 194.703 355.851C197.947 355.851 199.573 355.851 202.822 355.851C202.207 357.372 201.9 358.133 201.282 359.655ZM212.145 359.776C208.777 359.776 207.093 359.776 203.723 359.776C204.327 358.207 204.625 357.421 205.225 355.852C208.476 355.852 210.101 355.852 213.35 355.852C212.868 357.42 212.628 358.207 212.145 359.776ZM277.573 359.655C256.606 359.655 235.637 359.655 214.672 359.655C215.103 358.133 215.319 357.372 215.753 355.851C236.009 355.851 256.263 355.851 276.516 355.851C276.938 357.372 277.151 358.133 277.573 359.655ZM231.078 368.018C246.985 368.018 262.89 368.018 278.794 368.018L274.776 361.534C259.41 361.534 250.24 361.534 234.876 361.534L231.078 368.018ZM281.864 344.43C278.958 344.43 277.504 344.43 274.6 344.43C274.155 342.908 273.936 342.145 273.494 340.622C276.284 340.622 277.679 340.622 280.471 340.622C281.028 342.143 281.304 342.908 281.864 344.43ZM283.72 349.506C280.661 349.506 279.133 349.506 276.072 349.506C275.631 347.984 275.411 347.222 274.968 345.699C277.911 345.699 279.384 345.699 282.33 345.699C282.884 347.222 283.163 347.983 283.72 349.506ZM285.576 354.582C282.366 354.582 280.758 354.582 277.548 354.582C277.105 353.06 276.887 352.297 276.444 350.776C279.542 350.776 281.087 350.776 284.185 350.776C284.741 352.296 285.017 353.059 285.576 354.582ZM287.432 359.655C284.069 359.655 282.386 359.655 279.023 359.655C278.58 358.133 278.359 357.372 277.917 355.851C281.166 355.851 282.79 355.851 286.039 355.851C286.596 357.372 286.875 358.133 287.432 359.655ZM290.379 344.43C287.473 344.43 286.021 344.43 283.115 344.43C282.538 342.908 282.248 342.145 281.674 340.622C284.464 340.622 285.86 340.622 288.652 340.622C289.341 342.145 289.688 342.908 290.379 344.43ZM292.684 349.506C289.624 349.506 288.095 349.506 285.038 349.506C284.461 347.984 284.171 347.222 283.597 345.699C286.54 345.699 288.008 345.699 290.956 345.699C291.645 347.221 291.993 347.983 292.684 349.506ZM294.986 354.582C291.774 354.582 290.169 354.582 286.959 354.582C286.382 353.06 286.093 352.297 285.516 350.776C288.612 350.776 290.161 350.776 293.257 350.776C293.951 352.296 294.294 353.059 294.986 354.582ZM297.289 359.655C293.925 359.655 292.242 359.655 288.879 359.655C288.305 358.133 288.015 357.372 287.441 355.851C290.687 355.851 292.314 355.851 295.561 355.851C296.253 357.372 296.596 358.133 297.289 359.655ZM298.895 344.43C295.989 344.43 294.538 344.43 291.632 344.43C290.921 342.908 290.565 342.145 289.854 340.622C292.646 340.622 294.04 340.622 296.833 340.622C297.658 342.145 298.072 342.908 298.895 344.43ZM301.645 349.506C298.588 349.506 297.058 349.506 294 349.506C293.289 347.984 292.933 347.221 292.222 345.699C295.167 345.699 296.638 345.699 299.583 345.699C300.407 347.222 300.822 347.983 301.645 349.506ZM304.398 354.582C301.185 354.582 299.581 354.582 296.37 354.582C295.659 353.06 295.305 352.297 294.592 350.776C297.69 350.776 299.239 350.776 302.335 350.776C303.158 352.296 303.573 353.059 304.398 354.582ZM307.147 359.655C303.784 359.655 302.101 359.655 298.738 359.655C298.028 358.133 297.674 357.372 296.961 355.851C300.21 355.851 301.834 355.851 305.084 355.851C305.908 357.372 306.322 358.133 307.147 359.655ZM307.41 344.43C304.506 344.43 303.053 344.43 300.147 344.43C299.303 342.908 298.88 342.145 298.036 340.622C300.825 340.622 302.219 340.622 305.011 340.622C305.974 342.145 306.451 342.908 307.41 344.43ZM310.609 349.506C307.552 349.506 306.023 349.506 302.964 349.506C302.12 347.984 301.696 347.222 300.852 345.699C303.794 345.699 305.268 345.699 308.211 345.699C309.17 347.222 309.652 347.983 310.609 349.506ZM313.807 354.582C310.597 354.582 308.993 354.582 305.782 354.582C304.937 353.06 304.516 352.297 303.669 350.776C306.765 350.776 308.314 350.776 311.41 350.776C312.37 352.296 312.849 353.059 313.807 354.582ZM317.006 359.655C313.643 359.655 311.962 359.655 308.597 359.655C307.753 358.133 307.331 357.372 306.484 355.851C309.733 355.851 311.358 355.851 314.608 355.851C315.566 357.372 316.045 358.133 317.006 359.655ZM315.93 344.43C313.022 344.43 311.567 344.43 308.664 344.43C307.683 342.908 307.193 342.145 306.213 340.622C309.005 340.622 310.401 340.622 313.193 340.622C314.287 342.145 314.833 342.908 315.93 344.43ZM319.572 349.506C316.515 349.506 314.983 349.506 311.926 349.506C310.946 347.984 310.457 347.222 309.48 345.699C312.422 345.699 313.894 345.699 316.839 345.699C317.933 347.222 318.48 347.983 319.572 349.506ZM323.219 354.582C320.009 354.582 318.402 354.582 315.189 354.582C314.211 353.06 313.723 352.297 312.743 350.776C315.841 350.776 317.388 350.776 320.486 350.776C321.581 352.296 322.126 353.059 323.219 354.582ZM326.863 359.655C323.5 359.655 321.819 359.655 318.452 359.655C317.474 358.133 316.983 357.372 316.005 355.851C319.256 355.851 320.881 355.851 324.13 355.851C325.223 357.372 325.769 358.133 326.863 359.655ZM324.442 344.43C321.538 344.43 320.084 344.43 317.18 344.43C316.066 342.908 315.511 342.145 314.394 340.622C317.186 340.622 318.58 340.622 321.374 340.622C322.601 342.145 323.214 342.908 324.442 344.43ZM328.535 349.506C325.478 349.506 323.946 349.506 320.889 349.506C319.779 347.984 319.22 347.222 318.108 345.699C321.051 345.699 322.522 345.699 325.466 345.699C326.693 347.222 327.307 347.983 328.535 349.506ZM332.628 354.582C329.418 354.582 327.813 354.582 324.601 354.582C323.487 353.06 322.932 352.297 321.818 350.776C324.914 350.776 326.463 350.776 329.559 350.776C330.787 352.296 331.4 353.059 332.628 354.582ZM336.721 359.655C333.358 359.655 331.677 359.655 328.31 359.655C327.198 358.133 326.641 357.372 325.529 355.851C328.778 355.851 330.402 355.851 333.651 355.851C334.879 357.372 335.491 358.133 336.721 359.655Z" fill="#D3D3D3"/>
</g>
<path d="M292.497 328.219H217.609C218.144 326.045 218.634 324.309 219.064 323.101C219.281 322.493 219.585 321.909 219.976 321.357C221.303 319.477 223.575 317.878 226.502 316.526C229.996 314.91 234.418 313.64 239.266 312.633C244.417 311.577 250.036 310.816 255.507 310.265C255.877 310.232 256.243 310.193 256.613 310.161C262.698 309.593 268.544 309.281 273.261 309.13C279.773 308.905 284.163 308.952 284.163 308.952C284.163 308.952 284.515 309.513 285.132 310.633C286.577 313.289 289.466 319.11 292.497 328.219Z" fill="#0B4870"/>
<path d="M235.13 206.023C234.988 206.983 234.738 207.872 234.384 208.728L234.596 206.308C234.775 206.2 234.954 206.13 235.13 206.023Z" fill="#FFE3CA"/>
<path d="M274.799 202.43C274.799 202.43 274.799 202.43 274.799 202.462C274.726 202.43 274.655 202.393 274.621 202.393C274.693 202.394 274.726 202.43 274.799 202.43Z" fill="#EEBEA7"/>
<path d="M351.656 253.497C351.656 253.497 356.282 249.209 355.365 245.992C354.588 243.262 355.761 240.204 356.053 238.935C356.449 237.254 356.608 231.797 357.862 232.094C359.985 232.61 359.495 241.321 359.756 243.178C360.018 245.033 365.643 238.82 367.56 238.495C369.482 238.163 379.246 248.059 374.896 251.881C370.546 255.695 364.547 257.243 363.913 258.067C363.28 258.891 360.299 261.155 360.299 261.155L351.656 253.497Z" fill="#E18E65"/>
<path d="M366.332 239.141C366.332 239.141 380.433 228.341 381.974 228.406C383.521 228.468 384.055 229.272 382.777 230.334C381.504 231.399 369.462 241.171 369.462 241.171C369.462 241.171 388.294 231.187 389.573 230.964C390.315 230.832 390.885 232.26 390.251 232.895C389.621 233.523 372.096 244.549 372.096 244.549C372.096 244.549 389.695 235.257 390.817 235.389C391.801 235.508 392.502 237.13 391.244 237.908C389.985 238.685 374.136 248.235 374.136 248.235C374.136 248.235 387.376 242.283 388.257 242.948C388.792 243.36 389.556 244.264 386.097 245.692C382.631 247.122 375.094 251.687 375.094 251.687L366.332 239.141Z" fill="#E18E65"/>
<path d="M265.656 193.107V194.067C265.581 193.892 265.512 193.748 265.478 193.57C265.405 193.535 265.405 193.465 265.405 193.426C265.478 193.322 265.548 193.217 265.656 193.107Z" fill="#FFBE55"/>
<path d="M255.054 198.944C254.912 198.977 254.731 198.977 254.591 198.977V198.907C254.731 198.944 254.912 198.944 255.054 198.944ZM265.656 193.107V193.393C265.581 193.465 265.548 193.498 265.478 193.57C265.087 193.997 264.658 194.387 264.232 194.78C264.053 194.923 263.912 195.063 263.736 195.206C263.947 194.995 264.196 194.744 264.413 194.531C264.733 194.211 265.051 193.82 265.405 193.426C265.478 193.322 265.548 193.217 265.656 193.107Z" fill="#EEBEA7"/>
<path d="M273.802 180.835C271.846 185.176 269.461 189.09 266.756 192.185C266.403 192.611 266.009 193.037 265.655 193.394V193.108C265.547 193.217 265.477 193.323 265.404 193.427C265.05 193.821 264.732 194.212 264.412 194.532C264.195 194.746 263.946 194.996 263.735 195.207C263.66 195.244 263.592 195.316 263.521 195.386C263.413 195.492 263.307 195.6 263.198 195.635C262.913 195.884 262.632 196.097 262.309 196.31C261.919 196.595 261.564 196.843 261.174 197.057C261.066 197.128 260.959 197.198 260.889 197.236C260.53 197.447 260.178 197.626 259.86 197.767C259.535 197.946 259.18 198.088 258.86 198.195L258.826 198.231C258.542 198.303 258.327 198.409 258.077 198.48C258.004 198.516 257.937 198.552 257.863 198.552C257.617 198.622 257.367 198.692 257.116 198.73C257.047 198.73 257.011 198.764 256.94 198.764H256.831C256.655 198.802 256.443 198.837 256.265 198.873C256.086 198.907 255.873 198.907 255.696 198.907C255.52 198.944 255.337 198.944 255.195 198.944H255.161C255.127 198.977 255.091 198.977 255.055 198.944C254.913 198.944 254.732 198.944 254.592 198.907V198.977C254.38 198.977 254.165 198.944 253.918 198.907C253.667 198.873 253.383 198.837 253.132 198.802C252.99 198.764 252.851 198.764 252.669 198.73C252.529 198.692 252.385 198.692 252.243 198.622C251.497 198.444 250.788 198.159 250.039 197.767C249.825 197.663 249.576 197.521 249.362 197.379C248.189 196.703 247.049 195.742 245.874 194.531C245.451 194.107 245.058 193.607 244.631 193.107C242.817 190.83 241.005 187.809 239.331 183.967C238.62 182.364 237.977 180.799 237.409 179.305C238.297 181.048 236.748 164.788 237.105 165.359C232.268 156.109 237.089 163.722 238.801 159.135C249.506 163.652 270.315 171.444 270.315 163.545C270.315 163.545 270.777 168.348 271.313 173.328C271.739 177.419 272.202 181.655 272.417 183.255C272.416 183.254 272.982 182.364 273.802 180.835Z" fill="#E18E65"/>
<path d="M255.054 198.944C254.912 198.977 254.731 198.977 254.591 198.977V198.907C254.731 198.944 254.912 198.944 255.054 198.944ZM265.656 193.107V193.393C265.581 193.465 265.548 193.498 265.478 193.57C265.087 193.997 264.658 194.387 264.232 194.78C264.053 194.923 263.912 195.063 263.736 195.206C263.947 194.995 264.196 194.744 264.413 194.531C264.733 194.211 265.051 193.82 265.405 193.426C265.478 193.322 265.548 193.217 265.656 193.107Z" fill="#EEBEA7"/>
<path d="M237.407 179.305C234.559 173.684 229.971 162.942 230.79 152.766C230.79 152.729 230.79 152.729 230.79 152.729C229.511 144.299 240.005 129.108 256.015 129.89C272.022 129.108 282.519 144.299 281.237 152.729V152.766C281.732 158.92 280.239 165.252 278.39 170.555C279.564 170.516 280.7 170.659 281.839 171.051C288.209 173.151 291.196 181.44 288.493 189.516C285.826 197.626 278.46 202.463 272.093 200.365C269.139 199.404 266.897 197.093 265.654 194.067V193.393C266.008 193.037 266.403 192.61 266.755 192.184C269.46 189.089 271.845 185.175 273.801 180.834C272.981 182.364 272.483 184.244 272.483 184.244C272.268 182.646 271.736 177.418 271.31 173.327C270.773 168.347 270.312 163.544 270.312 163.544C270.312 171.444 249.503 163.651 238.798 159.134L237.407 179.305Z" fill="#FFBE55"/>
<path d="M265.656 193.107V194.067C265.656 194.744 265.622 195.562 265.656 196.487C264.623 197.767 263.592 198.836 262.525 199.653C262.166 199.938 261.812 200.188 261.458 200.436C261.174 200.649 260.889 200.824 260.603 200.969H260.569C258.933 201.893 257.295 202.356 255.695 202.392H254.875C254.769 202.392 254.664 202.392 254.591 202.356V198.905C254.731 198.942 254.912 198.942 255.054 198.942C255.09 198.975 255.126 198.975 255.16 198.942H255.194C255.375 198.975 255.518 198.975 255.695 198.975C255.909 198.975 256.157 198.942 256.37 198.905C256.618 198.871 256.905 198.835 257.155 198.8C257.295 198.762 257.436 198.762 257.617 198.728C257.76 198.69 257.901 198.69 258.044 198.62C258.791 198.442 259.501 198.157 260.245 197.765C260.462 197.661 260.713 197.519 260.923 197.377C261.704 196.95 262.452 196.378 263.199 195.632C263.308 195.597 263.414 195.489 263.522 195.383C263.592 195.313 263.661 195.241 263.736 195.204C263.947 194.993 264.196 194.742 264.413 194.529C264.733 194.209 265.051 193.818 265.405 193.424C265.478 193.322 265.548 193.217 265.656 193.107Z" fill="#A5735B"/>
<path d="M254.593 223.595V319.899L271.208 319.189L284.87 318.584L283.48 301.757L281.951 282.935C279.745 283.863 277.254 284.964 274.869 286.033C275.51 278.597 275.794 271.767 275.368 266.18C273.696 245.403 271.1 228.47 269.071 217.406V217.37C269.283 215.236 268.998 212.852 268.502 210.647C268.433 210.181 268.324 209.723 268.218 209.295C268.075 208.796 267.971 208.335 267.828 207.872C267.719 207.515 267.613 207.161 267.505 206.806C267.435 206.557 267.327 206.308 267.259 206.093C266.902 204.919 266.548 204.029 266.331 203.532H266.262C266.547 204.814 267.543 209.083 268.786 215.805C268.786 215.805 268.786 215.805 268.786 215.842C267.972 219.399 265.372 221.391 262.169 222.496C262.135 222.496 262.066 222.529 262.026 222.529C259.824 223.278 257.333 223.561 254.951 223.596C254.844 223.595 254.701 223.632 254.593 223.595Z" fill="#209400" fill-opacity="0.2"/>
<path d="M292.55 253.554C293.405 254.867 294.612 257.287 295.823 260.027C295.647 263.051 295.433 264.863 295.433 264.863C295.433 264.863 294.117 268.314 292.373 273.724C291.908 275.073 287.43 298.981 286.932 300.548C286.824 300.832 286.751 301.152 286.647 301.437C285.011 302.253 285.376 300.829 282.528 301.971C281.678 302.325 280.75 302.681 279.789 303.106C279.647 303.181 279.471 303.25 279.218 303.356C278.934 303.463 278.65 303.57 278.365 303.712C276.551 304.495 274.596 305.35 272.711 306.203C273.349 298.767 275.795 271.767 275.367 266.181C273.696 245.404 271.101 228.471 269.072 217.407V217.371C268.963 216.838 268.896 216.341 268.788 215.842C268.788 215.805 268.788 215.805 268.788 215.805C267.543 209.083 266.547 204.815 266.261 203.532H275.476V203.605C278.036 203.426 290.121 201.725 298.376 209.587C293.821 207.63 287.785 209.401 285.76 210.648C284.902 211.146 284.156 211.714 283.514 212.355C282.447 213.351 281.631 214.49 281.026 215.735C275.121 227.938 290.059 249.78 292.55 253.554Z" fill="#209400"/>
<path d="M293.222 328.219H270.326C270.565 325.301 270.869 322.276 271.206 319.191C271.549 315.88 271.958 312.514 272.348 309.13C272.478 307.962 272.613 306.801 272.741 305.636C272.741 305.636 272.749 305.636 272.758 305.628C275.539 304.611 279.195 299.885 283.203 298.302C283.298 298.269 283.386 298.23 283.482 298.197C284.625 297.806 285.761 300.972 286.929 300.548C287.68 308.498 290.36 318.871 293.222 328.219Z" fill="#209400"/>
<path d="M254.593 202.358V223.596C254.701 223.633 254.844 223.596 254.952 223.596C257.334 223.561 259.825 223.278 262.027 222.529C262.068 222.529 262.136 222.496 262.17 222.496C265.372 221.391 267.972 219.399 268.787 215.842C268.787 215.805 268.787 215.805 268.787 215.805C267.544 209.083 266.549 204.815 266.263 203.532H265.764V202.857C265.764 202.431 265.727 202.039 265.727 201.647C265.693 200.366 265.693 199.157 265.658 197.982V196.489C264.627 197.769 263.594 198.838 262.528 199.655C262.171 199.976 261.815 200.224 261.463 200.438C261.176 200.651 260.892 200.826 260.608 200.971H260.574C258.828 201.968 257.121 202.394 255.414 202.394C255.128 202.394 254.844 202.394 254.593 202.358Z" fill="#E18E65"/>
<path d="M356.657 249.012L357.48 250.477L357.505 250.505L363.933 261.868L364.926 263.617C364.926 263.617 362.978 264.402 359.913 265.699C357.123 266.878 353.419 268.427 349.405 270.165C348.299 270.656 347.196 271.142 346.051 271.625C338.244 275.088 330.026 278.785 325.911 281.151C316.934 286.278 309.464 288.069 304.913 287.975C300.386 287.855 290.457 261.057 288.906 254.628C287.334 248.227 281.525 236.432 277.363 225.201C275.602 220.429 276.111 216.218 277.619 212.875C279.625 208.343 283.407 205.414 285.742 204.946C286.704 204.731 287.639 204.639 288.55 204.671C290.005 204.677 291.378 204.956 292.668 205.455C305.302 210.378 309.214 236.552 309.954 241.01C310.226 242.557 310.985 245.151 311.963 247.983C314.13 254.608 317.285 262.603 317.285 262.603C323.629 259.869 326.248 259.088 328.665 258.395C330.42 257.882 332.075 257.464 334.937 256.364C335.8 256.044 336.723 255.671 337.715 255.332C339.964 254.511 342.538 253.621 345.012 252.785C351.051 250.767 356.657 249.012 356.657 249.012Z" fill="#209400"/>
<path d="M255.695 198.907V202.358C255.589 202.394 255.519 202.394 255.411 202.394H254.59C252.988 202.358 251.35 201.895 249.714 200.971H249.68C249.396 200.826 249.112 200.65 248.825 200.438C248.472 200.19 248.119 199.94 247.76 199.655C246.693 198.838 245.66 197.768 244.629 196.489C244.663 195.102 244.629 193.927 244.629 193.109C245.056 193.609 245.449 194.108 245.872 194.533C247.047 195.744 248.187 196.706 249.36 197.381C249.574 197.523 249.823 197.666 250.037 197.769C250.786 198.161 251.496 198.446 252.241 198.624C252.383 198.694 252.526 198.694 252.667 198.732C252.85 198.766 252.988 198.766 253.13 198.804C253.381 198.839 253.665 198.875 253.916 198.909C254.162 198.946 254.378 198.979 254.59 198.979C254.73 198.979 254.911 198.979 255.053 198.946C255.089 198.979 255.125 198.979 255.159 198.946H255.193C255.336 198.944 255.518 198.944 255.695 198.907Z" fill="#A5735B"/>
<path d="M255.695 223.595V319.899L239.08 319.189L225.419 318.584L226.807 301.757L228.336 282.935C230.542 283.863 233.033 284.964 235.418 286.033C234.775 278.597 234.495 271.767 234.92 266.18C236.591 245.403 239.186 228.47 241.214 217.406V217.37C241.004 215.236 241.289 212.852 241.785 210.647C241.854 210.181 241.963 209.723 242.071 209.295C242.214 208.796 242.316 208.335 242.459 207.872C242.568 207.515 242.674 207.161 242.782 206.806C242.852 206.557 242.96 206.308 243.03 206.093C243.389 204.919 243.741 204.029 243.956 203.532H244.025C243.741 204.814 242.743 209.083 241.5 215.805C241.5 215.805 241.5 215.805 241.5 215.842C242.316 219.399 244.916 221.391 248.12 222.496C248.154 222.496 248.224 222.529 248.262 222.529C250.464 223.278 252.957 223.561 255.337 223.596C255.443 223.595 255.589 223.632 255.695 223.595Z" fill="#209400" fill-opacity="0.2"/>
<path d="M244.024 203.531C243.74 204.813 242.742 209.082 241.499 215.804C241.499 215.804 241.499 215.804 241.499 215.841C241.393 216.339 241.321 216.837 241.214 217.37V217.406C239.186 228.47 236.591 245.403 234.92 266.18C234.494 271.766 234.775 278.597 235.418 286.033C233.033 284.964 230.542 283.863 228.336 282.935C227.377 282.508 226.449 282.154 225.599 281.8C222.749 280.66 221.255 279.841 219.62 279.022C219.516 278.738 219.442 278.42 219.335 278.135C218.837 276.569 218.376 275.074 217.914 273.725C216.169 268.316 214.854 264.864 214.854 264.864C214.854 264.864 214.642 263.052 214.464 260.028C215.673 257.287 216.883 254.868 217.738 253.555C220.226 249.781 235.166 227.939 229.26 215.736C228.656 214.491 227.839 213.352 226.772 212.356C226.131 211.715 225.382 211.147 224.528 210.649C222.505 209.403 214.526 210.813 209.973 212.77C218.227 204.905 232.252 203.427 234.813 203.606V203.533H244.024V203.531ZM239.959 328.219H217.062C217.75 325.973 218.429 323.669 219.062 321.357C221.101 314.031 222.788 306.593 223.356 300.548C224.523 300.972 225.668 301.364 226.811 301.755C230.937 303.21 234.705 304.603 237.544 305.636C237.8 307.969 238.079 310.312 238.352 312.633C238.6 314.838 238.854 317.03 239.079 319.19C239.416 322.276 239.719 325.301 239.959 328.219Z" fill="#209400"/>
<path d="M255.695 202.358V223.596C255.589 223.633 255.444 223.596 255.336 223.596C252.956 223.561 250.463 223.278 248.261 222.529C248.224 222.529 248.154 222.496 248.119 222.496C244.915 221.391 242.315 219.399 241.499 215.842C241.499 215.805 241.499 215.805 241.499 215.805C242.742 209.083 243.741 204.815 244.024 203.532H244.523V202.857C244.523 202.431 244.56 202.039 244.56 201.647C244.594 200.366 244.594 199.157 244.629 197.982V196.489C245.66 197.769 246.693 198.838 247.76 199.655C248.119 199.976 248.473 200.224 248.825 200.438C249.112 200.651 249.396 200.826 249.68 200.971H249.714C251.458 201.968 253.171 202.394 254.874 202.394C255.16 202.394 255.443 202.394 255.695 202.358Z" fill="#E18E65"/>
<path d="M265.512 296.527C265.263 298.092 264.232 299.266 264.232 299.266C264.232 299.266 264.836 301.328 263.45 302.68C263.45 302.68 263.912 304.636 262.098 305.917C262.098 305.917 262.525 307.839 261.1 308.658C261.1 308.658 258.004 309.05 256.87 308.837C255.444 308.516 248.792 306.987 243.102 305.563L246.125 292.861V292.827C247.442 291.938 248.685 291.117 249.078 290.869C250.039 290.298 253.313 290.478 256.688 291.544C259.965 292.577 263.629 294.035 264.659 294.604C265.194 294.889 265.724 294.998 265.512 296.527Z" fill="#E18E65"/>
<path d="M246.517 291.189L246.124 292.827V292.861L243.101 305.563L242.639 307.521C242.639 307.521 240.68 306.774 237.546 305.634C234.702 304.602 230.934 303.216 226.807 301.758C225.668 301.365 224.527 300.973 223.358 300.549C215.281 297.771 206.741 294.89 202.116 293.823C192.048 291.474 185.357 287.704 182.085 284.539C178.85 281.373 189.806 254.976 193.046 249.212C196.248 243.448 200.015 230.855 204.607 219.792C206.563 215.094 209.798 212.356 213.18 210.934C217.736 208.976 222.503 209.402 224.526 210.648C225.381 211.146 226.13 211.714 226.77 212.355C227.837 213.351 228.654 214.49 229.258 215.735C235.164 227.938 220.224 249.78 217.736 253.554C216.881 254.867 215.671 257.287 214.462 260.027C211.545 266.357 208.414 274.362 208.414 274.362C214.923 276.677 217.377 277.884 219.618 279.021C221.253 279.84 222.747 280.659 225.597 281.799C226.447 282.153 227.375 282.507 228.334 282.934C230.54 283.862 233.031 284.963 235.416 286.032C241.213 288.664 246.517 291.189 246.517 291.189Z" fill="#209400"/>
<path d="M280.037 170.744L279.731 156.804C279.686 154.478 279.731 152.174 279.399 150.017C279.071 147.829 278.477 145.687 277.557 143.704C275.749 139.729 272.715 136.374 268.905 134.246C265.099 132.085 260.672 131.103 256.257 131.121C251.843 131.103 247.407 132.085 243.616 134.246C239.798 136.374 236.765 139.729 234.951 143.704C234.037 145.686 233.444 147.829 233.115 150.017C232.784 152.197 232.817 154.448 232.786 156.804L232.474 170.744H230.727L230.428 156.804C230.4 154.518 230.295 152.111 230.603 149.68C230.907 147.272 231.498 144.87 232.475 142.611C234.367 138.054 237.902 134.191 242.179 131.748C246.462 129.267 251.407 128.149 256.258 128.124C261.112 128.149 266.052 129.267 270.334 131.748C274.614 134.191 278.144 138.054 280.033 142.611C281.009 144.87 281.607 147.272 281.917 149.68C282.221 152.13 282.12 154.495 282.093 156.804L281.79 170.744H280.037Z" fill="#0E538C"/>
<path d="M232.123 178.313C228.986 178.313 228.195 176.064 228.195 173.286V164.273C228.195 161.498 228.986 159.244 232.123 159.244H232.873V178.313H232.123Z" fill="#0B4870"/>
<path d="M234.494 159.245H232.873V178.314H234.494V159.245Z" fill="#2A94F4"/>
<path d="M280.868 178.313C284.008 178.313 284.805 176.064 284.805 173.286V164.273C284.805 161.498 284.008 159.244 280.868 159.244H280.118V178.313H280.868Z" fill="#0B4870"/>
<path d="M280.118 159.245H278.496V178.314H280.118V159.245Z" fill="#2A94F4"/>
<path d="M257.42 195.69V193.941C264.656 193.941 278.437 183.658 278.437 178.313H280.182C280.182 185.079 264.938 195.69 257.42 195.69Z" fill="#CCE9FF"/>
<path d="M258.582 197.258H256.252C254.319 197.258 252.755 196.168 252.755 194.815C252.755 193.467 254.319 192.378 256.252 192.378H258.582C260.513 192.378 262.078 193.468 262.078 194.815C262.077 196.168 260.513 197.258 258.582 197.258Z" fill="#0B4870"/>
<path d="M195.023 101.446V115.259L194.94 134.01L194.829 156.658L194.759 173.366L178.114 156.594L173.035 156.576L105.682 156.261C94.3031 154.041 85.7161 144.027 85.7161 132.02V101.446C85.7161 88.7629 95.3061 78.2879 107.624 76.9089L175.136 77.2199C186.47 79.4569 195.023 89.4519 195.023 101.446Z" fill="#209400" fill-opacity="0.7"/>
<path opacity="0.8" d="M174.026 102.109C174.026 104.116 172.402 105.739 170.402 105.739H108.317C106.314 105.739 104.689 104.116 104.689 102.109C104.689 100.105 106.314 98.4819 108.317 98.4819H170.402C172.402 98.4819 174.026 100.105 174.026 102.109ZM174.026 115.617C174.026 117.615 172.402 119.248 170.402 119.248H108.317C106.314 119.248 104.689 117.615 104.689 115.617C104.689 113.611 106.314 111.987 108.317 111.987H170.402C172.402 111.986 174.026 113.611 174.026 115.617ZM155.059 129.124C155.059 131.114 153.429 132.744 151.425 132.744H108.313C106.31 132.744 104.697 131.114 104.697 129.124C104.697 128.121 105.092 127.219 105.752 126.56C106.405 125.902 107.313 125.488 108.313 125.488H151.425C153.429 125.488 155.059 127.117 155.059 129.124Z" fill="#CCE9FF"/>
</g>
<defs>
<clipPath id="clip0_42_89">
<rect width="500" height="421" fill="white"/>
</clipPath>
</defs>
</svg>
