<svg width="55" height="55" viewBox="0 0 55 55" fill="none" xmlns="http://www.w3.org/2000/svg">
<circle cx="27.5" cy="27.5" r="27.5" fill="#209400" fill-opacity="0.2"/>
<g clip-path="url(#clip0_154_4)">
<path d="M27.9447 14.886C24.3438 14.886 20.7404 16.2566 17.9984 18.9985C12.5145 24.4823 12.5145 33.4036 17.9984 38.8875C23.4823 44.3713 32.4034 44.3713 37.8873 38.8875C43.3712 33.4036 43.3712 24.4823 37.8873 18.9985C35.1454 16.2566 31.5456 14.886 27.9447 14.886ZM27.9447 16.75C31.0618 16.75 34.178 17.9405 36.5616 20.3242C41.329 25.0916 41.329 32.7944 36.5616 37.5618C31.7943 42.3291 24.0915 42.3291 19.3241 37.5618C14.5567 32.7944 14.5567 25.0916 19.3241 20.3242C21.7078 17.9405 24.8276 16.75 27.9447 16.75ZM33.4965 25.1912C33.3177 25.2075 33.1474 25.2749 33.0057 25.3853L26.1576 30.5232L22.9825 27.3481C22.8962 27.2582 22.7927 27.1863 22.6782 27.1369C22.5637 27.0874 22.4405 27.0612 22.3158 27.06C22.191 27.0587 22.0673 27.0823 21.9518 27.1295C21.8364 27.1766 21.7314 27.2463 21.6432 27.3345C21.555 27.4227 21.4853 27.5276 21.4382 27.6431C21.391 27.7586 21.3674 27.8823 21.3687 28.007C21.3699 28.1318 21.3961 28.255 21.4456 28.3695C21.4951 28.484 21.5669 28.5874 21.6569 28.6738L25.4069 32.4238C25.5662 32.5829 25.7775 32.6793 26.0021 32.6955C26.2267 32.7116 26.4496 32.6464 26.63 32.5117L34.13 26.8867C34.2891 26.7709 34.4077 26.608 34.4691 26.421C34.5305 26.234 34.5314 26.0325 34.4719 25.8449C34.4123 25.6574 34.2953 25.4933 34.1373 25.376C33.9793 25.2586 33.7884 25.194 33.5917 25.1912C33.56 25.1895 33.5282 25.1895 33.4965 25.1912Z" fill="#209400"/>
</g>
<defs>
<clipPath id="clip0_154_4">
<rect width="30" height="30" fill="white" transform="translate(12 13)"/>
</clipPath>
</defs>
</svg>
