<svg width="55" height="55" viewBox="0 0 55 55" fill="none" xmlns="http://www.w3.org/2000/svg">
<g clip-path="url(#clip0_154_3)">
<path d="M27 13C24.0333 13 21.1332 13.8797 18.6665 15.528C16.1997 17.1762 14.2771 19.5189 13.1418 22.2597C12.0065 25.0006 11.7094 28.0166 12.2882 30.9264C12.867 33.8361 14.2956 36.5088 16.3934 38.6066C18.4912 40.7044 21.1639 42.133 24.0737 42.7118C26.9834 43.2906 29.9994 42.9935 32.7403 41.8582C35.4811 40.7229 37.8238 38.8003 39.472 36.3335C41.1203 33.8668 42 30.9667 42 28C42 24.0218 40.4196 20.2064 37.6066 17.3934C34.7936 14.5804 30.9783 13 27 13ZM27 40.5C24.5277 40.5 22.111 39.7669 20.0554 38.3934C17.9998 37.0198 16.3976 35.0676 15.4515 32.7835C14.5054 30.4995 14.2579 27.9861 14.7402 25.5614C15.2225 23.1366 16.413 20.9093 18.1612 19.1612C19.9093 17.413 22.1366 16.2225 24.5614 15.7402C26.9861 15.2579 29.4995 15.5054 31.7835 16.4515C34.0676 17.3976 36.0199 18.9998 37.3934 21.0554C38.7669 23.111 39.5 25.5277 39.5 28C39.5 31.3152 38.183 34.4946 35.8388 36.8388C33.4946 39.183 30.3152 40.5 27 40.5Z" fill="#209400"/>
<path d="M26.9999 25.1249C26.6683 25.1249 26.3504 25.2566 26.116 25.491C25.8816 25.7254 25.7499 26.0434 25.7499 26.3749V34.8749C25.7499 35.2064 25.8816 35.5243 26.116 35.7588C26.3504 35.9932 26.6683 36.1249 26.9999 36.1249C27.3314 36.1249 27.6493 35.9932 27.8837 35.7588C28.1182 35.5243 28.2499 35.2064 28.2499 34.8749V26.3749C28.2499 26.0434 28.1182 25.7254 27.8837 25.491C27.6493 25.2566 27.3314 25.1249 26.9999 25.1249ZM26.9999 19.9999C26.6615 20.0126 26.3408 20.1544 26.1037 20.3962C25.8666 20.6379 25.731 20.9613 25.7249 21.2999V21.4999C25.7243 21.663 25.7576 21.8244 25.8228 21.9739C25.888 22.1234 25.9836 22.2577 26.1036 22.3682C26.2235 22.4787 26.3651 22.5631 26.5194 22.6159C26.6738 22.6687 26.8374 22.6888 26.9999 22.6749C27.3274 22.6625 27.6382 22.5268 27.87 22.2951C28.1018 22.0633 28.2375 21.7525 28.2499 21.4249V21.1249C28.2508 20.966 28.2182 20.8087 28.154 20.6634C28.0898 20.5181 27.9956 20.388 27.8775 20.2817C27.7594 20.1754 27.6201 20.0954 27.4689 20.0468C27.3176 19.9982 27.1578 19.9822 26.9999 19.9999Z" fill="#209400"/>
</g>
<circle cx="27.5" cy="27.5" r="27.5" fill="#209400" fill-opacity="0.2"/>
<defs>
<clipPath id="clip0_154_3">
<rect width="30" height="30" fill="white" transform="translate(12 13)"/>
</clipPath>
</defs>
</svg>
