<svg width="70" height="70" viewBox="0 0 90 90" fill="none" xmlns="http://www.w3.org/2000/svg">
<circle cx="45" cy="45" r="45" fill="#209400" fill-opacity="0.2"/>
<path d="M49.5 59.55C57.9847 59.55 62.2282 59.55 64.863 56.913C67.5 54.2783 67.5 50.0348 67.5 41.55C67.5 33.0653 67.5 28.8218 64.863 26.187C62.2282 23.55 57.9847 23.55 49.5 23.55H40.5C32.0153 23.55 27.7717 23.55 25.137 26.187C22.5 28.8218 22.5 33.0653 22.5 41.55C22.5 50.0348 22.5 54.2783 25.137 56.913C26.6062 58.3845 28.575 59.0348 31.5 59.3206" stroke="#209400" stroke-width="3.75" stroke-linecap="round" stroke-linejoin="round"/>
<path d="M49.5 59.55C46.719 59.55 43.6545 60.675 40.8577 62.1263C36.3622 64.4595 34.1145 65.6273 33.0075 64.8826C31.9005 64.1401 32.1097 61.8338 32.5305 57.2235L32.625 56.175M45 41.55V41.5725V41.55ZM36 41.55V41.5725V41.55ZM54 41.55V41.5725V41.55Z" stroke="#209400" stroke-width="3.75" stroke-linecap="round"/>
</svg>
