<svg width="55" height="55" viewBox="0 0 55 55" fill="none" xmlns="http://www.w3.org/2000/svg">
<path d="M18.0212 35.3013C18.2159 35.4966 18.365 35.7325 18.458 35.9921C18.551 36.2517 18.5856 36.5286 18.5594 36.8031C18.4276 38.0736 18.1778 39.329 17.8131 40.5531C20.4288 39.9475 22.0263 39.2463 22.7519 38.8787C23.1634 38.6703 23.6374 38.6209 24.0831 38.74C25.3608 39.0806 26.6777 39.2521 28 39.25C35.4925 39.25 41.125 33.9869 41.125 28C41.125 22.015 35.4925 16.75 28 16.75C20.5075 16.75 14.875 22.015 14.875 28C14.875 30.7525 16.0319 33.3062 18.0212 35.3013ZM17.0969 42.6231C16.6526 42.7112 16.2069 42.7918 15.76 42.865C15.385 42.925 15.1 42.535 15.2481 42.1863C15.4146 41.7936 15.5672 41.3953 15.7056 40.9919L15.7113 40.9731C16.1762 39.6231 16.555 38.0706 16.6938 36.625C14.3931 34.3188 13 31.3 13 28C13 20.7513 19.7162 14.875 28 14.875C36.2838 14.875 43 20.7513 43 28C43 35.2488 36.2838 41.125 28 41.125C26.5143 41.127 25.0349 40.9341 23.5994 40.5513C22.6244 41.0444 20.5262 41.9425 17.0969 42.6231Z" fill="#209400"/>
<path d="M20.5 23.3125C20.5 23.0639 20.5988 22.8254 20.7746 22.6496C20.9504 22.4738 21.1889 22.375 21.4375 22.375H34.5625C34.8111 22.375 35.0496 22.4738 35.2254 22.6496C35.4012 22.8254 35.5 23.0639 35.5 23.3125C35.5 23.5611 35.4012 23.7996 35.2254 23.9754C35.0496 24.1512 34.8111 24.25 34.5625 24.25H21.4375C21.1889 24.25 20.9504 24.1512 20.7746 23.9754C20.5988 23.7996 20.5 23.5611 20.5 23.3125ZM20.5 28C20.5 27.7514 20.5988 27.5129 20.7746 27.3371C20.9504 27.1613 21.1889 27.0625 21.4375 27.0625H34.5625C34.8111 27.0625 35.0496 27.1613 35.2254 27.3371C35.4012 27.5129 35.5 27.7514 35.5 28C35.5 28.2486 35.4012 28.4871 35.2254 28.6629C35.0496 28.8387 34.8111 28.9375 34.5625 28.9375H21.4375C21.1889 28.9375 20.9504 28.8387 20.7746 28.6629C20.5988 28.4871 20.5 28.2486 20.5 28ZM20.5 32.6875C20.5 32.4389 20.5988 32.2004 20.7746 32.0246C20.9504 31.8488 21.1889 31.75 21.4375 31.75H28.9375C29.1861 31.75 29.4246 31.8488 29.6004 32.0246C29.7762 32.2004 29.875 32.4389 29.875 32.6875C29.875 32.9361 29.7762 33.1746 29.6004 33.3504C29.4246 33.5262 29.1861 33.625 28.9375 33.625H21.4375C21.1889 33.625 20.9504 33.5262 20.7746 33.3504C20.5988 33.1746 20.5 32.9361 20.5 32.6875Z" fill="#209400"/>
<circle cx="27.5" cy="27.5" r="27.5" fill="#209400" fill-opacity="0.2"/>
</svg>
