<svg width="80" height="80" viewBox="0 0 80 80" fill="none" xmlns="http://www.w3.org/2000/svg">
<path d="M33 41.375V48.875H29.25V52.625H34.875V56.375H38.625V52.625H42.375V56.375H46.125V52.5294C49.815 52.0625 52.6875 48.9387 52.6875 45.125C52.6875 42.65 51.4688 40.4675 49.6125 39.1006C50.9815 37.7057 51.7489 35.8295 51.75 33.875C51.75 30.3913 49.3519 27.4794 46.125 26.6413V22.625H42.375V26.375H38.625V22.625H34.875V26.375H29.25V30.125H33V41.375ZM45.1875 48.875H36.75V41.375H45.1875C47.2556 41.375 48.9375 43.0569 48.9375 45.125C48.9375 47.1931 47.2556 48.875 45.1875 48.875ZM36.75 30.125H44.25C46.3181 30.125 48 31.8069 48 33.875C48 35.9431 46.3181 37.625 44.25 37.625H36.75V30.125Z" fill="#209400"/>
<circle cx="40" cy="40" r="40" fill="#209400" fill-opacity="0.2"/>
</svg>
