<svg width="80" height="80" viewBox="0 0 80 80" fill="none" xmlns="http://www.w3.org/2000/svg">
<g opacity="0.8">
<path d="M57.9933 37.927L50.2997 36.7417L45.6111 29.0823C45.365 28.6814 45.0196 28.3508 44.6083 28.1225C44.1969 27.8942 43.7337 27.7759 43.2633 27.7791L23.6134 27.9357C23.0465 27.9405 22.4951 28.1217 22.0359 28.4543C21.5767 28.7869 21.2325 29.2542 21.0511 29.7914L18.8181 36.4128V51.6365H23.5061C23.8706 52.8212 24.6052 53.8578 25.6022 54.5942C26.5992 55.3306 27.8059 55.7279 29.0454 55.7279C30.2848 55.7279 31.4916 55.3306 32.4886 54.5942C33.4856 53.8578 34.2202 52.8212 34.5847 51.6365H43.2789C43.6433 52.8212 44.3779 53.8578 45.3749 54.5942C46.3719 55.3306 47.5787 55.7279 48.8181 55.7279C50.0576 55.7279 51.2644 55.3306 52.2613 54.5942C53.2583 53.8578 53.9929 52.8212 54.3574 51.6365H59.7272V39.9486C59.7294 39.4595 59.5554 38.986 59.237 38.6147C58.9186 38.2435 58.4771 37.9993 57.9933 37.927ZM36.5454 30.5598L43.285 30.5061L47.0435 36.6465L36.5454 36.6428V30.5598ZM23.6352 30.6628L33.8181 30.5816V36.6419L21.6205 36.6376L23.6352 30.6628ZM29.0454 53.0002C28.4386 53.0002 27.8454 52.8202 27.3408 52.4831C26.8362 52.146 26.443 51.6668 26.2108 51.1061C25.9785 50.5455 25.9178 49.9286 26.0362 49.3334C26.1545 48.7382 26.4468 48.1915 26.8759 47.7625C27.3049 47.3334 27.8516 47.0411 28.4468 46.9228C29.042 46.8044 29.6589 46.8651 30.2195 47.0974C30.7802 47.3296 31.2594 47.7228 31.5965 48.2274C31.9336 48.732 32.1136 49.3252 32.1136 49.932C32.1127 50.7454 31.7891 51.5253 31.2139 52.1005C30.6387 52.6757 29.8588 52.9993 29.0454 53.0002ZM48.8181 53.0002C48.2113 53.0002 47.6181 52.8202 47.1135 52.4831C46.609 52.146 46.2157 51.6668 45.9835 51.1061C45.7513 50.5455 45.6905 49.9286 45.8089 49.3334C45.9273 48.7382 46.2195 48.1915 46.6486 47.7625C47.0777 47.3334 47.6244 47.0411 48.2195 46.9228C48.8147 46.8044 49.4316 46.8651 49.9923 47.0974C50.5529 47.3296 51.0321 47.7228 51.3692 48.2274C51.7064 48.732 51.8863 49.3252 51.8863 49.932C51.8854 50.7454 51.5619 51.5253 50.9867 52.1005C50.4115 52.6757 49.6316 52.9993 48.8181 53.0002ZM56.9999 48.9093H54.5214C54.2818 47.571 53.5792 46.3596 52.5366 45.487C51.4939 44.6145 50.1777 44.1364 48.8181 44.1364C47.4586 44.1364 46.1423 44.6145 45.0997 45.487C44.0571 46.3596 43.3545 47.571 43.1149 48.9093H34.7486C34.509 47.571 33.8064 46.3596 32.7638 45.487C31.7212 44.6145 30.4049 44.1364 29.0454 44.1364C27.6858 44.1364 26.3696 44.6145 25.327 45.487C24.2843 46.3596 23.5817 47.571 23.3421 48.9093H21.5454V39.366L49.7152 39.4111L56.9999 40.5335V48.9093Z" fill="#209400"/>
<circle cx="40" cy="40" r="40" fill="#209400" fill-opacity="0.2"/>
</g>
</svg>
