<svg width="11" height="11" viewBox="0 0 11 11" fill="none" xmlns="http://www.w3.org/2000/svg">
<path d="M0.259306 0.259428C0.331878 0.186673 0.418089 0.12895 0.513004 0.0895648C0.607918 0.0501797 0.70967 0.0299072 0.812431 0.0299072C0.915193 0.0299072 1.01694 0.0501797 1.11186 0.0895648C1.20677 0.12895 1.29299 0.186673 1.36556 0.259428L5.49993 4.39537L9.63431 0.259428C9.70694 0.186791 9.79318 0.129172 9.88808 0.0898606C9.98299 0.0505495 10.0847 0.0303163 10.1874 0.0303163C10.2902 0.0303163 10.3919 0.0505495 10.4868 0.0898606C10.5817 0.129172 10.6679 0.186791 10.7406 0.259428C10.8132 0.332066 10.8708 0.418299 10.9101 0.513204C10.9494 0.608109 10.9697 0.709829 10.9697 0.812554C10.9697 0.915278 10.9494 1.017 10.9101 1.1119C10.8708 1.20681 10.8132 1.29304 10.7406 1.36568L6.60462 5.50005L10.7406 9.63443C10.8132 9.70707 10.8708 9.7933 10.9101 9.8882C10.9494 9.98311 10.9697 10.0848 10.9697 10.1876C10.9697 10.2903 10.9494 10.392 10.9101 10.4869C10.8708 10.5818 10.8132 10.668 10.7406 10.7407C10.6679 10.8133 10.5817 10.8709 10.4868 10.9102C10.3919 10.9496 10.2902 10.9698 10.1874 10.9698C10.0847 10.9698 9.98299 10.9496 9.88808 10.9102C9.79318 10.8709 9.70694 10.8133 9.63431 10.7407L5.49993 6.60474L1.36556 10.7407C1.29292 10.8133 1.20669 10.8709 1.11178 10.9102C1.01688 10.9496 0.915156 10.9698 0.812431 10.9698C0.709707 10.9698 0.607987 10.9496 0.513082 10.9102C0.418177 10.8709 0.331944 10.8133 0.259306 10.7407C0.186669 10.668 0.12905 10.5818 0.0897385 10.4869C0.0504274 10.392 0.0301942 10.2903 0.0301942 10.1876C0.0301942 10.0848 0.0504274 9.98311 0.0897385 9.8882C0.12905 9.7933 0.186669 9.70707 0.259306 9.63443L4.39524 5.50005L0.259306 1.36568C0.186551 1.29311 0.128828 1.2069 0.0894427 1.11198C0.0500576 1.01707 0.0297852 0.915315 0.0297852 0.812554C0.0297852 0.709792 0.0500576 0.60804 0.0894427 0.513126C0.128828 0.418212 0.186551 0.332 0.259306 0.259428Z" fill="black"/>
</svg>
