<svg width="30" height="29" viewBox="0 0 35 34" fill="none" xmlns="http://www.w3.org/2000/svg">
<path d="M17.4997 0C7.85046 0 0 7.62616 0 17C0 26.3741 7.85046 34 17.4997 34C27.1492 34 35 26.3741 35 17C34.9997 7.62616 27.149 0 17.4997 0ZM17.4997 32.3233C8.80207 32.3233 1.72601 25.4494 1.72601 17C1.72601 8.55086 8.80207 1.67669 17.4997 1.67669C26.1974 1.67669 33.274 8.55086 33.274 17C33.2737 25.4494 26.1974 32.3233 17.4997 32.3233Z" fill="#209400"/>
<path d="M18.5994 7.65911L18.6245 7.65903L18.6348 7.65796H22.2029V11.2288H18.3705H17.8705V11.7288V13.9101V14.4101H18.3705H22.2029V18.0444H18.6579H18.1579V18.5444V27.2369H14.7592V18.5441V18.0441H14.2592H11.8516V14.4098H14.2592H14.7592V13.9098V12.289L14.7672 12.2551L14.7672 12.1971C14.7682 11.0394 14.8971 9.90659 15.4214 9.06875C15.9157 8.2789 16.8189 7.66474 18.5994 7.65911ZM22.7029 11.4406V7.44622C22.7032 7.2871 22.5745 7.15796 22.4158 7.15796H18.6237C18.6148 7.15796 18.6062 7.15825 18.5979 7.15911C14.7692 7.17122 14.2692 9.85287 14.2672 12.1967C14.262 12.2186 14.2592 12.2411 14.2592 12.2644V13.4098V13.9098H13.7592H11.6389C11.4803 13.9098 11.3516 14.0389 11.3516 14.1981V18.2558C11.3516 18.4153 11.4803 18.5441 11.6389 18.5441H13.7592H14.2592V19.0441V27.4486C14.2592 27.6081 14.3879 27.7369 14.5465 27.7369H18.3705C18.5295 27.7369 18.6579 27.6081 18.6579 27.4486V19.0444V18.5444H19.1579H22.4155C22.5745 18.5444 22.7029 18.4155 22.7029 18.2561V14.1983C22.7029 14.0392 22.5745 13.9101 22.4155 13.9101H18.8705H18.3705V13.4101V12.2288V11.7288H18.8705H22.4155C22.5745 11.7288 22.7029 11.5997 22.7029 11.4406Z" stroke="#209400"/>
</svg>
