<svg width="1385" height="320" viewBox="0 0 1512 348" fill="none" xmlns="http://www.w3.org/2000/svg">
<rect width="1512" height="348" fill="#D2EACC"/>
<g clip-path="url(#clip0_102_849)">
<path d="M128 209.75C128 213.194 125.203 216 121.75 216C118.297 216 115.5 213.194 115.5 209.75C115.5 206.284 118.297 203.5 121.75 203.5C125.203 203.5 128 206.284 128 209.75ZM121.988 197.178C117.812 197.178 113.894 195.544 110.941 192.588C107.987 189.134 106.363 185.216 106.363 181.041C106.363 176.866 107.987 172.947 110.941 170.506L131.841 149.606C134.2 147.238 135.5 144.1 135.5 140.769C135.5 137.425 134.2 134.288 131.838 131.931C126.966 127.059 119.037 127.05 114.169 131.931C111.8 134.288 110.5 137.422 110.5 140.769H98C98 134.091 100.606 127.806 105.338 123.081C114.775 113.634 131.228 113.644 140.678 123.094C145.4 127.803 148 134.078 148 140.769C148 147.447 145.4 153.722 140.675 158.444L119.775 178.828C118.559 180.05 118.559 182.025 119.775 183.247C120.997 184.469 122.972 184.469 124.194 183.247C124.987 182.441 125.109 181.513 125.109 181.025H137.609C137.609 185.2 135.984 189.131 133.031 192.584C130.081 195.541 126.163 197.178 121.988 197.178Z" fill="#209400" fill-opacity="0.3"/>
</g>
<path d="M1145.62 107.75C1130.12 107.75 1117.5 95.1331 1117.5 79.625C1117.5 64.1169 1130.12 51.5 1145.62 51.5C1161.13 51.5 1173.75 64.1169 1173.75 79.625C1173.75 85.7825 1171.81 91.6081 1168.14 96.4663L1167.71 97.0119C1166.35 98.7612 1164.77 100.338 1163.02 101.709L1162.49 102.119C1157.61 105.811 1151.78 107.75 1145.62 107.75ZM1145.62 55.25C1132.18 55.25 1121.25 66.185 1121.25 79.625C1121.25 93.065 1132.18 104 1145.62 104C1150.96 104 1156 102.322 1160.21 99.1475L1160.72 98.7444C1162.22 97.5744 1163.58 96.2113 1164.75 94.7075L1165.16 94.1881C1168.32 90.0031 1170 84.9613 1170 79.625C1170 66.185 1159.06 55.25 1145.62 55.25Z" fill="#209400" fill-opacity="0.5"/>
<path d="M1173.94 115.895L1158.51 100.471L1160.72 98.7444C1162.22 97.5744 1163.58 96.2113 1164.75 94.7075L1166.47 92.5081L1181.9 107.937L1173.94 115.895ZM1164.13 100.788L1173.94 110.592L1176.59 107.937L1166.79 98.1331C1165.97 99.0781 1165.08 99.965 1164.13 100.788ZM1145.62 81.5C1144.59 81.5 1143.75 80.6619 1143.75 79.625C1143.75 78.5881 1144.59 77.75 1145.62 77.75C1147.69 77.75 1149.38 76.0681 1149.38 74C1149.38 71.9319 1147.69 70.25 1145.62 70.25C1143.56 70.25 1141.88 71.9319 1141.88 74C1141.88 75.0369 1141.04 75.875 1140 75.875C1138.97 75.875 1138.12 75.0369 1138.12 74C1138.12 69.8637 1141.49 66.5 1145.62 66.5C1149.76 66.5 1153.12 69.8637 1153.12 74C1153.12 78.1363 1149.76 81.5 1145.62 81.5ZM1145.62 92.75C1145.12 92.75 1144.65 92.5606 1144.29 92.2062C1143.94 91.85 1143.75 91.3813 1143.75 90.875C1143.75 90.6313 1143.81 90.3875 1143.9 90.1625C1143.99 89.9375 1144.13 89.7313 1144.29 89.5438C1144.82 89.0188 1145.66 88.85 1146.34 89.15C1146.58 89.2437 1146.77 89.375 1146.96 89.5438C1147.29 89.8981 1147.5 90.3875 1147.5 90.875C1147.5 91.3813 1147.31 91.85 1146.96 92.2062C1146.6 92.5606 1146.13 92.75 1145.62 92.75Z" fill="#209400" fill-opacity="0.5"/>
<path d="M1145.62 85.25C1144.59 85.25 1143.75 84.4119 1143.75 83.375V79.625C1143.75 78.5881 1144.59 77.75 1145.62 77.75C1146.66 77.75 1147.5 78.5881 1147.5 79.625V83.375C1147.5 84.4119 1146.66 85.25 1145.62 85.25Z" fill="#209400" fill-opacity="0.5"/>
<path d="M381.667 103.667C367.882 103.667 356.667 92.4516 356.667 78.6666C356.667 64.8816 367.882 53.6666 381.667 53.6666C395.452 53.6666 406.667 64.8816 406.667 78.6666C406.667 84.14 404.942 89.3183 401.68 93.6366L401.3 94.1216C400.085 95.6766 398.682 97.0783 397.128 98.2966L396.662 98.6616C392.318 101.943 387.142 103.667 381.667 103.667ZM381.667 57C369.72 57 360 66.72 360 78.6666C360 90.6133 369.72 100.333 381.667 100.333C386.41 100.333 390.892 98.8416 394.628 96.02L395.085 95.6616C396.413 94.6216 397.625 93.41 398.67 92.0733L399.033 91.6116C401.842 87.8916 403.333 83.41 403.333 78.6666C403.333 66.72 393.613 57 381.667 57Z" fill="#209400" fill-opacity="0.4"/>
<path d="M381.667 97C378.45 97 375.28 96.15 372.5 94.5433C366.845 91.2716 363.333 85.1883 363.333 78.6666C363.333 68.5583 371.558 60.3333 381.667 60.3333C391.775 60.3333 400 68.5583 400 78.6666C400 82.845 398.637 86.77 396.055 90.0216C395.16 91.1516 394.138 92.1733 393.015 93.0583C392.288 93.6333 391.572 94.1216 390.827 94.5483C388.053 96.15 384.883 97 381.667 97ZM381.667 63.6666C373.397 63.6666 366.667 70.395 366.667 78.6666C366.667 84.0016 369.542 88.98 374.168 91.6583C378.715 94.285 384.618 94.2866 389.167 91.6566C389.772 91.3116 390.353 90.915 390.95 90.4416C391.885 89.705 392.7 88.89 393.445 87.9483C395.553 85.2933 396.667 82.085 396.667 78.6666C396.667 70.395 389.937 63.6666 381.667 63.6666ZM418.618 125.33C417.338 125.33 416.058 124.843 415.083 123.868L405.655 114.442C403.705 112.492 403.705 109.32 405.655 107.37L410.368 102.657C412.317 100.705 415.488 100.705 417.44 102.657L426.868 112.085C427.813 113.027 428.333 114.283 428.333 115.62C428.333 116.955 427.813 118.212 426.868 119.155L422.155 123.868C421.18 124.843 419.9 125.33 418.618 125.33ZM413.905 104.527C413.478 104.527 413.052 104.688 412.725 105.013L408.012 109.727C407.362 110.378 407.362 111.433 408.012 112.085L417.44 121.512C418.088 122.162 419.147 122.163 419.798 121.512L424.512 116.798C424.827 116.482 425 116.063 425 115.62C425 115.173 424.827 114.757 424.513 114.443L415.085 105.013C414.758 104.687 414.332 104.527 413.905 104.527ZM418.333 58.6666C415.577 58.6666 413.333 56.4233 413.333 53.6666C413.333 50.91 415.577 48.6666 418.333 48.6666C421.09 48.6666 423.333 50.91 423.333 53.6666C423.333 56.4233 421.09 58.6666 418.333 58.6666ZM418.333 52C417.415 52 416.667 52.7466 416.667 53.6666C416.667 54.5866 417.415 55.3333 418.333 55.3333C419.252 55.3333 420 54.5866 420 53.6666C420 52.7466 419.252 52 418.333 52ZM423.333 75.3333H413.333C411.495 75.3333 410 73.8383 410 72V67C410 64.2433 412.243 62 415 62H421.667C424.423 62 426.667 64.2433 426.667 67V72C426.667 73.8383 425.172 75.3333 423.333 75.3333ZM415 65.3333C414.082 65.3333 413.333 66.08 413.333 67V72H423.335L423.333 67C423.333 66.08 422.585 65.3333 421.667 65.3333H415ZM360 108.667C357.243 108.667 355 106.423 355 103.667C355 100.91 357.243 98.6666 360 98.6666C362.757 98.6666 365 100.91 365 103.667C365 106.423 362.757 108.667 360 108.667ZM360 102C359.082 102 358.333 102.747 358.333 103.667C358.333 104.587 359.082 105.333 360 105.333C360.918 105.333 361.667 104.587 361.667 103.667C361.667 102.747 360.918 102 360 102ZM365 125.333H355C353.162 125.333 351.667 123.838 351.667 122V117C351.667 114.243 353.91 112 356.667 112H363.333C366.09 112 368.333 114.243 368.333 117V122C368.333 123.838 366.838 125.333 365 125.333ZM356.667 115.333C355.748 115.333 355 116.08 355 117V122H365.002L365 117C365 116.08 364.252 115.333 363.333 115.333H356.667Z" fill="#209400" fill-opacity="0.4"/>
<path d="M406.833 110.907L393.123 97.1967L395.085 95.6617C396.413 94.6217 397.625 93.41 398.67 92.0733L400.193 90.1183L413.908 103.833L406.833 110.907ZM398.118 97.4783L406.833 106.193L409.193 103.833L400.478 95.1183C399.747 95.9583 398.958 96.7467 398.118 97.4783ZM381.667 80.3333C380.747 80.3333 380 79.5883 380 78.6667C380 77.745 380.747 77 381.667 77C383.505 77 385 75.505 385 73.6667C385 71.8283 383.505 70.3333 381.667 70.3333C379.828 70.3333 378.333 71.8283 378.333 73.6667C378.333 74.5883 377.587 75.3333 376.667 75.3333C375.747 75.3333 375 74.5883 375 73.6667C375 69.99 377.99 67 381.667 67C385.343 67 388.333 69.99 388.333 73.6667C388.333 77.3433 385.343 80.3333 381.667 80.3333ZM381.667 90.3333C381.217 90.3333 380.8 90.165 380.483 89.85C380.167 89.5333 380 89.1167 380 88.6667C380 88.45 380.05 88.2333 380.133 88.0333C380.217 87.8333 380.333 87.65 380.483 87.4833C380.95 87.0167 381.7 86.8667 382.3 87.1333C382.517 87.2167 382.683 87.3333 382.85 87.4833C383.15 87.7983 383.333 88.2333 383.333 88.6667C383.333 89.1167 383.167 89.5333 382.85 89.85C382.533 90.165 382.117 90.3333 381.667 90.3333Z" fill="#209400" fill-opacity="0.4"/>
<path d="M381.667 83.6667C380.747 83.6667 380 82.9217 380 82V78.6667C380 77.745 380.747 77 381.667 77C382.587 77 383.333 77.745 383.333 78.6667V82C383.333 82.9217 382.587 83.6667 381.667 83.6667Z" fill="#209400" fill-opacity="0.4"/>
<g clip-path="url(#clip1_102_849)">
<path fill-rule="evenodd" clip-rule="evenodd" d="M308.269 252.754C308.183 252.751 308.098 252.75 308.012 252.75H307.822C307.736 252.75 307.65 252.751 307.565 252.754C293.035 252.992 281.25 264.793 281.25 279.417C281.25 284.326 285.23 288.306 290.139 288.306C295.048 288.306 299.028 284.326 299.028 279.417C299.028 274.581 302.958 270.579 307.917 270.528C312.876 270.579 316.806 274.581 316.806 279.417C316.806 284.283 312.826 288.306 307.822 288.306C302.913 288.306 298.933 292.285 298.933 297.194V309.046C298.933 313.956 302.913 317.935 307.822 317.935C312.731 317.935 316.71 313.956 316.71 309.046V304.575C327.099 300.929 334.583 291.071 334.583 279.417C334.583 264.793 322.798 252.992 308.269 252.754ZM308.012 258.676C308.044 258.676 308.076 258.677 308.108 258.677L308.155 258.679C319.495 258.855 328.657 268.059 328.657 279.417C328.657 289.094 322.005 297.212 313.014 299.508C311.702 299.843 310.785 301.025 310.785 302.379V309.046C310.785 310.683 309.458 312.009 307.822 312.009C306.185 312.009 304.859 310.683 304.859 309.046V297.194C304.859 295.558 306.185 294.231 307.822 294.231C316.073 294.231 322.731 287.581 322.731 279.417C322.731 271.291 316.137 264.666 307.939 264.602H307.894C299.697 264.666 293.102 271.291 293.102 279.417C293.102 281.053 291.775 282.38 290.139 282.38C288.503 282.38 287.176 281.053 287.176 279.417C287.176 268.059 296.339 258.855 307.679 258.679L307.726 258.677C307.757 258.677 307.789 258.676 307.822 258.676H308.012ZM307.917 329.787C306.28 329.787 304.954 331.114 304.954 332.75C304.954 334.386 306.28 335.713 307.917 335.713C309.553 335.713 310.88 334.386 310.88 332.75C310.88 331.114 309.553 329.787 307.917 329.787ZM299.028 332.75C299.028 327.841 303.007 323.861 307.917 323.861C312.826 323.861 316.806 327.841 316.806 332.75C316.806 337.659 312.826 341.639 307.917 341.639C303.007 341.639 299.028 337.659 299.028 332.75Z" fill="#209400" fill-opacity="0.5"/>
</g>
<path d="M541.099 140.856H557.851V146.136H541.099V140.856ZM541.627 159H535.387V125.4H559.915V130.632H541.627V159ZM565.864 159V133.368H571.576V140.424L570.904 138.36C571.672 136.632 572.872 135.32 574.504 134.424C576.168 133.528 578.232 133.08 580.696 133.08V138.792C580.44 138.728 580.2 138.696 579.976 138.696C579.752 138.664 579.528 138.648 579.304 138.648C577.032 138.648 575.224 139.32 573.88 140.664C572.536 141.976 571.864 143.944 571.864 146.568V159H565.864ZM598.56 159.336C595.712 159.336 593.216 158.776 591.072 157.656C588.96 156.504 587.312 154.936 586.128 152.952C584.976 150.968 584.4 148.712 584.4 146.184C584.4 143.624 584.96 141.368 586.08 139.416C587.232 137.432 588.8 135.88 590.784 134.76C592.8 133.64 595.088 133.08 597.648 133.08C600.144 133.08 602.368 133.624 604.32 134.712C606.272 135.8 607.808 137.336 608.928 139.32C610.048 141.304 610.608 143.64 610.608 146.328C610.608 146.584 610.592 146.872 610.56 147.192C610.56 147.512 610.544 147.816 610.512 148.104H589.152V144.12H607.344L604.992 145.368C605.024 143.896 604.72 142.6 604.08 141.48C603.44 140.36 602.56 139.48 601.44 138.84C600.352 138.2 599.088 137.88 597.648 137.88C596.176 137.88 594.88 138.2 593.76 138.84C592.672 139.48 591.808 140.376 591.168 141.528C590.56 142.648 590.256 143.976 590.256 145.512V146.472C590.256 148.008 590.608 149.368 591.312 150.552C592.016 151.736 593.008 152.648 594.288 153.288C595.568 153.928 597.04 154.248 598.704 154.248C600.144 154.248 601.44 154.024 602.592 153.576C603.744 153.128 604.768 152.424 605.664 151.464L608.88 155.16C607.728 156.504 606.272 157.544 604.512 158.28C602.784 158.984 600.8 159.336 598.56 159.336ZM628.179 159.336C625.715 159.336 623.491 158.792 621.507 157.704C619.555 156.616 618.019 155.096 616.899 153.144C615.779 151.16 615.219 148.84 615.219 146.184C615.219 143.528 615.779 141.224 616.899 139.272C618.019 137.32 619.555 135.8 621.507 134.712C623.491 133.624 625.715 133.08 628.179 133.08C630.387 133.08 632.323 133.56 633.987 134.52C635.683 135.448 637.011 136.872 637.971 138.792C638.963 140.712 639.459 143.176 639.459 146.184C639.459 149.16 638.947 151.624 637.923 153.576C636.931 155.496 635.587 156.936 633.891 157.896C632.195 158.856 630.291 159.336 628.179 159.336ZM628.851 154.2C630.291 154.2 631.587 153.88 632.739 153.24C633.891 152.6 634.803 151.672 635.475 150.456C636.147 149.24 636.483 147.816 636.483 146.184C636.483 144.52 636.147 143.096 635.475 141.912C634.803 140.696 633.891 139.768 632.739 139.128C631.587 138.488 630.291 138.168 628.851 138.168C627.411 138.168 626.115 138.488 624.963 139.128C623.843 139.768 622.947 140.696 622.275 141.912C621.603 143.096 621.267 144.52 621.267 146.184C621.267 147.816 621.603 149.24 622.275 150.456C622.947 151.672 623.843 152.6 624.963 153.24C626.115 153.88 627.411 154.2 628.851 154.2ZM636.387 168.312V153.048L636.867 146.232L636.675 139.416V133.368H642.387V168.312H636.387ZM662.046 159.336C659.87 159.336 657.95 158.936 656.286 158.136C654.622 157.304 653.326 156.056 652.398 154.392C651.47 152.696 651.006 150.568 651.006 148.008V133.368H657.006V147.192C657.006 149.496 657.518 151.224 658.542 152.376C659.598 153.496 661.086 154.056 663.006 154.056C664.414 154.056 665.63 153.768 666.654 153.192C667.71 152.616 668.526 151.752 669.102 150.6C669.71 149.448 670.014 148.024 670.014 146.328V133.368H676.014V159H670.302V152.088L671.31 154.2C670.446 155.864 669.182 157.144 667.518 158.04C665.854 158.904 664.03 159.336 662.046 159.336ZM696.877 159.336C694.029 159.336 691.533 158.776 689.389 157.656C687.277 156.504 685.629 154.936 684.445 152.952C683.293 150.968 682.717 148.712 682.717 146.184C682.717 143.624 683.277 141.368 684.397 139.416C685.549 137.432 687.117 135.88 689.101 134.76C691.117 133.64 693.405 133.08 695.965 133.08C698.461 133.08 700.685 133.624 702.637 134.712C704.589 135.8 706.125 137.336 707.245 139.32C708.365 141.304 708.925 143.64 708.925 146.328C708.925 146.584 708.909 146.872 708.877 147.192C708.877 147.512 708.861 147.816 708.829 148.104H687.469V144.12H705.661L703.309 145.368C703.341 143.896 703.037 142.6 702.397 141.48C701.757 140.36 700.877 139.48 699.757 138.84C698.669 138.2 697.405 137.88 695.965 137.88C694.493 137.88 693.197 138.2 692.077 138.84C690.989 139.48 690.125 140.376 689.485 141.528C688.877 142.648 688.573 143.976 688.573 145.512V146.472C688.573 148.008 688.925 149.368 689.629 150.552C690.333 151.736 691.325 152.648 692.605 153.288C693.885 153.928 695.357 154.248 697.021 154.248C698.461 154.248 699.757 154.024 700.909 153.576C702.061 153.128 703.085 152.424 703.981 151.464L707.197 155.16C706.045 156.504 704.589 157.544 702.829 158.28C701.101 158.984 699.117 159.336 696.877 159.336ZM730.193 133.08C732.241 133.08 734.065 133.48 735.665 134.28C737.297 135.08 738.577 136.312 739.505 137.976C740.433 139.608 740.897 141.72 740.897 144.312V159H734.897V145.08C734.897 142.808 734.353 141.112 733.265 139.992C732.209 138.872 730.721 138.312 728.801 138.312C727.393 138.312 726.145 138.6 725.057 139.176C723.969 139.752 723.121 140.616 722.513 141.768C721.937 142.888 721.649 144.312 721.649 146.04V159H715.649V133.368H721.361V140.28L720.353 138.168C721.249 136.536 722.545 135.288 724.241 134.424C725.969 133.528 727.953 133.08 730.193 133.08ZM759.116 159.336C756.3 159.336 754.124 158.616 752.588 157.176C751.052 155.704 750.284 153.544 750.284 150.696V127.704H756.284V150.552C756.284 151.768 756.588 152.712 757.196 153.384C757.836 154.056 758.716 154.392 759.836 154.392C761.18 154.392 762.3 154.04 763.196 153.336L764.876 157.608C764.172 158.184 763.308 158.616 762.284 158.904C761.26 159.192 760.204 159.336 759.116 159.336ZM746.06 138.36V133.56H763.148V138.36H746.06ZM770.772 159V123.384H776.772V159H770.772ZM787.719 168.648C786.471 168.648 785.223 168.44 783.975 168.024C782.727 167.608 781.687 167.032 780.855 166.296L783.255 161.88C783.863 162.424 784.551 162.856 785.319 163.176C786.087 163.496 786.871 163.656 787.671 163.656C788.759 163.656 789.639 163.384 790.311 162.84C790.983 162.296 791.607 161.384 792.183 160.104L793.671 156.744L794.151 156.024L803.847 133.368H809.607L797.607 161.064C796.807 162.984 795.911 164.504 794.919 165.624C793.959 166.744 792.871 167.528 791.655 167.976C790.471 168.424 789.159 168.648 787.719 168.648ZM792.999 159.912L781.431 133.368H787.671L797.079 155.496L792.999 159.912ZM824.367 159L839.487 125.4H845.631L860.799 159H854.271L841.263 128.712H843.759L830.799 159H824.367ZM831.327 151.224L833.007 146.328H851.151L852.831 151.224H831.327ZM873.141 159.336C870.997 159.336 868.933 159.064 866.949 158.52C864.997 157.944 863.445 157.256 862.293 156.456L864.597 151.896C865.749 152.632 867.125 153.24 868.725 153.72C870.325 154.2 871.925 154.44 873.525 154.44C875.413 154.44 876.773 154.184 877.605 153.672C878.469 153.16 878.901 152.472 878.901 151.608C878.901 150.904 878.613 150.376 878.037 150.024C877.461 149.64 876.709 149.352 875.781 149.16C874.853 148.968 873.813 148.792 872.661 148.632C871.541 148.472 870.405 148.264 869.253 148.008C868.133 147.72 867.109 147.32 866.181 146.808C865.253 146.264 864.501 145.544 863.925 144.648C863.349 143.752 863.061 142.568 863.061 141.096C863.061 139.464 863.525 138.056 864.453 136.872C865.381 135.656 866.677 134.728 868.341 134.088C870.037 133.416 872.037 133.08 874.341 133.08C876.069 133.08 877.813 133.272 879.573 133.656C881.333 134.04 882.789 134.584 883.941 135.288L881.637 139.848C880.421 139.112 879.189 138.616 877.941 138.36C876.725 138.072 875.509 137.928 874.293 137.928C872.469 137.928 871.109 138.2 870.213 138.744C869.349 139.288 868.917 139.976 868.917 140.808C868.917 141.576 869.205 142.152 869.781 142.536C870.357 142.92 871.109 143.224 872.037 143.448C872.965 143.672 873.989 143.864 875.109 144.024C876.261 144.152 877.397 144.36 878.517 144.648C879.637 144.936 880.661 145.336 881.589 145.848C882.549 146.328 883.317 147.016 883.893 147.912C884.469 148.808 884.757 149.976 884.757 151.416C884.757 153.016 884.277 154.408 883.317 155.592C882.389 156.776 881.061 157.704 879.333 158.376C877.605 159.016 875.541 159.336 873.141 159.336ZM895.78 153.288L895.924 145.752L909.316 133.368H916.516L905.14 144.792L901.972 147.432L895.78 153.288ZM890.884 159V123.384H896.884V159H890.884ZM910.228 159L900.868 147.432L904.66 142.632L917.524 159H910.228ZM933.377 159.336C930.529 159.336 928.033 158.776 925.889 157.656C923.777 156.504 922.129 154.936 920.945 152.952C919.793 150.968 919.217 148.712 919.217 146.184C919.217 143.624 919.777 141.368 920.897 139.416C922.049 137.432 923.617 135.88 925.601 134.76C927.617 133.64 929.905 133.08 932.465 133.08C934.961 133.08 937.185 133.624 939.137 134.712C941.089 135.8 942.625 137.336 943.745 139.32C944.865 141.304 945.425 143.64 945.425 146.328C945.425 146.584 945.409 146.872 945.377 147.192C945.377 147.512 945.361 147.816 945.329 148.104H923.969V144.12H942.161L939.809 145.368C939.841 143.896 939.537 142.6 938.897 141.48C938.257 140.36 937.377 139.48 936.257 138.84C935.169 138.2 933.905 137.88 932.465 137.88C930.993 137.88 929.697 138.2 928.577 138.84C927.489 139.48 926.625 140.376 925.985 141.528C925.377 142.648 925.073 143.976 925.073 145.512V146.472C925.073 148.008 925.425 149.368 926.129 150.552C926.833 151.736 927.825 152.648 929.105 153.288C930.385 153.928 931.857 154.248 933.521 154.248C934.961 154.248 936.257 154.024 937.409 153.576C938.561 153.128 939.585 152.424 940.481 151.464L943.697 155.16C942.545 156.504 941.089 157.544 939.329 158.28C937.601 158.984 935.617 159.336 933.377 159.336ZM962.996 159.336C960.532 159.336 958.308 158.792 956.324 157.704C954.372 156.584 952.836 155.048 951.716 153.096C950.596 151.144 950.036 148.84 950.036 146.184C950.036 143.528 950.596 141.224 951.716 139.272C952.836 137.32 954.372 135.8 956.324 134.712C958.308 133.624 960.532 133.08 962.996 133.08C965.14 133.08 967.06 133.56 968.756 134.52C970.452 135.448 971.796 136.872 972.788 138.792C973.78 140.712 974.276 143.176 974.276 146.184C974.276 149.16 973.796 151.624 972.836 153.576C971.876 155.496 970.548 156.936 968.852 157.896C967.156 158.856 965.204 159.336 962.996 159.336ZM963.716 154.2C965.156 154.2 966.436 153.88 967.556 153.24C968.708 152.6 969.62 151.672 970.292 150.456C970.996 149.24 971.348 147.816 971.348 146.184C971.348 144.52 970.996 143.096 970.292 141.912C969.62 140.696 968.708 139.768 967.556 139.128C966.436 138.488 965.156 138.168 963.716 138.168C962.276 138.168 960.98 138.488 959.828 139.128C958.708 139.768 957.796 140.696 957.092 141.912C956.42 143.096 956.084 144.52 956.084 146.184C956.084 147.816 956.42 149.24 957.092 150.456C957.796 151.672 958.708 152.6 959.828 153.24C960.98 153.88 962.276 154.2 963.716 154.2ZM971.492 159V152.952L971.732 146.136L971.252 139.32V123.384H977.204V159H971.492ZM647.256 224.48C644.632 224.48 642.216 224.048 640.008 223.184C637.8 222.32 635.88 221.12 634.248 219.584C632.616 218.016 631.352 216.192 630.456 214.112C629.56 212 629.112 209.696 629.112 207.2C629.112 204.704 629.56 202.416 630.456 200.336C631.352 198.224 632.616 196.4 634.248 194.864C635.88 193.296 637.8 192.08 640.008 191.216C642.216 190.352 644.616 189.92 647.208 189.92C649.832 189.92 652.232 190.352 654.408 191.216C656.616 192.08 658.536 193.28 660.168 194.816C661.8 196.352 663.064 198.176 663.96 200.288C664.856 202.4 665.304 204.704 665.304 207.2C665.304 209.696 664.856 212 663.96 214.112C663.064 216.224 661.8 218.048 660.168 219.584C658.536 221.12 656.616 222.32 654.408 223.184C652.232 224.048 649.848 224.48 647.256 224.48ZM658.2 231.344C657.016 231.344 655.864 231.2 654.744 230.912C653.656 230.656 652.568 230.208 651.48 229.568C650.424 228.96 649.32 228.144 648.168 227.12C647.016 226.128 645.752 224.896 644.376 223.424L651 221.696C651.896 222.88 652.744 223.824 653.544 224.528C654.376 225.264 655.176 225.792 655.944 226.112C656.712 226.432 657.512 226.592 658.344 226.592C660.552 226.592 662.472 225.696 664.104 223.904L666.984 227.36C664.744 230.016 661.816 231.344 658.2 231.344ZM647.208 219.008C648.904 219.008 650.472 218.72 651.912 218.144C653.352 217.568 654.6 216.752 655.656 215.696C656.712 214.608 657.528 213.344 658.104 211.904C658.712 210.464 659.016 208.896 659.016 207.2C659.016 205.472 658.712 203.904 658.104 202.496C657.528 201.056 656.712 199.808 655.656 198.752C654.6 197.664 653.352 196.832 651.912 196.256C650.472 195.68 648.904 195.392 647.208 195.392C645.512 195.392 643.944 195.68 642.504 196.256C641.064 196.832 639.816 197.664 638.76 198.752C637.704 199.808 636.872 201.056 636.264 202.496C635.688 203.904 635.4 205.472 635.4 207.2C635.4 208.896 635.688 210.464 636.264 211.904C636.872 213.344 637.704 214.608 638.76 215.696C639.816 216.752 641.064 217.568 642.504 218.144C643.944 218.72 645.512 219.008 647.208 219.008ZM683.151 224.336C680.975 224.336 679.055 223.936 677.391 223.136C675.727 222.304 674.431 221.056 673.503 219.392C672.575 217.696 672.111 215.568 672.111 213.008V198.368H678.111V212.192C678.111 214.496 678.623 216.224 679.647 217.376C680.703 218.496 682.191 219.056 684.111 219.056C685.519 219.056 686.735 218.768 687.759 218.192C688.815 217.616 689.631 216.752 690.207 215.6C690.815 214.448 691.119 213.024 691.119 211.328V198.368H697.119V224H691.407V217.088L692.415 219.2C691.551 220.864 690.287 222.144 688.623 223.04C686.959 223.904 685.135 224.336 683.151 224.336ZM717.982 224.336C715.134 224.336 712.638 223.776 710.494 222.656C708.382 221.504 706.734 219.936 705.55 217.952C704.398 215.968 703.822 213.712 703.822 211.184C703.822 208.624 704.382 206.368 705.502 204.416C706.654 202.432 708.222 200.88 710.206 199.76C712.222 198.64 714.51 198.08 717.07 198.08C719.566 198.08 721.79 198.624 723.742 199.712C725.694 200.8 727.23 202.336 728.35 204.32C729.47 206.304 730.03 208.64 730.03 211.328C730.03 211.584 730.014 211.872 729.982 212.192C729.982 212.512 729.966 212.816 729.934 213.104H708.574V209.12H726.766L724.414 210.368C724.446 208.896 724.142 207.6 723.502 206.48C722.862 205.36 721.982 204.48 720.862 203.84C719.774 203.2 718.51 202.88 717.07 202.88C715.598 202.88 714.302 203.2 713.182 203.84C712.094 204.48 711.23 205.376 710.59 206.528C709.982 207.648 709.678 208.976 709.678 210.512V211.472C709.678 213.008 710.03 214.368 710.734 215.552C711.438 216.736 712.43 217.648 713.71 218.288C714.99 218.928 716.462 219.248 718.126 219.248C719.566 219.248 720.862 219.024 722.014 218.576C723.166 218.128 724.19 217.424 725.086 216.464L728.302 220.16C727.15 221.504 725.694 222.544 723.934 223.28C722.206 223.984 720.222 224.336 717.982 224.336ZM744.674 224.336C742.53 224.336 740.466 224.064 738.482 223.52C736.53 222.944 734.978 222.256 733.826 221.456L736.13 216.896C737.282 217.632 738.658 218.24 740.258 218.72C741.858 219.2 743.458 219.44 745.058 219.44C746.946 219.44 748.306 219.184 749.138 218.672C750.002 218.16 750.434 217.472 750.434 216.608C750.434 215.904 750.146 215.376 749.57 215.024C748.994 214.64 748.242 214.352 747.314 214.16C746.386 213.968 745.346 213.792 744.194 213.632C743.074 213.472 741.938 213.264 740.786 213.008C739.666 212.72 738.642 212.32 737.714 211.808C736.786 211.264 736.034 210.544 735.458 209.648C734.882 208.752 734.594 207.568 734.594 206.096C734.594 204.464 735.058 203.056 735.986 201.872C736.914 200.656 738.21 199.728 739.874 199.088C741.57 198.416 743.57 198.08 745.874 198.08C747.602 198.08 749.346 198.272 751.106 198.656C752.866 199.04 754.322 199.584 755.474 200.288L753.17 204.848C751.954 204.112 750.722 203.616 749.474 203.36C748.258 203.072 747.042 202.928 745.826 202.928C744.002 202.928 742.642 203.2 741.746 203.744C740.882 204.288 740.45 204.976 740.45 205.808C740.45 206.576 740.738 207.152 741.314 207.536C741.89 207.92 742.642 208.224 743.57 208.448C744.498 208.672 745.522 208.864 746.642 209.024C747.794 209.152 748.93 209.36 750.05 209.648C751.17 209.936 752.194 210.336 753.122 210.848C754.082 211.328 754.85 212.016 755.426 212.912C756.002 213.808 756.29 214.976 756.29 216.416C756.29 218.016 755.81 219.408 754.85 220.592C753.922 221.776 752.594 222.704 750.866 223.376C749.138 224.016 747.074 224.336 744.674 224.336ZM772.065 224.336C769.249 224.336 767.073 223.616 765.537 222.176C764.001 220.704 763.233 218.544 763.233 215.696V192.704H769.233V215.552C769.233 216.768 769.537 217.712 770.145 218.384C770.785 219.056 771.665 219.392 772.785 219.392C774.129 219.392 775.249 219.04 776.145 218.336L777.825 222.608C777.121 223.184 776.257 223.616 775.233 223.904C774.209 224.192 773.153 224.336 772.065 224.336ZM759.009 203.36V198.56H776.097V203.36H759.009ZM783.721 224V198.368H789.721V224H783.721ZM786.745 194.144C785.625 194.144 784.697 193.792 783.961 193.088C783.257 192.384 782.905 191.536 782.905 190.544C782.905 189.52 783.257 188.672 783.961 188C784.697 187.296 785.625 186.944 786.745 186.944C787.865 186.944 788.777 187.28 789.481 187.952C790.217 188.592 790.585 189.408 790.585 190.4C790.585 191.456 790.233 192.352 789.529 193.088C788.825 193.792 787.897 194.144 786.745 194.144ZM810.076 224.336C807.452 224.336 805.116 223.776 803.068 222.656C801.02 221.504 799.404 219.936 798.22 217.952C797.036 215.968 796.444 213.712 796.444 211.184C796.444 208.624 797.036 206.368 798.22 204.416C799.404 202.432 801.02 200.88 803.068 199.76C805.116 198.64 807.452 198.08 810.076 198.08C812.732 198.08 815.084 198.64 817.132 199.76C819.212 200.88 820.828 202.416 821.98 204.368C823.164 206.32 823.756 208.592 823.756 211.184C823.756 213.712 823.164 215.968 821.98 217.952C820.828 219.936 819.212 221.504 817.132 222.656C815.084 223.776 812.732 224.336 810.076 224.336ZM810.076 219.2C811.548 219.2 812.86 218.88 814.012 218.24C815.164 217.6 816.06 216.672 816.7 215.456C817.372 214.24 817.708 212.816 817.708 211.184C817.708 209.52 817.372 208.096 816.7 206.912C816.06 205.696 815.164 204.768 814.012 204.128C812.86 203.488 811.564 203.168 810.124 203.168C808.652 203.168 807.34 203.488 806.188 204.128C805.068 204.768 804.172 205.696 803.5 206.912C802.828 208.096 802.492 209.52 802.492 211.184C802.492 212.816 802.828 214.24 803.5 215.456C804.172 216.672 805.068 217.6 806.188 218.24C807.34 218.88 808.636 219.2 810.076 219.2ZM844.997 198.08C847.045 198.08 848.869 198.48 850.469 199.28C852.101 200.08 853.381 201.312 854.309 202.976C855.237 204.608 855.701 206.72 855.701 209.312V224H849.701V210.08C849.701 207.808 849.157 206.112 848.069 204.992C847.013 203.872 845.525 203.312 843.605 203.312C842.197 203.312 840.949 203.6 839.861 204.176C838.773 204.752 837.925 205.616 837.317 206.768C836.741 207.888 836.453 209.312 836.453 211.04V224H830.453V198.368H836.165V205.28L835.157 203.168C836.053 201.536 837.349 200.288 839.045 199.424C840.773 198.528 842.757 198.08 844.997 198.08ZM872.193 224.336C870.049 224.336 867.985 224.064 866.001 223.52C864.049 222.944 862.497 222.256 861.345 221.456L863.649 216.896C864.801 217.632 866.177 218.24 867.777 218.72C869.377 219.2 870.977 219.44 872.577 219.44C874.465 219.44 875.825 219.184 876.657 218.672C877.521 218.16 877.953 217.472 877.953 216.608C877.953 215.904 877.665 215.376 877.089 215.024C876.513 214.64 875.761 214.352 874.833 214.16C873.905 213.968 872.865 213.792 871.713 213.632C870.593 213.472 869.457 213.264 868.305 213.008C867.185 212.72 866.161 212.32 865.233 211.808C864.305 211.264 863.553 210.544 862.977 209.648C862.401 208.752 862.113 207.568 862.113 206.096C862.113 204.464 862.577 203.056 863.505 201.872C864.433 200.656 865.729 199.728 867.393 199.088C869.089 198.416 871.089 198.08 873.393 198.08C875.121 198.08 876.865 198.272 878.625 198.656C880.385 199.04 881.841 199.584 882.993 200.288L880.689 204.848C879.473 204.112 878.241 203.616 876.993 203.36C875.777 203.072 874.561 202.928 873.345 202.928C871.521 202.928 870.161 203.2 869.265 203.744C868.401 204.288 867.969 204.976 867.969 205.808C867.969 206.576 868.257 207.152 868.833 207.536C869.409 207.92 870.161 208.224 871.089 208.448C872.017 208.672 873.041 208.864 874.161 209.024C875.313 209.152 876.449 209.36 877.569 209.648C878.689 209.936 879.713 210.336 880.641 210.848C881.601 211.328 882.369 212.016 882.945 212.912C883.521 213.808 883.809 214.976 883.809 216.416C883.809 218.016 883.329 219.408 882.369 220.592C881.441 221.776 880.113 222.704 878.385 223.376C876.657 224.016 874.593 224.336 872.193 224.336Z" fill="#209400"/>
<path d="M1421.28 146.962C1429.49 142.039 1433.61 132.726 1431.77 123.234C1430.03 114.268 1422.8 107.176 1413.78 105.591C1402.1 103.545 1390.74 110.893 1387.93 122.337C1387.3 124.932 1388.89 127.558 1391.49 128.194C1394.08 128.83 1396.71 127.231 1397.35 124.641C1398.97 118.017 1405.31 113.928 1412.1 115.134C1417.11 116.014 1421.29 120.106 1422.26 125.083C1423.32 130.522 1420.97 135.849 1416.3 138.654C1409.16 142.929 1404.9 150.295 1404.9 158.357V160.017C1404.9 162.688 1407.08 164.862 1409.75 164.862C1412.42 164.862 1414.59 162.688 1414.59 160.017V158.357C1414.59 153.732 1417.09 149.474 1421.28 146.962ZM1410 167.137C1407.33 167.137 1405.15 169.311 1405.15 171.982V177.905C1405.15 180.576 1407.33 182.75 1410 182.75C1412.67 182.75 1414.84 180.576 1414.84 177.905V171.982C1414.84 169.311 1412.67 167.137 1410 167.137Z" fill="#209400" fill-opacity="0.3"/>
<path d="M1280.37 265.316C1276.01 265.316 1272.47 268.85 1272.47 273.211V283.737C1272.47 288.097 1276.01 291.632 1280.37 291.632C1281.96 291.647 1296.16 294.263 1296.16 304.79C1296.16 310.053 1290.89 315.316 1283 315.316C1276.58 315.316 1272.47 310.053 1272.47 307.421C1272.47 303.061 1268.94 299.526 1264.58 299.526C1260.22 299.526 1256.68 303.061 1256.68 307.421C1256.68 320.258 1268.74 331.105 1283 331.105C1304.05 331.105 1311.95 315.363 1311.95 302.158C1311.95 291.25 1305.96 282.913 1295.07 278.682C1292.7 277.761 1290.36 277.137 1288.26 276.716V273.211C1288.26 268.85 1284.73 265.316 1280.37 265.316Z" fill="#209400" fill-opacity="0.3"/>
<path d="M1288.26 252.158C1288.26 247.797 1284.73 244.263 1280.37 244.263C1276.01 244.263 1272.47 247.797 1272.47 252.158C1272.47 256.518 1276.01 260.053 1280.37 260.053C1284.73 260.053 1288.26 256.518 1288.26 252.158Z" fill="#209400" fill-opacity="0.3"/>
<defs>
<clipPath id="clip0_102_849">
<rect width="50" height="100" fill="white" transform="translate(98 116)"/>
</clipPath>
<clipPath id="clip1_102_849">
<rect width="100" height="100" fill="white" transform="translate(250 234)"/>
</clipPath>
</defs>
</svg>
