<svg width="80" height="80" viewBox="0 0 80 80" fill="none" xmlns="http://www.w3.org/2000/svg">
<path d="M50.3438 30.0078H25.0312C24.3786 30.0078 23.7526 30.2671 23.2911 30.7286C22.8296 31.1901 22.5703 31.8161 22.5703 32.4688V52.1562C22.5703 52.8089 22.8296 53.4349 23.2911 53.8964C23.7526 54.3579 24.3786 54.6172 25.0312 54.6172H50.3438C50.9964 54.6172 51.6224 54.3579 52.0839 53.8964C52.5454 53.4349 52.8047 52.8089 52.8047 52.1562V32.4688C52.8047 31.8161 52.5454 31.1901 52.0839 30.7286C51.6224 30.2671 50.9964 30.0078 50.3438 30.0078ZM50.6953 52.1562C50.6953 52.2495 50.6583 52.3389 50.5923 52.4048C50.5264 52.4708 50.437 52.5078 50.3438 52.5078H25.0312C24.938 52.5078 24.8486 52.4708 24.7827 52.4048C24.7167 52.3389 24.6797 52.2495 24.6797 52.1562V32.4688C24.6797 32.3755 24.7167 32.2861 24.7827 32.2202C24.8486 32.1542 24.938 32.1172 25.0312 32.1172H50.3438C50.437 32.1172 50.5264 32.1542 50.5923 32.2202C50.6583 32.2861 50.6953 32.3755 50.6953 32.4688V52.1562ZM58.4297 26.8438V47.9375C58.4297 48.2172 58.3186 48.4855 58.1208 48.6833C57.923 48.8811 57.6547 48.9922 57.375 48.9922C57.0953 48.9922 56.827 48.8811 56.6292 48.6833C56.4314 48.4855 56.3203 48.2172 56.3203 47.9375V26.8438C56.3203 26.7505 56.2833 26.6611 56.2173 26.5952C56.1514 26.5292 56.062 26.4922 55.9688 26.4922H29.25C28.9703 26.4922 28.702 26.3811 28.5042 26.1833C28.3064 25.9855 28.1953 25.7172 28.1953 25.4375C28.1953 25.1578 28.3064 24.8895 28.5042 24.6917C28.702 24.4939 28.9703 24.3828 29.25 24.3828H55.9688C56.6214 24.3828 57.2474 24.6421 57.7089 25.1036C58.1704 25.5651 58.4297 26.1911 58.4297 26.8438Z" fill="#209400"/>
<circle cx="40" cy="40" r="40" fill="#209400" fill-opacity="0.2"/>
</svg>
