<svg width="80" height="80" viewBox="0 0 80 80" fill="none" xmlns="http://www.w3.org/2000/svg">
<circle cx="40" cy="40" r="40" fill="#209400" fill-opacity="0.2"/>
<g clip-path="url(#clip0_31_54)">
<path d="M38.5225 34.6875H32.6338C32.459 34.6875 32.2913 34.757 32.1677 34.8806C32.0441 35.0042 31.9746 35.1719 31.9746 35.3467V41.2354C31.9746 41.4102 32.0441 41.5778 32.1677 41.7015C32.2913 41.8251 32.459 41.8945 32.6338 41.8945H38.5225C38.6973 41.8945 38.865 41.8251 38.9886 41.7015C39.1122 41.5778 39.1816 41.4102 39.1816 41.2354V35.3467C39.1816 35.1719 39.1122 35.0042 38.9886 34.8806C38.865 34.757 38.6973 34.6875 38.5225 34.6875ZM37.8633 40.5762H33.293V36.0059H37.8633V40.5762ZM59.7041 29.1504H52.9805V26.2061C52.9795 25.3322 52.6319 24.4945 52.014 23.8766C51.3961 23.2587 50.5584 22.9111 49.6846 22.9102H49.0254V18.2959C49.0244 17.4221 48.6768 16.5843 48.059 15.9664C47.4411 15.3485 46.6033 15.001 45.7295 15H35.2705C34.3967 15.001 33.5589 15.3485 32.941 15.9664C32.3232 16.5843 31.9756 17.4221 31.9746 18.2959V22.9102H31.3154C30.4416 22.9111 29.6039 23.2587 28.986 23.8766C28.3681 24.4945 28.0205 25.3322 28.0195 26.2061V29.1504H21.2959C20.4221 29.1514 19.5843 29.4989 18.9664 30.1168C18.3485 30.7347 18.001 31.5725 18 32.4463V59.3408C18 59.5156 18.0695 59.6833 18.1931 59.8069C18.3167 59.9305 18.4844 60 18.6592 60H62.3408C62.4274 60 62.5131 59.983 62.5931 59.9498C62.6731 59.9167 62.7457 59.8681 62.8069 59.8069C62.8681 59.7457 62.9167 59.6731 62.9498 59.5931C62.983 59.5131 63 59.4274 63 59.3408V32.4463C62.999 31.5725 62.6515 30.7347 62.0336 30.1168C61.4157 29.4989 60.5779 29.1514 59.7041 29.1504ZM28.0195 51.123H23.4492V46.5527H28.0195V51.123ZM28.0195 40.5762H23.4492V36.0059H28.0195V40.5762ZM28.0195 34.6875H22.79C22.6152 34.6875 22.4475 34.757 22.3239 34.8806C22.2003 35.0042 22.1309 35.1719 22.1309 35.3467V41.2354C22.1309 41.4102 22.2003 41.5778 22.3239 41.7015C22.4475 41.8251 22.6152 41.8945 22.79 41.8945H28.0195V45.2344H22.79C22.6152 45.2344 22.4475 45.3038 22.3239 45.4274C22.2003 45.5511 22.1309 45.7187 22.1309 45.8936V51.7822C22.1309 51.9571 22.2003 52.1247 22.3239 52.2483C22.4475 52.372 22.6152 52.4414 22.79 52.4414H28.0195V58.6816H19.3184V32.4463C19.3189 31.922 19.5275 31.4193 19.8982 31.0486C20.2689 30.6779 20.7716 30.4693 21.2959 30.4688H28.0195V34.6875ZM33.293 18.2959C33.2936 17.7716 33.5021 17.2689 33.8728 16.8982C34.2436 16.5275 34.7462 16.3189 35.2705 16.3184H45.7295C46.2538 16.319 46.7564 16.5275 47.1272 16.8982C47.4979 17.269 47.7064 17.7716 47.707 18.2959V28.7549C47.7064 29.2792 47.4979 29.7818 47.1272 30.1526C46.7564 30.5233 46.2538 30.7318 45.7295 30.7324H35.2705C34.7462 30.7318 34.2436 30.5233 33.8728 30.1526C33.5021 29.7818 33.2936 29.2792 33.293 28.7549V18.2959ZM43.9717 58.6816H37.0283V47.8271C37.0289 47.3029 37.2374 46.8002 37.6082 46.4295C37.9789 46.0587 38.4816 45.8502 39.0059 45.8496H41.9941C42.5184 45.8502 43.0211 46.0587 43.3918 46.4295C43.7625 46.8002 43.9711 47.3029 43.9717 47.8271V58.6816ZM51.6621 58.6816H45.29V47.8271C45.2891 46.9533 44.9415 46.1156 44.3236 45.4977C43.7057 44.8798 42.868 44.5322 41.9941 44.5312H39.0059C38.132 44.5322 37.2943 44.8798 36.6764 45.4977C36.0585 46.1156 35.7109 46.9533 35.71 47.8271V58.6816H29.3379V26.2061C29.3385 25.6818 29.547 25.1791 29.9177 24.8084C30.2885 24.4376 30.7911 24.2291 31.3154 24.2285H31.9746V28.7549C31.9756 29.6287 32.3232 30.4665 32.941 31.0843C33.5589 31.7022 34.3967 32.0498 35.2705 32.0508H45.7295C46.6033 32.0498 47.4411 31.7022 48.059 31.0843C48.6768 30.4665 49.0244 29.6287 49.0254 28.7549V24.2285H49.6846C50.2089 24.2291 50.7115 24.4376 51.0822 24.8084C51.453 25.1791 51.6615 25.6818 51.6621 26.2061V58.6816ZM52.9805 36.0059H57.5508V40.5762H52.9805V36.0059ZM52.9805 46.5527H57.5508V51.123H52.9805V46.5527ZM61.6816 58.6816H52.9805V52.4414H58.21C58.2965 52.4414 58.3822 52.4244 58.4622 52.3912C58.5422 52.3581 58.6149 52.3096 58.6761 52.2483C58.7373 52.1871 58.7858 52.1145 58.819 52.0345C58.8521 51.9545 58.8691 51.8688 58.8691 51.7822V45.8936C58.8691 45.807 58.8521 45.7213 58.819 45.6413C58.7858 45.5613 58.7373 45.4886 58.6761 45.4274C58.6149 45.3662 58.5422 45.3177 58.4622 45.2845C58.3822 45.2514 58.2965 45.2344 58.21 45.2344H52.9805V41.8945H58.21C58.2965 41.8945 58.3822 41.8775 58.4622 41.8444C58.5422 41.8112 58.6149 41.7627 58.6761 41.7015C58.7373 41.6403 58.7858 41.5676 58.819 41.4876C58.8521 41.4076 58.8691 41.3219 58.8691 41.2354V35.3467C58.8691 35.2601 58.8521 35.1744 58.819 35.0944C58.7858 35.0144 58.7373 34.9418 58.6761 34.8806C58.6149 34.8194 58.5422 34.7708 58.4622 34.7377C58.3822 34.7045 58.2965 34.6875 58.21 34.6875H52.9805V30.4688H59.7041C60.2284 30.4693 60.731 30.6779 61.1018 31.0486C61.4725 31.4193 61.681 31.922 61.6816 32.4463V58.6816ZM35.0699 27.5003H45.9301C46.1049 27.5003 46.2726 27.4308 46.3962 27.3072C46.5198 27.1836 46.5893 27.0159 46.5893 26.8411C46.5893 26.6663 46.5198 26.4986 46.3962 26.375C46.2726 26.2514 46.1049 26.1819 45.9301 26.1819H45.584C45.4659 25.2914 45.1144 24.448 44.5651 23.7372C44.0158 23.0263 43.2883 22.4734 42.4564 22.1344V21.5233C42.4566 21.2641 42.4057 21.0074 42.3066 20.7679C42.2076 20.5285 42.0623 20.3108 41.8791 20.1275C41.6959 19.9442 41.4784 19.7988 41.239 19.6995C40.9995 19.6003 40.7429 19.5493 40.4837 19.5493C40.2246 19.5493 39.9679 19.6003 39.7285 19.6995C39.4891 19.7988 39.2716 19.9442 39.0884 20.1275C38.9052 20.3108 38.7599 20.5285 38.6608 20.7679C38.5618 21.0074 38.5109 21.2641 38.511 21.5233V22.1346C37.6793 22.4736 36.9519 23.0266 36.4027 23.7374C35.8535 24.4481 35.5021 25.2915 35.384 26.1819H35.0699C34.8951 26.1819 34.7274 26.2514 34.6038 26.375C34.4801 26.4986 34.4107 26.6663 34.4107 26.8411C34.4107 27.0159 34.4801 27.1836 34.6038 27.3072C34.7274 27.4308 34.8951 27.5003 35.0699 27.5003ZM39.8294 21.5233C39.8296 21.3497 39.8986 21.1832 40.0214 21.0605C40.1441 20.9377 40.3106 20.8687 40.4842 20.8685C40.6576 20.8688 40.8239 20.9379 40.9465 21.0607C41.0691 21.1834 41.138 21.3498 41.1381 21.5233V21.7964C40.9423 21.7732 40.7453 21.7614 40.5481 21.761H40.4199C40.2226 21.7614 40.0254 21.7732 39.8294 21.7965L39.8294 21.5233ZM40.4199 23.0793H40.5481C41.4312 23.0805 42.2858 23.3917 42.9628 23.9588C43.6398 24.5259 44.0961 25.3127 44.252 26.1819H36.7159C36.8719 25.3127 37.3282 24.5259 38.0052 23.9588C38.6822 23.3918 39.5368 23.0805 40.4199 23.0793ZM48.3662 34.6875H42.4775C42.391 34.6875 42.3053 34.7045 42.2253 34.7377C42.1453 34.7708 42.0726 34.8194 42.0114 34.8806C41.9502 34.9418 41.9017 35.0144 41.8685 35.0944C41.8354 35.1744 41.8184 35.2601 41.8184 35.3467V41.2354C41.8184 41.3219 41.8354 41.4076 41.8685 41.4876C41.9017 41.5676 41.9502 41.6403 42.0114 41.7015C42.0726 41.7627 42.1453 41.8112 42.2253 41.8444C42.3053 41.8775 42.391 41.8945 42.4775 41.8945H48.3662C48.4528 41.8945 48.5385 41.8775 48.6185 41.8444C48.6985 41.8112 48.7711 41.7627 48.8323 41.7015C48.8935 41.6403 48.9421 41.5676 48.9752 41.4876C49.0083 41.4076 49.0254 41.3219 49.0254 41.2354V35.3467C49.0254 35.2601 49.0083 35.1744 48.9752 35.0944C48.9421 35.0144 48.8935 34.9418 48.8323 34.8806C48.7711 34.8194 48.6985 34.7708 48.6185 34.7377C48.5385 34.7045 48.4528 34.6875 48.3662 34.6875ZM47.707 40.5762H43.1367V36.0059H47.707V40.5762Z" fill="#209400"/>
</g>
<defs>
<clipPath id="clip0_31_54">
<rect width="45" height="45" fill="white" transform="translate(18 15)"/>
</clipPath>
</defs>
</svg>
