<svg width="80" height="80" viewBox="0 0 80 80" fill="none" xmlns="http://www.w3.org/2000/svg">
<circle cx="40" cy="40" r="40" fill="#209400" fill-opacity="0.2"/>
<path d="M57.3144 51.4721C56.9199 51.4721 56.6001 51.8303 56.6001 52.2721V55.2001C56.6001 56.5256 55.6407 57.6001 54.4572 57.6001H25.2858C24.1023 57.6001 23.1429 56.5256 23.1429 55.2001V29.6001C23.1429 28.2746 24.1023 27.2001 25.2858 27.2001H32.3001C32.6946 27.2001 33.0144 26.8419 33.0144 26.4001C33.0144 25.9583 32.6946 25.6001 32.3001 25.6001H25.2858C23.3133 25.6001 21.7144 27.391 21.7144 29.6001V55.2001C21.7144 57.4092 23.3133 59.2001 25.2858 59.2001H54.4572C56.4264 59.1913 58.0208 57.4056 58.0286 55.2001V52.2721C58.0286 51.8303 57.7088 51.4721 57.3144 51.4721Z" fill="#209400"/>
<path d="M58.1428 38.0961H58.0285V29.6001C58.0207 27.3946 56.4263 25.6088 54.4571 25.6001C54.0626 25.6001 53.7428 25.9582 53.7428 26.4001C53.7428 26.8419 54.0626 27.2001 54.4571 27.2001C55.6406 27.2001 56.6 28.2746 56.6 29.6001V30.0481H55.8L51.5143 25.2481L48.4 21.7601C48.2658 21.6086 48.0833 21.5234 47.8928 21.5234C47.7024 21.5234 47.5198 21.6086 47.3857 21.7601L43.6143 25.9841L39.8285 21.7601C39.5459 21.4532 39.0968 21.4532 38.8143 21.7601L31.4143 30.0481H28.8571C28.4626 30.0481 28.1428 30.4062 28.1428 30.8481C28.1428 31.2899 28.4626 31.6481 28.8571 31.6481H56.6V38.0481H52.4285C49.6671 38.0481 47.4285 40.5553 47.4285 43.6481V44.2561C47.4285 47.3489 49.6671 49.8561 52.4285 49.8561H58.1428C59.3263 49.8561 60.2857 48.7816 60.2857 47.4561V40.4961C60.2857 39.1706 59.3263 38.0961 58.1428 38.0961ZM47.9 23.4561L49.9714 25.7761C48.7187 26.7187 47.0812 26.7187 45.8285 25.7761L47.9 23.4561ZM44.8143 26.9121C46.6363 28.4697 49.1636 28.4697 50.9857 26.9121L53.8428 30.1121H47.2285L44.6143 27.1201L44.8143 26.9121ZM36.5285 30.1121L40.8143 25.3121L41.8143 26.4321L38.5285 30.0481L36.5285 30.1121ZM42.8857 27.5041L45.2857 30.0481H40.5428L42.8857 27.5041ZM39.3285 23.4561L39.8571 24.0481L34.5 30.0481H33.4428L39.3285 23.4561ZM58.8571 47.4561C58.8571 47.8979 58.5373 48.2561 58.1428 48.2561H52.4285C51.4813 48.2561 50.5729 47.8346 49.9032 47.0845C49.2334 46.3344 48.8571 45.3169 48.8571 44.2561V43.6481C48.8571 41.4389 50.4561 39.6481 52.4285 39.6481H58.1428C58.5373 39.6481 58.8571 40.0062 58.8571 40.4481V47.4561Z" fill="#209400"/>
<path d="M52.5428 45.5999C53.3318 45.5999 53.9714 44.8836 53.9714 43.9999C53.9714 43.1162 53.3318 42.3999 52.5428 42.3999C51.7539 42.3999 51.1143 43.1162 51.1143 43.9999C51.1143 44.8836 51.7539 45.5999 52.5428 45.5999Z" fill="#209400"/>
</svg>
