<svg width="80" height="80" viewBox="0 0 80 80" fill="none" xmlns="http://www.w3.org/2000/svg">
<path d="M24.6855 36.8C24.7587 35.8888 25.1723 35.0385 25.8442 34.4185C26.5161 33.7986 27.3968 33.4544 28.311 33.4546H50.2346C51.1488 33.4544 52.0295 33.7986 52.7014 34.4185C53.3732 35.0385 53.7869 35.8888 53.8601 36.8L55.3201 54.9819C55.3602 55.4822 55.2964 55.9855 55.1325 56.4599C54.9686 56.9344 54.7083 57.3698 54.3679 57.7387C54.0275 58.1076 53.6144 58.402 53.1547 58.6035C52.6949 58.8049 52.1984 58.909 51.6964 58.9091H26.8492C26.3472 58.909 25.8507 58.8049 25.3909 58.6035C24.9312 58.402 24.5181 58.1076 24.1777 57.7387C23.8373 57.3698 23.577 56.9344 23.4131 56.4599C23.2492 55.9855 23.1854 55.4822 23.2255 54.9819L24.6855 36.8V36.8Z" stroke="#209400" stroke-width="2.5" stroke-linecap="round" stroke-linejoin="round"/>
<path d="M46.5455 38.909V29.8181C46.5455 27.8893 45.7792 26.0394 44.4153 24.6755C43.0514 23.3116 41.2016 22.5454 39.2727 22.5454C37.3439 22.5454 35.494 23.3116 34.1301 24.6755C32.7662 26.0394 32 27.8893 32 29.8181V38.909" stroke="#209400" stroke-width="2.5" stroke-linecap="round" stroke-linejoin="round"/>
<circle cx="40" cy="40" r="40" fill="#209400" fill-opacity="0.2"/>
</svg>
