<svg width="70" height="70" viewBox="0 0 90 90" fill="none" xmlns="http://www.w3.org/2000/svg">
<circle cx="45" cy="45" r="45" fill="#209400" fill-opacity="0.2"/>
<g clip-path="url(#clip0_63_2419)">
<path d="M63.9034 25.8504C61.4277 23.3518 58.4795 21.3709 55.2306 20.0232C51.9817 18.6754 48.4971 17.9877 44.9798 18.0002C30.2411 18.0002 18.2295 30.0084 18.216 44.7504C18.216 49.472 19.4513 54.0654 21.7834 58.1323L18 72.0002L32.1885 68.2809C36.1136 70.417 40.511 71.5366 44.9798 71.5378H44.9933C59.7353 71.5378 71.7435 59.5295 71.757 44.774C71.7604 41.2574 71.0679 37.7749 69.7194 34.5271C68.3709 31.2793 66.3932 28.3305 63.9 25.8504H63.9034ZM44.9798 67.0085C40.9939 67.0099 37.0812 65.9373 33.6533 63.9035L32.8432 63.4175L24.426 65.6248L26.6737 57.4134L26.1473 56.5663C23.9191 53.0236 22.7407 48.922 22.7486 44.7369C22.7486 32.4992 32.7285 22.5159 44.9933 22.5159C47.9151 22.5107 50.8091 23.0838 53.5084 24.2024C56.2078 25.3209 58.659 26.9627 60.7207 29.033C62.7897 31.0953 64.4299 33.5469 65.5467 36.2462C66.6636 38.9455 67.2349 41.8393 67.2278 44.7605C67.2143 57.0422 57.2344 67.0085 44.9798 67.0085ZM57.1804 50.3563C56.5155 50.0222 53.2316 48.4055 52.614 48.176C51.9998 47.9567 51.5509 47.8419 51.1121 48.5102C50.6632 49.175 49.3808 50.6904 48.996 51.1258C48.6113 51.5747 48.213 51.6253 47.5448 51.2945C46.8799 50.957 44.7233 50.255 42.1718 47.9702C40.1805 46.1983 38.8474 44.0045 38.4491 43.3397C38.0644 42.6714 38.412 42.3137 38.7461 41.9795C39.0398 41.6825 39.411 41.1965 39.7451 40.8118C40.0826 40.427 40.194 40.1435 40.4134 39.698C40.6328 39.2458 40.5281 38.861 40.3627 38.5269C40.194 38.1928 38.8609 34.8954 38.2973 33.5657C37.7573 32.2528 37.2071 32.435 36.7954 32.4182C36.4106 32.3945 35.9618 32.3945 35.5129 32.3945C35.1739 32.403 34.8403 32.4814 34.5331 32.6248C34.2259 32.7683 33.9516 32.9737 33.7275 33.2282C33.1133 33.8964 31.3954 35.513 31.3954 38.8104C31.3954 42.1078 33.7916 45.2769 34.1291 45.7258C34.4599 46.1747 38.8339 52.9213 45.5467 55.8238C47.133 56.5157 48.3818 56.924 49.3571 57.2345C50.9603 57.7475 52.4081 57.6699 53.5624 57.5045C54.8449 57.3088 57.5145 55.8845 58.0781 54.3219C58.6316 52.7559 58.6316 51.4194 58.4629 51.1393C58.2975 50.8558 57.8486 50.6904 57.1804 50.3563Z" fill="#209400"/>
</g>
<defs>
<clipPath id="clip0_63_2419">
<rect width="54" height="54" fill="white" transform="translate(18 18)"/>
</clipPath>
</defs>
</svg>
