<svg width="80" height="80" viewBox="0 0 80 80" fill="none" xmlns="http://www.w3.org/2000/svg">
<circle cx="40" cy="40" r="40" fill="#209400" fill-opacity="0.2"/>
<path d="M54.9517 42.0325H60.1555C60.5373 42.0325 60.8801 41.8534 61.0963 41.5411C61.361 41.1585 61.3956 40.6274 61.191 40.0842L61.1483 39.9708L61.0772 39.8727C61.0693 39.8618 60.2773 38.771 59.4639 37.6943C58.9825 37.0571 58.5866 36.5477 58.287 36.1801C57.7322 35.4994 57.4437 35.1723 56.9494 35.1723H54.9517C54.4881 35.1723 54.0657 35.453 53.8218 35.9233C53.6657 36.2244 53.5831 36.5884 53.5831 36.9758V40.2288C53.5831 40.6163 53.6656 40.9802 53.8218 41.2814C54.0657 41.7517 54.4881 42.0325 54.9517 42.0325ZM55.3831 40.2288V36.9758C55.3831 36.9746 55.3831 36.9734 55.3831 36.9723H56.6041C57.0473 37.4772 58.1057 38.8657 59.1108 40.2325H55.3831C55.3831 40.2313 55.3831 40.2301 55.3831 40.2288ZM17.4337 33.4411L21.6102 33.4411C22.1073 33.4411 22.5102 33.0382 22.5102 32.5411C22.5102 32.0441 22.1073 31.6411 21.6102 31.6411L17.4337 31.6411C16.9367 31.6411 16.5337 32.0441 16.5337 32.5411C16.5337 33.0382 16.9367 33.4411 17.4337 33.4411ZM22.5102 37.2993C22.5102 36.8022 22.1073 36.3993 21.6102 36.3993L13.4037 36.3992C12.9066 36.3992 12.5037 36.8022 12.5037 37.2992C12.5037 37.7963 12.9066 38.1992 13.4037 38.1992L21.6102 38.1993C22.1073 38.1993 22.5102 37.7963 22.5102 37.2993ZM22.5102 42.0575C22.5102 41.5604 22.1073 41.1575 21.6102 41.1575L17.4337 41.1574C16.9367 41.1574 16.5337 41.5604 16.5337 42.0574C16.5337 42.5545 16.9367 42.9574 17.4337 42.9574L21.6102 42.9575C22.1073 42.9575 22.5102 42.5545 22.5102 42.0575Z" fill="#209400"/>
<path d="M31.7322 50.7208C32.4303 50.7208 32.9962 50.1549 32.9962 49.4568C32.9962 48.7588 32.4303 48.1929 31.7322 48.1929C31.0342 48.1929 30.4683 48.7588 30.4683 49.4568C30.4683 50.1549 31.0342 50.7208 31.7322 50.7208Z" fill="#209400"/>
<path d="M58.0281 50.7205C58.7262 50.7205 59.2921 50.1547 59.2921 49.4566C59.2921 48.7585 58.7262 48.1926 58.0281 48.1926C57.3301 48.1926 56.7642 48.7585 56.7642 49.4566C56.7642 50.1547 57.3301 50.7205 58.0281 50.7205Z" fill="#209400"/>
<path d="M66.6634 46.432C66.2337 46.1257 65.6832 45.9528 65.1072 45.9412V39.9334C65.1072 39.5269 64.9318 39.0078 64.6806 38.671L59.7407 32.0494C59.4357 31.6406 58.8444 31.3551 58.3027 31.3551H52.0798V28.2903C52.0798 27.5118 51.4658 26.8784 50.7112 26.8784H24.8438C24.0891 26.8784 23.4751 27.5118 23.4751 28.2903V45.9412C22.8992 45.9528 22.3487 46.1257 21.919 46.432C21.3896 46.8095 21.0859 47.3611 21.0859 47.9456V48.3512C21.0859 48.9357 21.3896 49.4873 21.919 49.8648C22.3639 50.182 22.9384 50.3566 23.5366 50.3566H28.1795C28.5817 51.9437 30.022 53.1214 31.7324 53.1214C33.4427 53.1214 34.883 51.9437 35.2852 50.3566H54.4753C54.8775 51.9437 56.3179 53.1214 58.0283 53.1214C59.7386 53.1214 61.1789 51.9437 61.5811 50.3566H65.0458C65.644 50.3566 66.2184 50.182 66.6634 49.8648C67.1928 49.4873 67.4964 48.9357 67.4964 48.3512V47.9456C67.4964 47.3611 67.1928 46.8095 66.6634 46.432ZM58.2888 33.1551C58.3008 33.1579 58.3178 33.1643 58.3317 33.171L63.236 39.7449C63.2629 39.7861 63.3008 39.892 63.3072 39.9434V45.9401H60.8076H59.0607C58.7331 45.8438 58.3867 45.7918 58.0283 45.7918C57.6699 45.7918 57.3234 45.8438 56.9958 45.9401H55.3223L52.0798 45.9345V33.1551H58.2888V33.1551ZM34.9695 47.7401H54.7911C54.6549 47.9959 54.5481 48.2695 54.4753 48.5566H35.2852C35.2125 48.2695 35.1056 47.9959 34.9695 47.7401ZM25.2751 28.6784H50.2798V32.6469V45.9203H34.4972V45.9401H32.7648C32.4372 45.8438 32.0907 45.7918 31.7324 45.7918C31.374 45.7918 31.0275 45.8438 30.6999 45.9401H28.9675V45.9203H25.2751V28.6784ZM22.8859 48.3275V47.9693C22.9356 47.8939 23.1678 47.7401 23.5366 47.7401H28.4952C28.3591 47.9959 28.2522 48.2695 28.1795 48.5566H23.5366C23.1677 48.5566 22.9356 48.4029 22.8859 48.3275ZM31.7324 51.3214C30.7041 51.3214 29.8675 50.4849 29.8675 49.4566C29.8675 48.4284 30.7041 47.5918 31.7324 47.5918C31.9872 47.5918 32.2302 47.6434 32.4517 47.7363V47.7401H32.4609C33.1282 48.0244 33.5972 48.6867 33.5972 49.4566C33.5972 50.4849 32.7606 51.3214 31.7324 51.3214ZM58.0283 51.3214C57 51.3214 56.1634 50.4849 56.1634 49.4566C56.1634 48.4284 57 47.5918 58.0283 47.5918C59.0565 47.5918 59.8931 48.4284 59.8931 49.4566C59.8931 50.4849 59.0565 51.3214 58.0283 51.3214ZM65.6964 48.3275C65.6467 48.4029 65.4146 48.5566 65.0458 48.5566H61.5811C61.5084 48.2695 61.4015 47.9959 61.2654 47.7401H63.7145C63.7304 47.7403 63.7483 47.7405 63.7681 47.7405C63.7823 47.7405 63.7976 47.7404 63.8136 47.7401H65.0458C65.4146 47.7401 65.6467 47.8939 65.6964 47.9693V48.3275H65.6964Z" fill="#209400"/>
</svg>
