<svg width="80" height="80" viewBox="0 0 80 80" fill="none" xmlns="http://www.w3.org/2000/svg">
<circle cx="40" cy="40" r="40" fill="#209400" fill-opacity="0.2"/>
<g clip-path="url(#clip0_401_44)">
<path d="M57.9166 30.2515C57.6125 29.9661 57.3403 29.7135 57.0959 29.4868C55.1098 27.6444 55.1098 27.6444 54.5074 25.0032C54.4331 24.6781 54.3506 24.3161 54.2555 23.91C53.7928 21.9351 52.1212 20.5323 50.0959 20.4197C49.6794 20.3966 49.3085 20.3781 48.9755 20.3615C46.2699 20.2268 46.2699 20.2268 44.1105 18.5908C43.8127 18.3648 43.5142 18.1396 43.2151 17.9154C41.5911 16.6998 39.409 16.6998 37.7851 17.9154C37.4859 18.1396 37.1875 18.3648 36.8897 18.5908C34.7304 20.2268 34.7304 20.2268 32.0247 20.3615C31.6916 20.3781 31.3208 20.3966 30.9043 20.4197C28.879 20.5324 27.2074 21.9351 26.7446 23.91C26.6495 24.3161 26.567 24.6781 26.4928 25.0032C25.8903 27.6443 25.8903 27.6443 23.9043 29.4867C23.6599 29.7135 23.3877 29.9661 23.0836 30.2514C21.6045 31.6396 21.2255 33.7886 22.1406 35.5989C22.3287 35.971 22.4981 36.3015 22.6503 36.5981C23.8864 39.0087 23.8864 39.0087 23.5494 41.6968C23.5079 42.0276 23.4617 42.396 23.4122 42.81C23.1714 44.8241 24.2625 46.714 26.1272 47.5125C26.5105 47.6767 26.8527 47.8209 27.1598 47.9503C28.4462 48.4924 29.0694 48.7557 29.5727 49.1944L25.5472 57.8407C25.4931 57.9572 25.4718 58.0864 25.4859 58.2141C25.4999 58.3418 25.5486 58.4632 25.6268 58.5652C25.705 58.6671 25.8096 58.7458 25.9293 58.7925C26.0489 58.8392 26.1791 58.8523 26.3057 58.8302L30.3171 58.1293L32.363 61.6501C32.4275 61.7612 32.5213 61.8526 32.6341 61.9141C32.7469 61.9757 32.8744 62.0052 33.0028 61.9994C33.1312 61.9935 33.2555 61.9526 33.3623 61.8811C33.469 61.8096 33.5542 61.7101 33.6084 61.5936L37.1524 53.9812C37.4267 53.8975 37.679 53.8197 37.9116 53.7479C40.5 52.9492 40.5002 52.9492 43.0887 53.7479C43.3541 53.8299 43.6464 53.9199 43.9669 54.0174L47.494 61.5936C47.5506 61.715 47.6406 61.8177 47.7536 61.8897C47.8665 61.9617 47.9977 61.9999 48.1316 61.9999C48.3812 61.9999 48.6131 61.8672 48.7394 61.6501L50.7853 58.1293L54.7967 58.8302C54.9233 58.8523 55.0535 58.8393 55.1732 58.7925C55.2929 58.7458 55.3975 58.6672 55.4757 58.5652C55.5538 58.4633 55.6026 58.3418 55.6166 58.2141C55.6306 58.0864 55.6094 57.9572 55.5552 57.8407L51.5008 49.1324C51.9921 48.7297 52.6157 48.4665 53.8404 47.9504C54.1476 47.8209 54.4898 47.6767 54.8731 47.5125C56.7378 46.714 57.8288 44.8242 57.5882 42.81C57.5387 42.396 57.4925 42.0276 57.4509 41.6967C57.1138 39.0087 57.1138 39.0087 58.3499 36.5981C58.502 36.3014 58.6714 35.971 58.8596 35.5989C59.7746 33.7887 59.3957 31.6397 57.9166 30.2515ZM32.902 59.7789L31.2866 56.9992C31.2143 56.875 31.1057 56.7759 30.9754 56.7152C30.8451 56.6545 30.6993 56.6352 30.5577 56.6598L27.3906 57.2132L30.5585 50.409C30.7241 50.6566 30.9087 50.9419 31.1257 51.2781C31.3067 51.5583 31.5081 51.8703 31.7364 52.2194C32.5856 53.5179 33.985 54.2588 35.4651 54.2732L32.902 59.7789ZM50.5445 56.6598C50.4029 56.6351 50.2571 56.6543 50.1268 56.715C49.9965 56.7757 49.8879 56.8748 49.8156 56.9991L48.2002 59.7788L45.6365 54.2718C47.0788 54.2252 48.4338 53.4882 49.2638 52.2193C49.4921 51.8702 49.6935 51.5583 49.8743 51.2782C50.1181 50.9005 50.321 50.5867 50.502 50.3191L53.7116 57.213L50.5445 56.6598ZM57.6045 34.9646C57.4369 35.2957 57.2682 35.6264 57.0985 35.9565C55.7046 38.6749 55.6753 38.8406 56.0555 41.8718C56.0968 42.2003 56.1426 42.566 56.1918 42.9769C56.3604 44.3877 55.6254 45.6606 54.3194 46.2199C53.9388 46.3829 53.5992 46.526 53.2941 46.6545C50.4791 47.8408 50.35 47.949 48.693 50.5154C48.5133 50.7935 48.3134 51.1032 48.0869 51.4496C47.3092 52.6385 45.928 53.1412 44.5681 52.7303C44.1718 52.6105 43.8195 52.5018 43.5033 52.4043C42.0438 51.9539 41.2719 51.7287 40.5 51.7287C39.7282 51.7287 38.9563 51.9539 37.4968 52.4043C37.1805 52.5018 36.8283 52.6105 36.432 52.7303C35.0722 53.1413 33.6909 52.6386 32.9133 51.4496C32.6867 51.103 32.4867 50.7933 32.3071 50.5152C30.6501 47.9491 30.521 47.8408 27.7059 46.6545C27.3637 46.5106 27.022 46.3658 26.6807 46.2199C25.3748 45.6606 24.6397 44.3876 24.8084 42.9769C24.8527 42.6085 24.8981 42.2401 24.9446 41.8719C25.3248 38.8406 25.2955 38.6749 23.9016 35.9565C23.7319 35.6264 23.5632 35.2957 23.3956 34.9646C22.7547 33.6966 23.0099 32.2491 24.0458 31.2769C24.3477 30.9935 24.6179 30.7428 24.8606 30.5177C27.1001 28.4402 27.1843 28.2943 27.8637 25.316C27.9374 24.9933 28.0194 24.6339 28.1138 24.2308C28.4379 22.8475 29.5639 21.9027 30.9825 21.8239C31.3958 21.8008 31.7641 21.7825 32.0946 21.766C35.1457 21.6141 35.3039 21.5565 37.7389 19.7116C38.0027 19.5117 38.2965 19.2891 38.6278 19.0411C39.7652 18.1897 41.235 18.1897 42.3724 19.0411C42.7038 19.2891 42.9975 19.5116 43.2613 19.7116C45.6963 21.5564 45.8545 21.6141 48.9056 21.766C49.2362 21.7825 49.6044 21.8008 50.0177 21.8239C51.4363 21.9027 52.5622 22.8475 52.8863 24.2308C52.9807 24.6339 53.0627 24.9933 53.1363 25.316C53.8158 28.2943 53.9 28.4402 56.1396 30.5177C56.3822 30.7429 56.6525 30.9936 56.9544 31.2769C57.9902 32.2491 58.2454 33.6967 57.6045 34.9646ZM40.5 23.9486C34.0544 23.9486 28.8106 29.1925 28.8106 35.6381C28.8106 42.0836 34.0544 47.3275 40.5 47.3275C46.9457 47.3275 52.1895 42.0836 52.1895 35.6381C52.1895 29.1925 46.9457 23.9486 40.5 23.9486ZM40.5 45.9214C34.8299 45.9214 30.2168 41.3083 30.2168 35.6382C30.2168 29.968 34.8299 25.355 40.5 25.355C46.1702 25.355 50.7833 29.968 50.7833 35.6382C50.7833 41.3083 46.1702 45.9214 40.5 45.9214ZM43.9776 37.02H43.9766C43.2339 37.0202 42.5357 37.3097 42.0108 37.835C41.4857 38.3603 41.1968 39.0587 41.1971 39.8014C41.1974 40.5441 41.4868 41.2423 42.0121 41.7673C42.5373 42.292 43.2352 42.581 43.9776 42.581H43.9785C45.5117 42.5804 46.7587 41.3327 46.758 39.7996C46.7578 39.0568 46.4683 38.3586 45.943 37.8337C45.418 37.3089 44.7201 37.02 43.9776 37.02ZM43.9781 41.1747H43.9777C43.7972 41.1752 43.6184 41.14 43.4517 41.0709C43.2849 41.0019 43.1335 40.9005 43.0062 40.7726C42.8781 40.6453 42.7766 40.4939 42.7074 40.3271C42.6383 40.1603 42.6029 39.9815 42.6034 39.8009C42.6032 39.4338 42.746 39.0887 43.0055 38.829C43.2649 38.5694 43.61 38.4263 43.9771 38.4262H43.9776C44.3446 38.4262 44.6895 38.5691 44.9491 38.8284C45.0771 38.9557 45.1787 39.1071 45.2478 39.2739C45.317 39.4407 45.3523 39.6195 45.3519 39.8C45.3521 40.5578 44.7358 41.1745 43.9781 41.1747ZM37.0234 34.2563C38.5565 34.2558 39.8034 33.008 39.803 31.4749C39.8024 29.942 38.5552 28.6953 37.0224 28.6953H37.0214C35.4883 28.6959 34.2414 29.9436 34.2419 31.4768C34.2425 33.0097 35.4896 34.2564 37.0223 34.2563H37.0234ZM35.6482 31.4764C35.648 30.7186 36.2643 30.1018 37.022 30.1016H37.0225C37.78 30.1016 38.3966 30.7178 38.3968 31.4753C38.3971 32.2331 37.7808 32.8498 37.023 32.8501H37.0225C36.2649 32.8501 35.6485 32.2339 35.6482 31.4764ZM45.0272 30.5887L37.2416 41.4317C37.1765 41.5226 37.0906 41.5965 36.9912 41.6475C36.8918 41.6985 36.7816 41.725 36.6699 41.7249C36.5229 41.7249 36.3796 41.6787 36.2604 41.5928C36.1089 41.484 36.0069 41.3195 35.9767 41.1355C35.9465 40.9515 35.9906 40.763 36.0994 40.6115L43.885 29.7685C43.9944 29.6187 44.1586 29.5183 44.3417 29.489C44.5249 29.4597 44.7121 29.504 44.8628 29.6122C45.0134 29.7204 45.1152 29.8837 45.146 30.0666C45.1768 30.2495 45.1341 30.4371 45.0272 30.5887Z" fill="#209400"/>
</g>
<defs>
<clipPath id="clip0_401_44">
<rect width="45" height="45" fill="white" transform="translate(18 17)"/>
</clipPath>
</defs>
</svg>
