<svg width="80" height="80" viewBox="0 0 80 80" fill="none" xmlns="http://www.w3.org/2000/svg">
<circle cx="40" cy="40" r="40" fill="#209400" fill-opacity="0.2"/>
<path fill-rule="evenodd" clip-rule="evenodd" d="M40.4542 20.1484C44.9247 20.1484 48.554 23.9676 48.554 28.6719V30.5972H32.3545V28.6719C32.3545 23.9676 35.9839 20.1484 40.4542 20.1484Z" fill="#209400"/>
<path fill-rule="evenodd" clip-rule="evenodd" d="M32.4858 27.2249C33.131 23.2093 36.4554 20.1465 40.4543 20.1465C43.2127 20.1465 45.6501 21.6038 47.1089 23.8264C45.1889 26.3327 41.525 28.0282 37.3247 28.0282C35.5921 28.0282 33.9507 27.7397 32.4858 27.2249Z" fill="#209400"/>
<path fill-rule="evenodd" clip-rule="evenodd" d="M33.9406 29.6344C36.2777 27.2424 37.2096 23.0873 37.5457 20.9787C37.6701 20.1664 38.3155 19.5335 39.13 19.4249C39.5028 19.3767 39.9466 19.3496 40.4542 19.3496C40.962 19.3496 41.4057 19.3767 41.7798 19.4151C42.5988 19.5243 43.2477 20.1605 43.373 20.9772C43.699 23.0873 44.6308 27.2424 46.968 29.6344C48.2394 30.9357 32.6691 30.9357 33.9406 29.6344Z" fill="#209400"/>
<path fill-rule="evenodd" clip-rule="evenodd" d="M35.2825 27.8889C36.748 25.4398 37.3724 22.3397 37.6122 20.7374C37.7037 20.0828 38.2094 19.5631 38.8612 19.4536C39.2876 19.3937 39.8306 19.3496 40.4777 19.3496C41.1248 19.3496 41.6678 19.3937 42.0949 19.4491C42.7488 19.5589 43.2558 20.0801 43.3478 20.7368C43.5257 21.9444 43.9237 24.0024 44.736 25.9913C42.7626 27.2592 40.177 28.0283 37.3482 28.0283C36.6425 28.0283 35.9519 27.9804 35.2825 27.8889Z" fill="#209400"/>
<path fill-rule="evenodd" clip-rule="evenodd" d="M49.4424 30.756C49.4424 30.1362 48.94 29.6338 48.3202 29.6338C45.0935 29.6338 35.8153 29.6338 32.5885 29.6338C31.9688 29.6338 31.4663 30.1362 31.4663 30.756C31.4663 30.7569 31.4663 30.7578 31.4663 30.7588C31.4663 31.3786 31.9688 31.881 32.5885 31.881C35.8153 31.881 45.0935 31.881 48.3202 31.881C48.94 31.881 49.4424 31.3786 49.4424 30.7588C49.4424 30.7578 49.4424 30.7569 49.4424 30.756Z" fill="#209400"/>
<path fill-rule="evenodd" clip-rule="evenodd" d="M45.9335 44.7892L45.0388 40.9918L40.4719 38.6663L35.8353 40.9918L35.0142 44.8531C35.0142 44.8531 35.3099 51.4963 40.4542 51.4313C45.5986 51.3664 45.9335 44.7892 45.9335 44.7892Z" fill="#209400"/>
<path fill-rule="evenodd" clip-rule="evenodd" d="M35.542 42.7189L35.8353 40.2897L40.4719 38.6663L45.0388 40.2897L45.3375 42.7511C43.8624 44.3888 41.962 45.4146 40.4542 45.4146C38.9366 45.4146 37.0213 44.3754 35.542 42.7189Z" fill="#E08568"/>
<path fill-rule="evenodd" clip-rule="evenodd" d="M54.4028 48.8966C53.6527 47.1159 52.0401 45.8457 50.1332 45.5335C48.1235 45.2044 45.8658 44.8347 45.8658 44.8347C45.8658 44.8347 43.779 48.3567 40.4375 48.3567C37.096 48.3567 35.0092 44.8347 35.0092 44.8347C35.0092 44.8347 32.7897 45.2048 30.8152 45.534C28.9404 45.8466 27.3506 47.086 26.5903 48.8281C26.1274 49.8886 25.6027 51.0905 25.1495 52.1286C24.5312 53.5455 25.1738 55.1957 26.5874 55.8212C27.6205 56.2782 28.8859 56.8382 30.2285 57.4322C36.7632 60.3237 44.2164 60.3145 50.744 57.407C52.0672 56.8176 53.3128 56.2628 54.3291 55.8102C55.726 55.188 56.3685 53.5628 55.7749 52.1537C55.3445 51.1321 54.8461 49.9488 54.4028 48.8966Z" fill="#209400"/>
<path fill-rule="evenodd" clip-rule="evenodd" d="M41.7207 48.1812C41.3174 48.2923 40.8889 48.3566 40.4375 48.3566C39.986 48.3566 39.5575 48.2923 39.1543 48.1812H35.0092C35.0092 48.1812 32.099 48.5716 29.9791 48.856C28.5837 49.0434 27.3095 49.7477 26.4087 50.8296L25.0169 52.5013C24.6482 53.8235 25.2962 55.2497 26.5874 55.821C27.6205 56.2781 28.8859 56.8381 30.2285 57.4321C36.7632 60.3236 44.2164 60.3143 50.7441 57.4069C52.0673 56.8175 53.3128 56.2627 54.3291 55.81C55.6314 55.2301 56.278 53.7785 55.8787 52.4426L54.6071 50.8796C53.7018 49.767 52.4053 49.0429 50.9831 48.8554C48.8247 48.5711 45.8659 48.1812 45.8659 48.1812H41.7207Z" fill="#209400"/>
<path fill-rule="evenodd" clip-rule="evenodd" d="M33.2166 34.6659V31.8804H47.692V34.6659C47.692 39.269 43.3494 43.0252 40.4542 43.0252C37.5592 43.0252 33.2166 39.269 33.2166 34.6659Z" fill="#F8AE96"/>
<path fill-rule="evenodd" clip-rule="evenodd" d="M33.2166 34.4198V31.8804H45.6592V34.4198C45.6592 38.6161 41.9265 42.0405 39.4379 42.0405C36.9493 42.0405 33.2166 38.6161 33.2166 34.4198Z" fill="#F8AE96"/>
<path fill-rule="evenodd" clip-rule="evenodd" d="M50.0979 45.5249L45.8825 44.8347C45.8825 44.8347 43.7956 48.3567 40.4541 48.3567C37.1128 48.3567 35.0258 44.8347 35.0258 44.8347C35.0258 44.8347 32.8063 45.2048 30.8319 45.534L30.812 45.5374L32.371 58.2604C37.6114 60.0342 43.2927 60.0387 48.5357 58.2747L50.0979 45.5249Z" fill="#209400"/>
<path fill-rule="evenodd" clip-rule="evenodd" d="M33.3275 45.1179L30.812 45.5373L32.371 58.2603C33.232 58.5517 34.1048 58.7954 34.9863 58.9914L33.3275 45.1179Z" fill="#209400"/>
<path fill-rule="evenodd" clip-rule="evenodd" d="M47.5826 45.1179L50.0981 45.5373L48.5391 58.2603C47.6781 58.5517 46.8051 58.7954 45.9238 58.9914L47.5826 45.1179Z" fill="#209400"/>
</svg>
