<svg width="80" height="80" viewBox="0 0 80 80" fill="none" xmlns="http://www.w3.org/2000/svg">
<path d="M20.8125 26.8438V50.75H60.1875V26.8438H20.8125ZM26.4375 29.6562H54.5625C54.5625 30.4022 54.8588 31.1175 55.3863 31.645C55.9137 32.1724 56.6291 32.4688 57.375 32.4688V45.125C56.6291 45.125 55.9137 45.4213 55.3863 45.9488C54.8588 46.4762 54.5625 47.1916 54.5625 47.9375H26.4375C26.4375 47.1916 26.1412 46.4762 25.6137 45.9488C25.0863 45.4213 24.3709 45.125 23.625 45.125V32.4688C24.3709 32.4688 25.0863 32.1724 25.6137 31.645C26.1412 31.1175 26.4375 30.4022 26.4375 29.6562ZM40.5 32.4688C37.3908 32.4688 34.875 35.3038 34.875 38.7969C34.875 42.29 37.3908 45.125 40.5 45.125C43.6092 45.125 46.125 42.29 46.125 38.7969C46.125 35.3038 43.6092 32.4688 40.5 32.4688ZM40.5 35.2812C42.0497 35.2812 43.3125 36.8577 43.3125 38.7969C43.3125 40.7361 42.0497 42.3125 40.5 42.3125C38.9503 42.3125 37.6875 40.7361 37.6875 38.7969C37.6875 36.8577 38.9503 35.2812 40.5 35.2812ZM29.9531 36.6875C29.676 36.6876 29.4017 36.7423 29.1457 36.8484C28.8897 36.9545 28.6572 37.11 28.4613 37.306C28.2654 37.502 28.1101 37.7347 28.0041 37.9907C27.8981 38.2468 27.8437 38.5212 27.8438 38.7983C27.8438 39.0754 27.8985 39.3497 28.0046 39.6057C28.1108 39.8617 28.2663 40.0943 28.4623 40.2901C28.6583 40.486 28.8909 40.6413 29.147 40.7473C29.403 40.8533 29.6774 40.9077 29.9545 40.9077C30.5142 40.9075 31.0508 40.685 31.4464 40.2891C31.842 39.8933 32.0641 39.3565 32.0639 38.7969C32.0637 38.2372 31.8412 37.7006 31.4454 37.305C31.0495 36.9094 30.5128 36.6873 29.9531 36.6875ZM51.0469 36.6875C50.7698 36.6876 50.4954 36.7423 50.2394 36.8484C49.9835 36.9545 49.7509 37.11 49.555 37.306C49.3592 37.502 49.2038 37.7347 49.0979 37.9907C48.9919 38.2468 48.9374 38.5212 48.9375 38.7983C48.9376 39.0754 48.9923 39.3497 49.0984 39.6057C49.2045 39.8617 49.36 40.0943 49.556 40.2901C49.752 40.486 49.9847 40.6413 50.2407 40.7473C50.4968 40.8533 50.7712 40.9077 51.0483 40.9077C51.6079 40.9075 52.1445 40.685 52.5401 40.2891C52.9357 39.8933 53.1578 39.3565 53.1577 38.7969C53.1575 38.2372 52.935 37.7006 52.5391 37.305C52.1433 36.9094 51.6065 36.6873 51.0469 36.6875Z" fill="#209400"/>
<circle cx="40" cy="40" r="40" fill="#209400" fill-opacity="0.2"/>
</svg>
