<svg width="80" height="80" viewBox="0 0 80 80" fill="none" xmlns="http://www.w3.org/2000/svg">
<path fill-rule="evenodd" clip-rule="evenodd" d="M22.4122 30.6455C22.4121 30.8321 22.4861 31.0111 22.6178 31.1432C22.7495 31.2754 22.9283 31.3499 23.1148 31.3504H26.1024C27.2682 31.3504 28.5505 32.231 28.9676 33.3195L38.2355 48.3015C39.4862 51.5647 41.5214 51.5659 42.7807 48.3059L52.0857 33.3195C52.5058 32.2319 53.7895 31.3504 54.9573 31.3504H57.8559C58.0425 31.3499 58.2214 31.2754 58.3532 31.1433C58.485 31.0112 58.559 30.8321 58.559 30.6455V29.0972C58.5592 29.0048 58.5412 28.9133 58.506 28.8279C58.4709 28.7425 58.4192 28.6648 58.354 28.5994C58.2888 28.5339 58.2113 28.482 58.1261 28.4465C58.0408 28.411 57.9493 28.3926 57.8569 28.3925H53.7247C52.1716 28.3925 50.4645 29.5706 49.912 31.0225L41.6244 44.0043C41.0034 45.6368 40.0042 45.6324 39.3931 43.9954L31.2187 31.0282C30.6752 29.5725 28.9757 28.3923 27.4218 28.3923H23.1169C22.9301 28.3925 22.7509 28.4669 22.6188 28.599C22.4867 28.7312 22.4125 28.9104 22.4124 29.0972V30.6455H22.4122Z" fill="#209400"/>
<circle cx="40" cy="40" r="40" fill="#209400" fill-opacity="0.2"/>
</svg>
