<svg width="80" height="80" viewBox="0 0 80 80" fill="none" xmlns="http://www.w3.org/2000/svg">
<circle cx="40" cy="40" r="40" fill="#209400" fill-opacity="0.2"/>
<path d="M52.9664 45.125L44.0157 43.3672V42.2352C45.3403 41.6234 46.4855 40.6816 47.3414 39.5H48.9375C49.497 39.5 50.0335 39.2778 50.4291 38.8822C50.8247 38.4866 51.0469 37.9501 51.0469 37.3906V35.9844C51.6064 35.9844 52.1429 35.7621 52.5385 35.3666C52.934 34.971 53.1563 34.4344 53.1563 33.875V30.3594C53.1545 29.9119 53.0105 29.4766 52.7451 29.1164C52.4797 28.7562 52.1066 28.4897 51.6797 28.3555C51.8485 26.9467 51.6593 25.5181 51.1296 24.2019C50.5999 22.8856 49.7468 21.7242 48.6493 20.825C47.1938 19.6719 45.1969 20.1219 44.2547 20.382C43.7414 19.8547 42.6446 19.1094 40.5 19.1094C37.8422 19.1094 34.1719 19.4117 31.95 20.8461C27.7664 23.518 27.1407 31.0625 27.1407 35.2813V41.6094C27.1401 41.7019 27.1579 41.7936 27.1929 41.8793C27.2278 41.965 27.2794 42.0429 27.3446 42.1086C27.4993 42.2563 28.4063 43.0156 31.3594 43.0156C32.1061 43.0581 32.851 42.9061 33.5215 42.5746C34.1919 42.2431 34.7648 41.7434 35.1844 41.1242C35.7354 41.5686 36.3402 41.9418 36.9844 42.2352V43.3672L28.0336 45.125C26.7696 45.3683 25.6097 45.9913 24.709 46.911C23.8082 47.8306 23.2093 49.003 22.9922 50.2719L21.5157 59.075C21.4992 59.1763 21.5052 59.28 21.5331 59.3787C21.561 59.4775 21.6102 59.5689 21.6772 59.6467C21.7442 59.7244 21.8274 59.7865 21.9209 59.8287C22.0145 59.8708 22.1162 59.892 22.2188 59.8906H58.7813C58.8839 59.892 58.9856 59.8708 59.0791 59.8287C59.1727 59.7865 59.2559 59.7244 59.3229 59.6467C59.3899 59.5689 59.4391 59.4775 59.467 59.3787C59.4949 59.28 59.5008 59.1763 59.4844 59.075L58.0079 50.2719C57.7908 49.003 57.1919 47.8306 56.2911 46.911C55.3903 45.9913 54.2305 45.3683 52.9664 45.125ZM40.5 41.6094C38.6352 41.6094 36.8468 40.8686 35.5282 39.55C34.2096 38.2314 33.4688 36.4429 33.4688 34.5781V31.0625C35.4186 31.0208 37.3594 30.7853 39.2625 30.3594C40.7181 29.9901 42.0469 29.2346 43.1086 28.1727C44.2055 29.9656 46.4907 30.8305 47.5313 31.1469V34.5781C47.5291 35.813 47.2017 37.0256 46.5821 38.0938H41.7094C41.5867 37.8812 41.4105 37.7045 41.1984 37.5811C40.9862 37.4578 40.7454 37.3921 40.5 37.3906C40.1271 37.3906 39.7694 37.5388 39.5057 37.8025C39.2419 38.0662 39.0938 38.4239 39.0938 38.7969C39.0938 39.1698 39.2419 39.5275 39.5057 39.7912C39.7694 40.055 40.1271 40.2031 40.5 40.2031C40.7454 40.2016 40.9862 40.136 41.1984 40.0126C41.4105 39.8893 41.5867 39.7125 41.7094 39.5H45.5133C44.8596 40.1669 44.0796 40.6969 43.2189 41.0591C42.3581 41.4212 41.4339 41.6083 40.5 41.6094ZM30.6563 31.7656C30.6572 31.4274 30.7394 31.0943 30.8961 30.7945C31.0527 30.4947 31.2791 30.2369 31.5563 30.043L32.0625 29.8953V33.7484C31.6522 33.6034 31.2968 33.335 31.0451 32.98C30.7933 32.625 30.6575 32.2008 30.6563 31.7656ZM49.6407 37.3906C49.6407 37.5771 49.5666 37.756 49.4347 37.8878C49.3029 38.0197 49.124 38.0938 48.9375 38.0938H48.1571C48.4684 37.423 48.6883 36.7136 48.811 35.9844H49.6407V37.3906ZM51.75 33.875C51.75 34.0615 51.676 34.2403 51.5441 34.3722C51.4122 34.504 51.2334 34.5781 51.0469 34.5781H48.9375V29.6563H51.0469C51.2334 29.6563 51.4122 29.7303 51.5441 29.8622C51.676 29.9941 51.75 30.1729 51.75 30.3594V33.875ZM31.3594 41.6094C30.4053 41.6605 29.4503 41.5268 28.5469 41.2156V35.2813C28.5469 32.0961 28.9547 24.425 32.7094 22.0344C34.6711 20.7758 38.0321 20.5156 40.5 20.5156C42.7782 20.5156 43.3688 21.507 43.3899 21.5352C43.4702 21.6939 43.6078 21.8162 43.7748 21.8776C43.9418 21.9389 44.1259 21.9346 44.2899 21.8656C44.2899 21.8656 46.5188 20.9305 47.8055 21.9289C48.7242 22.6856 49.4358 23.6632 49.8736 24.77C50.3114 25.8768 50.4611 27.0766 50.3086 28.257H48.2344C48.0479 28.257 47.8691 28.3311 47.7372 28.463C47.6054 28.5948 47.5313 28.7737 47.5313 28.9602V29.6633C46.3782 29.2625 44.4094 28.3484 44.0157 26.6961C43.9822 26.5644 43.9113 26.4453 43.8115 26.3531C43.7118 26.2609 43.5874 26.1995 43.4536 26.1765C43.3197 26.1534 43.182 26.1696 43.0572 26.2232C42.9323 26.2767 42.8256 26.3653 42.75 26.4781C41.7888 27.7088 40.4416 28.5805 38.925 28.9531C37.1331 29.362 35.3059 29.5975 33.4688 29.6563V28.9531C33.4688 28.7666 33.3947 28.5878 33.2628 28.4559C33.131 28.3241 32.9521 28.25 32.7657 28.25C31.8968 28.2577 31.0615 28.5868 30.421 29.174C29.7805 29.7611 29.3801 30.5647 29.2971 31.4297C29.2141 32.2946 29.4543 33.1597 29.9715 33.8579C30.4887 34.5562 31.2461 35.0382 32.0977 35.2109C32.2289 37.0311 32.9497 38.7589 34.1508 40.1328C33.8789 40.6232 33.4703 41.0239 32.9746 41.2861C32.479 41.5483 31.9178 41.6606 31.3594 41.6094ZM37.8211 44.6328C37.9836 44.6014 38.1298 44.5137 38.234 44.385C38.3382 44.2564 38.3937 44.0952 38.3907 43.9297V42.7414C39.7731 43.1071 41.2269 43.1071 42.6094 42.7414V43.9438C42.6064 44.1092 42.6619 44.2705 42.766 44.3991C42.8702 44.5277 43.0164 44.6155 43.1789 44.6469L44.2969 44.8648L40.3735 47.6352L36.6469 44.8789L37.8211 44.6328ZM45.1688 45.9617L43.1227 58.4844H37.8774L35.8383 46.0109L39.9446 49.0555C40.0643 49.1419 40.2082 49.1883 40.3559 49.1883C40.5036 49.1883 40.6475 49.1419 40.7672 49.0555L45.1688 45.9617ZM24.3774 50.5039C24.5429 49.5133 25.0075 48.597 25.7088 47.8781C26.4101 47.1592 27.3146 46.672 28.3008 46.482L34.2985 45.3148L36.4571 58.4844H23.0485L24.3774 50.5039ZM44.543 58.4844L46.7016 45.3148L52.6993 46.482C53.6855 46.672 54.5899 47.1592 55.2913 47.8781C55.9926 48.597 56.4572 49.5133 56.6227 50.5039L57.9516 58.4844H44.543Z" fill="#209400"/>
</svg>
