<svg width="80" height="80" viewBox="0 0 80 80" fill="none" xmlns="http://www.w3.org/2000/svg">
<g opacity="0.8">
<path fill-rule="evenodd" clip-rule="evenodd" d="M27.8344 47V50.75C27.8344 51.2473 28.032 51.7242 28.3836 52.0758C28.7352 52.4275 29.2122 52.625 29.7094 52.625H57.8344C58.3317 52.625 58.8086 52.4275 59.1603 52.0758C59.5119 51.7242 59.7094 51.2473 59.7094 50.75V35.75C59.7094 35.2527 59.5119 34.7758 59.1603 34.4242C58.8086 34.0725 58.3317 33.875 57.8344 33.875H55.5001V37.3147C55.7569 37.6979 56.1043 38.012 56.5115 38.2289C56.9187 38.4459 57.3731 38.5592 57.8344 38.5588V47.9375C57.0913 47.9417 56.38 48.2399 55.856 48.7669C55.332 49.2939 55.0379 50.0068 55.0379 50.75H32.5172C32.5074 50.0111 32.2073 49.3057 31.6818 48.7861C31.1563 48.2666 30.4475 47.9745 29.7085 47.9731V47H27.8335H27.8344Z" fill="#209400"/>
<path d="M41.4375 35.75C41.4375 36.7446 41.0424 37.6984 40.3391 38.4016C39.6359 39.1049 38.6821 39.5 37.6875 39.5C36.6929 39.5 35.7391 39.1049 35.0359 38.4016C34.3326 37.6984 33.9375 36.7446 33.9375 35.75C33.9375 34.7554 34.3326 33.8016 35.0359 33.0984C35.7391 32.3951 36.6929 32 37.6875 32C38.6821 32 39.6359 32.3951 40.3391 33.0984C41.0424 33.8016 41.4375 34.7554 41.4375 35.75Z" fill="#209400"/>
<path fill-rule="evenodd" clip-rule="evenodd" d="M23.625 26.375C23.1277 26.375 22.6508 26.5725 22.2992 26.9242C21.9475 27.2758 21.75 27.7527 21.75 28.25V43.25C21.75 43.7473 21.9475 44.2242 22.2992 44.5758C22.6508 44.9275 23.1277 45.125 23.625 45.125H51.75C52.2473 45.125 52.7242 44.9275 53.0758 44.5758C53.4275 44.2242 53.625 43.7473 53.625 43.25V28.25C53.625 27.7527 53.4275 27.2758 53.0758 26.9242C52.7242 26.5725 52.2473 26.375 51.75 26.375H23.625ZM26.4356 28.25H48.9384C48.9392 28.9952 49.2357 29.7096 49.7629 30.2363C50.2901 30.7629 51.0048 31.0588 51.75 31.0588V40.4375C51.0067 40.4412 50.2951 40.7392 49.771 41.2663C49.2469 41.7934 48.9529 42.5067 48.9534 43.25H26.4338C26.4244 42.5109 26.1245 41.8052 25.5988 41.2856C25.0732 40.7659 24.3641 40.4741 23.625 40.4731V31.0625C23.9943 31.0625 24.3599 30.9897 24.701 30.8484C25.0421 30.707 25.3521 30.4998 25.6131 30.2386C25.8741 29.9774 26.0811 29.6674 26.2222 29.3262C26.3634 28.9849 26.4359 28.6193 26.4356 28.25Z" fill="#209400"/>
<circle cx="40" cy="40" r="40" fill="#209400" fill-opacity="0.2"/>
</g>
</svg>
